M48
INCH,TZ
T1C0.0157
T2C0.0276
T3C0.0315
T4C0.0354
T5C0.0394
T6C0.0500
T7C0.0591
T8C0.0669
T9C0.1260
%
G90
G05
T1
X12100Y-54700
X12100Y-55100
X12300Y-49600
X12300Y-50000
X12400Y-51900
X12400Y-52200
X12500Y-54700
X12500Y-55100
X12900Y-54700
X12900Y-55100
X15800Y-55350
X15800Y-55650
X16850Y-55800
X17150Y-55800
X17900Y-55150
X17900Y-57700
X18722Y-50244
X18722Y-50940
X21350Y-51650
X21350Y-52200
X21350Y-52800
X21350Y-53400
X21950Y-51600
X22400Y-52800
X22400Y-53400
X22600Y-51600
X22600Y-55150
X23000Y-52800
X23100Y-55200
X23100Y-56550
X23100Y-59450
X23250Y-51600
X23400Y-55200
X23750Y-52800
X23900Y-51600
X24450Y-52800
X24500Y-50090
X24500Y-51600
X25150Y-51600
X25150Y-52800
X25500Y-48696
X25500Y-55650
X25750Y-51600
X25950Y-52800
X26300Y-51600
X26450Y-53500
X26700Y-52800
X26850Y-51600
X27400Y-52800
X28100Y-52800
X28600Y-47150
X28600Y-47450
X28750Y-54950
X28750Y-58400
X29100Y-48300
X29100Y-58400
X29450Y-58400
X29650Y-54950
X30050Y-51700
X30150Y-52800
X30200Y-48150
X30200Y-48450
X30700Y-51700
X30950Y-52800
X31200Y-58000
X31400Y-51700
X31550Y-58000
X31600Y-52800
X31900Y-58000
X32100Y-51700
X32200Y-57050
X32300Y-52800
X32800Y-51700
X32800Y-53200
X33450Y-51700
X34100Y-51700
X34350Y-53800
X34350Y-54100
X34350Y-54400
X34359Y-56309
X34391Y-50100
X34400Y-48600
X34400Y-49450
X34422Y-50940
X34700Y-53800
X35250Y-57500
X35250Y-57850
X35900Y-51950
X35900Y-52250
X36700Y-53650
X36700Y-53950
X36700Y-54250
X36700Y-56650
X37050Y-53650
T2
X28900Y-53800
X30900Y-53800
X35550Y-48950
X35550Y-50950
X31150Y-54800
X31150Y-56800
X27600Y-56750
X29600Y-56750
X31250Y-48050
X31250Y-50050
X26800Y-47800
X26800Y-49800
X19972Y-50340
X19972Y-52340
X21222Y-48750
X21222Y-50750
X27972Y-49400
X27972Y-51400
T3
X19279Y-55200
X21200Y-55200
X19300Y-57700
X21221Y-57700
T4
X18500Y-46000
X19500Y-46000
T5
X37000Y-48150
X37000Y-49150
X37000Y-50150
T6
X23000Y-45500
T7
X33800Y-44550
X28900Y-44550
T8
X32800Y-43550
X32800Y-45550
X34800Y-43550
X34800Y-45550
X27900Y-43550
X27900Y-45550
X29900Y-43550
X29900Y-45550
T9
X12750Y-44500
X36750Y-44500
X36700Y-58900
X12700Y-58900
T5
G00X14250Y-46525
M15
G01X14250Y-47313
M16
G05
G00X16494Y-45738
M15
G01X15706Y-45738
M16
G05
G00X16494Y-48100
M15
G01X15706Y-48100
M16
G05
T7
G00X21802Y-44302
M15
G01X21245Y-43745
M16
G05
G00X21802Y-46698
M15
G01X21245Y-47255
M16
G05
G00X24755Y-43745
M15
G01X24198Y-44302
M16
G05
G00X24755Y-47255
M15
G01X24198Y-46698
M16
G05
T0
M30
