%TF.GenerationSoftware,KiCad,Pcbnew,(5.1.2)-2*%
%TF.CreationDate,2019-08-18T23:04:57+01:00*%
%TF.ProjectId,ReferenceBias,52656665-7265-46e6-9365-426961732e6b,rev?*%
%TF.SameCoordinates,Original*%
%TF.FileFunction,Soldermask,Bot*%
%TF.FilePolarity,Negative*%
%FSLAX46Y46*%
G04 Gerber Fmt 4.6, Leading zero omitted, Abs format (unit mm)*
G04 Created by KiCad (PCBNEW (5.1.2)-2) date 2019-08-18 23:04:57*
%MOMM*%
%LPD*%
G04 APERTURE LIST*
%ADD10C,0.150000*%
%ADD11C,1.900000*%
%ADD12C,0.100000*%
%ADD13C,2.400000*%
%ADD14R,2.100000X2.100000*%
%ADD15O,2.100000X2.100000*%
%ADD16C,4.000000*%
%ADD17C,3.956000*%
%ADD18R,3.900000X3.900000*%
%ADD19C,3.400000*%
%ADD20C,3.900000*%
%ADD21C,2.650000*%
%ADD22C,2.450000*%
%ADD23C,6.400000*%
%ADD24R,2.200000X2.200000*%
%ADD25C,2.200000*%
G04 APERTURE END LIST*
D10*
X28500000Y-109000000D02*
X28500000Y-154000000D01*
X97000000Y-154000000D02*
X28500000Y-154000000D01*
X97000000Y-109000000D02*
X97000000Y-154000000D01*
X28500000Y-109000000D02*
X97000000Y-109000000D01*
D11*
X53902000Y-146558000D03*
X49022000Y-146558000D03*
X48968000Y-140208000D03*
X53848000Y-140208000D03*
D12*
G36*
X79216247Y-135454508D02*
G01*
X79266803Y-135462007D01*
X79316380Y-135474425D01*
X79364502Y-135491644D01*
X79410703Y-135513495D01*
X79454541Y-135539771D01*
X79495592Y-135570216D01*
X79533461Y-135604539D01*
X79567784Y-135642408D01*
X79598229Y-135683459D01*
X79624505Y-135727297D01*
X79646356Y-135773498D01*
X79663575Y-135821620D01*
X79675993Y-135871197D01*
X79683492Y-135921753D01*
X79686000Y-135972800D01*
X79686000Y-137331200D01*
X79683492Y-137382247D01*
X79675993Y-137432803D01*
X79663575Y-137482380D01*
X79646356Y-137530502D01*
X79624505Y-137576703D01*
X79598229Y-137620541D01*
X79567784Y-137661592D01*
X79533461Y-137699461D01*
X79495592Y-137733784D01*
X79454541Y-137764229D01*
X79410703Y-137790505D01*
X79364502Y-137812356D01*
X79316380Y-137829575D01*
X79266803Y-137841993D01*
X79216247Y-137849492D01*
X79165200Y-137852000D01*
X76806800Y-137852000D01*
X76755753Y-137849492D01*
X76705197Y-137841993D01*
X76655620Y-137829575D01*
X76607498Y-137812356D01*
X76561297Y-137790505D01*
X76517459Y-137764229D01*
X76476408Y-137733784D01*
X76438539Y-137699461D01*
X76404216Y-137661592D01*
X76373771Y-137620541D01*
X76347495Y-137576703D01*
X76325644Y-137530502D01*
X76308425Y-137482380D01*
X76296007Y-137432803D01*
X76288508Y-137382247D01*
X76286000Y-137331200D01*
X76286000Y-135972800D01*
X76288508Y-135921753D01*
X76296007Y-135871197D01*
X76308425Y-135821620D01*
X76325644Y-135773498D01*
X76347495Y-135727297D01*
X76373771Y-135683459D01*
X76404216Y-135642408D01*
X76438539Y-135604539D01*
X76476408Y-135570216D01*
X76517459Y-135539771D01*
X76561297Y-135513495D01*
X76607498Y-135491644D01*
X76655620Y-135474425D01*
X76705197Y-135462007D01*
X76755753Y-135454508D01*
X76806800Y-135452000D01*
X79165200Y-135452000D01*
X79216247Y-135454508D01*
X79216247Y-135454508D01*
G37*
D13*
X77986000Y-136652000D03*
D12*
G36*
X75136247Y-135454508D02*
G01*
X75186803Y-135462007D01*
X75236380Y-135474425D01*
X75284502Y-135491644D01*
X75330703Y-135513495D01*
X75374541Y-135539771D01*
X75415592Y-135570216D01*
X75453461Y-135604539D01*
X75487784Y-135642408D01*
X75518229Y-135683459D01*
X75544505Y-135727297D01*
X75566356Y-135773498D01*
X75583575Y-135821620D01*
X75595993Y-135871197D01*
X75603492Y-135921753D01*
X75606000Y-135972800D01*
X75606000Y-137331200D01*
X75603492Y-137382247D01*
X75595993Y-137432803D01*
X75583575Y-137482380D01*
X75566356Y-137530502D01*
X75544505Y-137576703D01*
X75518229Y-137620541D01*
X75487784Y-137661592D01*
X75453461Y-137699461D01*
X75415592Y-137733784D01*
X75374541Y-137764229D01*
X75330703Y-137790505D01*
X75284502Y-137812356D01*
X75236380Y-137829575D01*
X75186803Y-137841993D01*
X75136247Y-137849492D01*
X75085200Y-137852000D01*
X72726800Y-137852000D01*
X72675753Y-137849492D01*
X72625197Y-137841993D01*
X72575620Y-137829575D01*
X72527498Y-137812356D01*
X72481297Y-137790505D01*
X72437459Y-137764229D01*
X72396408Y-137733784D01*
X72358539Y-137699461D01*
X72324216Y-137661592D01*
X72293771Y-137620541D01*
X72267495Y-137576703D01*
X72245644Y-137530502D01*
X72228425Y-137482380D01*
X72216007Y-137432803D01*
X72208508Y-137382247D01*
X72206000Y-137331200D01*
X72206000Y-135972800D01*
X72208508Y-135921753D01*
X72216007Y-135871197D01*
X72228425Y-135821620D01*
X72245644Y-135773498D01*
X72267495Y-135727297D01*
X72293771Y-135683459D01*
X72324216Y-135642408D01*
X72358539Y-135604539D01*
X72396408Y-135570216D01*
X72437459Y-135539771D01*
X72481297Y-135513495D01*
X72527498Y-135491644D01*
X72575620Y-135474425D01*
X72625197Y-135462007D01*
X72675753Y-135454508D01*
X72726800Y-135452000D01*
X75085200Y-135452000D01*
X75136247Y-135454508D01*
X75136247Y-135454508D01*
G37*
D13*
X73906000Y-136652000D03*
D12*
G36*
X79851247Y-142074508D02*
G01*
X79901803Y-142082007D01*
X79951380Y-142094425D01*
X79999502Y-142111644D01*
X80045703Y-142133495D01*
X80089541Y-142159771D01*
X80130592Y-142190216D01*
X80168461Y-142224539D01*
X80202784Y-142262408D01*
X80233229Y-142303459D01*
X80259505Y-142347297D01*
X80281356Y-142393498D01*
X80298575Y-142441620D01*
X80310993Y-142491197D01*
X80318492Y-142541753D01*
X80321000Y-142592800D01*
X80321000Y-144951200D01*
X80318492Y-145002247D01*
X80310993Y-145052803D01*
X80298575Y-145102380D01*
X80281356Y-145150502D01*
X80259505Y-145196703D01*
X80233229Y-145240541D01*
X80202784Y-145281592D01*
X80168461Y-145319461D01*
X80130592Y-145353784D01*
X80089541Y-145384229D01*
X80045703Y-145410505D01*
X79999502Y-145432356D01*
X79951380Y-145449575D01*
X79901803Y-145461993D01*
X79851247Y-145469492D01*
X79800200Y-145472000D01*
X78441800Y-145472000D01*
X78390753Y-145469492D01*
X78340197Y-145461993D01*
X78290620Y-145449575D01*
X78242498Y-145432356D01*
X78196297Y-145410505D01*
X78152459Y-145384229D01*
X78111408Y-145353784D01*
X78073539Y-145319461D01*
X78039216Y-145281592D01*
X78008771Y-145240541D01*
X77982495Y-145196703D01*
X77960644Y-145150502D01*
X77943425Y-145102380D01*
X77931007Y-145052803D01*
X77923508Y-145002247D01*
X77921000Y-144951200D01*
X77921000Y-142592800D01*
X77923508Y-142541753D01*
X77931007Y-142491197D01*
X77943425Y-142441620D01*
X77960644Y-142393498D01*
X77982495Y-142347297D01*
X78008771Y-142303459D01*
X78039216Y-142262408D01*
X78073539Y-142224539D01*
X78111408Y-142190216D01*
X78152459Y-142159771D01*
X78196297Y-142133495D01*
X78242498Y-142111644D01*
X78290620Y-142094425D01*
X78340197Y-142082007D01*
X78390753Y-142074508D01*
X78441800Y-142072000D01*
X79800200Y-142072000D01*
X79851247Y-142074508D01*
X79851247Y-142074508D01*
G37*
D13*
X79121000Y-143772000D03*
D12*
G36*
X79851247Y-137994508D02*
G01*
X79901803Y-138002007D01*
X79951380Y-138014425D01*
X79999502Y-138031644D01*
X80045703Y-138053495D01*
X80089541Y-138079771D01*
X80130592Y-138110216D01*
X80168461Y-138144539D01*
X80202784Y-138182408D01*
X80233229Y-138223459D01*
X80259505Y-138267297D01*
X80281356Y-138313498D01*
X80298575Y-138361620D01*
X80310993Y-138411197D01*
X80318492Y-138461753D01*
X80321000Y-138512800D01*
X80321000Y-140871200D01*
X80318492Y-140922247D01*
X80310993Y-140972803D01*
X80298575Y-141022380D01*
X80281356Y-141070502D01*
X80259505Y-141116703D01*
X80233229Y-141160541D01*
X80202784Y-141201592D01*
X80168461Y-141239461D01*
X80130592Y-141273784D01*
X80089541Y-141304229D01*
X80045703Y-141330505D01*
X79999502Y-141352356D01*
X79951380Y-141369575D01*
X79901803Y-141381993D01*
X79851247Y-141389492D01*
X79800200Y-141392000D01*
X78441800Y-141392000D01*
X78390753Y-141389492D01*
X78340197Y-141381993D01*
X78290620Y-141369575D01*
X78242498Y-141352356D01*
X78196297Y-141330505D01*
X78152459Y-141304229D01*
X78111408Y-141273784D01*
X78073539Y-141239461D01*
X78039216Y-141201592D01*
X78008771Y-141160541D01*
X77982495Y-141116703D01*
X77960644Y-141070502D01*
X77943425Y-141022380D01*
X77931007Y-140972803D01*
X77923508Y-140922247D01*
X77921000Y-140871200D01*
X77921000Y-138512800D01*
X77923508Y-138461753D01*
X77931007Y-138411197D01*
X77943425Y-138361620D01*
X77960644Y-138313498D01*
X77982495Y-138267297D01*
X78008771Y-138223459D01*
X78039216Y-138182408D01*
X78073539Y-138144539D01*
X78111408Y-138110216D01*
X78152459Y-138079771D01*
X78196297Y-138053495D01*
X78242498Y-138031644D01*
X78290620Y-138014425D01*
X78340197Y-138002007D01*
X78390753Y-137994508D01*
X78441800Y-137992000D01*
X79800200Y-137992000D01*
X79851247Y-137994508D01*
X79851247Y-137994508D01*
G37*
D13*
X79121000Y-139692000D03*
D12*
G36*
X71834247Y-142947508D02*
G01*
X71884803Y-142955007D01*
X71934380Y-142967425D01*
X71982502Y-142984644D01*
X72028703Y-143006495D01*
X72072541Y-143032771D01*
X72113592Y-143063216D01*
X72151461Y-143097539D01*
X72185784Y-143135408D01*
X72216229Y-143176459D01*
X72242505Y-143220297D01*
X72264356Y-143266498D01*
X72281575Y-143314620D01*
X72293993Y-143364197D01*
X72301492Y-143414753D01*
X72304000Y-143465800D01*
X72304000Y-144824200D01*
X72301492Y-144875247D01*
X72293993Y-144925803D01*
X72281575Y-144975380D01*
X72264356Y-145023502D01*
X72242505Y-145069703D01*
X72216229Y-145113541D01*
X72185784Y-145154592D01*
X72151461Y-145192461D01*
X72113592Y-145226784D01*
X72072541Y-145257229D01*
X72028703Y-145283505D01*
X71982502Y-145305356D01*
X71934380Y-145322575D01*
X71884803Y-145334993D01*
X71834247Y-145342492D01*
X71783200Y-145345000D01*
X69424800Y-145345000D01*
X69373753Y-145342492D01*
X69323197Y-145334993D01*
X69273620Y-145322575D01*
X69225498Y-145305356D01*
X69179297Y-145283505D01*
X69135459Y-145257229D01*
X69094408Y-145226784D01*
X69056539Y-145192461D01*
X69022216Y-145154592D01*
X68991771Y-145113541D01*
X68965495Y-145069703D01*
X68943644Y-145023502D01*
X68926425Y-144975380D01*
X68914007Y-144925803D01*
X68906508Y-144875247D01*
X68904000Y-144824200D01*
X68904000Y-143465800D01*
X68906508Y-143414753D01*
X68914007Y-143364197D01*
X68926425Y-143314620D01*
X68943644Y-143266498D01*
X68965495Y-143220297D01*
X68991771Y-143176459D01*
X69022216Y-143135408D01*
X69056539Y-143097539D01*
X69094408Y-143063216D01*
X69135459Y-143032771D01*
X69179297Y-143006495D01*
X69225498Y-142984644D01*
X69273620Y-142967425D01*
X69323197Y-142955007D01*
X69373753Y-142947508D01*
X69424800Y-142945000D01*
X71783200Y-142945000D01*
X71834247Y-142947508D01*
X71834247Y-142947508D01*
G37*
D13*
X70604000Y-144145000D03*
D12*
G36*
X75914247Y-142947508D02*
G01*
X75964803Y-142955007D01*
X76014380Y-142967425D01*
X76062502Y-142984644D01*
X76108703Y-143006495D01*
X76152541Y-143032771D01*
X76193592Y-143063216D01*
X76231461Y-143097539D01*
X76265784Y-143135408D01*
X76296229Y-143176459D01*
X76322505Y-143220297D01*
X76344356Y-143266498D01*
X76361575Y-143314620D01*
X76373993Y-143364197D01*
X76381492Y-143414753D01*
X76384000Y-143465800D01*
X76384000Y-144824200D01*
X76381492Y-144875247D01*
X76373993Y-144925803D01*
X76361575Y-144975380D01*
X76344356Y-145023502D01*
X76322505Y-145069703D01*
X76296229Y-145113541D01*
X76265784Y-145154592D01*
X76231461Y-145192461D01*
X76193592Y-145226784D01*
X76152541Y-145257229D01*
X76108703Y-145283505D01*
X76062502Y-145305356D01*
X76014380Y-145322575D01*
X75964803Y-145334993D01*
X75914247Y-145342492D01*
X75863200Y-145345000D01*
X73504800Y-145345000D01*
X73453753Y-145342492D01*
X73403197Y-145334993D01*
X73353620Y-145322575D01*
X73305498Y-145305356D01*
X73259297Y-145283505D01*
X73215459Y-145257229D01*
X73174408Y-145226784D01*
X73136539Y-145192461D01*
X73102216Y-145154592D01*
X73071771Y-145113541D01*
X73045495Y-145069703D01*
X73023644Y-145023502D01*
X73006425Y-144975380D01*
X72994007Y-144925803D01*
X72986508Y-144875247D01*
X72984000Y-144824200D01*
X72984000Y-143465800D01*
X72986508Y-143414753D01*
X72994007Y-143364197D01*
X73006425Y-143314620D01*
X73023644Y-143266498D01*
X73045495Y-143220297D01*
X73071771Y-143176459D01*
X73102216Y-143135408D01*
X73136539Y-143097539D01*
X73174408Y-143063216D01*
X73215459Y-143032771D01*
X73259297Y-143006495D01*
X73305498Y-142984644D01*
X73353620Y-142967425D01*
X73403197Y-142955007D01*
X73453753Y-142947508D01*
X73504800Y-142945000D01*
X75863200Y-142945000D01*
X75914247Y-142947508D01*
X75914247Y-142947508D01*
G37*
D13*
X74684000Y-144145000D03*
D12*
G36*
X91027247Y-123135508D02*
G01*
X91077803Y-123143007D01*
X91127380Y-123155425D01*
X91175502Y-123172644D01*
X91221703Y-123194495D01*
X91265541Y-123220771D01*
X91306592Y-123251216D01*
X91344461Y-123285539D01*
X91378784Y-123323408D01*
X91409229Y-123364459D01*
X91435505Y-123408297D01*
X91457356Y-123454498D01*
X91474575Y-123502620D01*
X91486993Y-123552197D01*
X91494492Y-123602753D01*
X91497000Y-123653800D01*
X91497000Y-126012200D01*
X91494492Y-126063247D01*
X91486993Y-126113803D01*
X91474575Y-126163380D01*
X91457356Y-126211502D01*
X91435505Y-126257703D01*
X91409229Y-126301541D01*
X91378784Y-126342592D01*
X91344461Y-126380461D01*
X91306592Y-126414784D01*
X91265541Y-126445229D01*
X91221703Y-126471505D01*
X91175502Y-126493356D01*
X91127380Y-126510575D01*
X91077803Y-126522993D01*
X91027247Y-126530492D01*
X90976200Y-126533000D01*
X89617800Y-126533000D01*
X89566753Y-126530492D01*
X89516197Y-126522993D01*
X89466620Y-126510575D01*
X89418498Y-126493356D01*
X89372297Y-126471505D01*
X89328459Y-126445229D01*
X89287408Y-126414784D01*
X89249539Y-126380461D01*
X89215216Y-126342592D01*
X89184771Y-126301541D01*
X89158495Y-126257703D01*
X89136644Y-126211502D01*
X89119425Y-126163380D01*
X89107007Y-126113803D01*
X89099508Y-126063247D01*
X89097000Y-126012200D01*
X89097000Y-123653800D01*
X89099508Y-123602753D01*
X89107007Y-123552197D01*
X89119425Y-123502620D01*
X89136644Y-123454498D01*
X89158495Y-123408297D01*
X89184771Y-123364459D01*
X89215216Y-123323408D01*
X89249539Y-123285539D01*
X89287408Y-123251216D01*
X89328459Y-123220771D01*
X89372297Y-123194495D01*
X89418498Y-123172644D01*
X89466620Y-123155425D01*
X89516197Y-123143007D01*
X89566753Y-123135508D01*
X89617800Y-123133000D01*
X90976200Y-123133000D01*
X91027247Y-123135508D01*
X91027247Y-123135508D01*
G37*
D13*
X90297000Y-124833000D03*
D12*
G36*
X91027247Y-127215508D02*
G01*
X91077803Y-127223007D01*
X91127380Y-127235425D01*
X91175502Y-127252644D01*
X91221703Y-127274495D01*
X91265541Y-127300771D01*
X91306592Y-127331216D01*
X91344461Y-127365539D01*
X91378784Y-127403408D01*
X91409229Y-127444459D01*
X91435505Y-127488297D01*
X91457356Y-127534498D01*
X91474575Y-127582620D01*
X91486993Y-127632197D01*
X91494492Y-127682753D01*
X91497000Y-127733800D01*
X91497000Y-130092200D01*
X91494492Y-130143247D01*
X91486993Y-130193803D01*
X91474575Y-130243380D01*
X91457356Y-130291502D01*
X91435505Y-130337703D01*
X91409229Y-130381541D01*
X91378784Y-130422592D01*
X91344461Y-130460461D01*
X91306592Y-130494784D01*
X91265541Y-130525229D01*
X91221703Y-130551505D01*
X91175502Y-130573356D01*
X91127380Y-130590575D01*
X91077803Y-130602993D01*
X91027247Y-130610492D01*
X90976200Y-130613000D01*
X89617800Y-130613000D01*
X89566753Y-130610492D01*
X89516197Y-130602993D01*
X89466620Y-130590575D01*
X89418498Y-130573356D01*
X89372297Y-130551505D01*
X89328459Y-130525229D01*
X89287408Y-130494784D01*
X89249539Y-130460461D01*
X89215216Y-130422592D01*
X89184771Y-130381541D01*
X89158495Y-130337703D01*
X89136644Y-130291502D01*
X89119425Y-130243380D01*
X89107007Y-130193803D01*
X89099508Y-130143247D01*
X89097000Y-130092200D01*
X89097000Y-127733800D01*
X89099508Y-127682753D01*
X89107007Y-127632197D01*
X89119425Y-127582620D01*
X89136644Y-127534498D01*
X89158495Y-127488297D01*
X89184771Y-127444459D01*
X89215216Y-127403408D01*
X89249539Y-127365539D01*
X89287408Y-127331216D01*
X89328459Y-127300771D01*
X89372297Y-127274495D01*
X89418498Y-127252644D01*
X89466620Y-127235425D01*
X89516197Y-127223007D01*
X89566753Y-127215508D01*
X89617800Y-127213000D01*
X90976200Y-127213000D01*
X91027247Y-127215508D01*
X91027247Y-127215508D01*
G37*
D13*
X90297000Y-128913000D03*
D12*
G36*
X51459298Y-126666043D02*
G01*
X51509854Y-126673542D01*
X51559431Y-126685960D01*
X51607553Y-126703179D01*
X51653754Y-126725030D01*
X51697592Y-126751306D01*
X51738643Y-126781751D01*
X51776512Y-126816074D01*
X51810835Y-126853943D01*
X51841280Y-126894994D01*
X51867556Y-126938832D01*
X51889407Y-126985033D01*
X51906626Y-127033155D01*
X51919044Y-127082732D01*
X51926543Y-127133288D01*
X51929051Y-127184335D01*
X51929051Y-129542735D01*
X51926543Y-129593782D01*
X51919044Y-129644338D01*
X51906626Y-129693915D01*
X51889407Y-129742037D01*
X51867556Y-129788238D01*
X51841280Y-129832076D01*
X51810835Y-129873127D01*
X51776512Y-129910996D01*
X51738643Y-129945319D01*
X51697592Y-129975764D01*
X51653754Y-130002040D01*
X51607553Y-130023891D01*
X51559431Y-130041110D01*
X51509854Y-130053528D01*
X51459298Y-130061027D01*
X51408251Y-130063535D01*
X50049851Y-130063535D01*
X49998804Y-130061027D01*
X49948248Y-130053528D01*
X49898671Y-130041110D01*
X49850549Y-130023891D01*
X49804348Y-130002040D01*
X49760510Y-129975764D01*
X49719459Y-129945319D01*
X49681590Y-129910996D01*
X49647267Y-129873127D01*
X49616822Y-129832076D01*
X49590546Y-129788238D01*
X49568695Y-129742037D01*
X49551476Y-129693915D01*
X49539058Y-129644338D01*
X49531559Y-129593782D01*
X49529051Y-129542735D01*
X49529051Y-127184335D01*
X49531559Y-127133288D01*
X49539058Y-127082732D01*
X49551476Y-127033155D01*
X49568695Y-126985033D01*
X49590546Y-126938832D01*
X49616822Y-126894994D01*
X49647267Y-126853943D01*
X49681590Y-126816074D01*
X49719459Y-126781751D01*
X49760510Y-126751306D01*
X49804348Y-126725030D01*
X49850549Y-126703179D01*
X49898671Y-126685960D01*
X49948248Y-126673542D01*
X49998804Y-126666043D01*
X50049851Y-126663535D01*
X51408251Y-126663535D01*
X51459298Y-126666043D01*
X51459298Y-126666043D01*
G37*
D13*
X50729051Y-128363535D03*
D12*
G36*
X51459298Y-130746043D02*
G01*
X51509854Y-130753542D01*
X51559431Y-130765960D01*
X51607553Y-130783179D01*
X51653754Y-130805030D01*
X51697592Y-130831306D01*
X51738643Y-130861751D01*
X51776512Y-130896074D01*
X51810835Y-130933943D01*
X51841280Y-130974994D01*
X51867556Y-131018832D01*
X51889407Y-131065033D01*
X51906626Y-131113155D01*
X51919044Y-131162732D01*
X51926543Y-131213288D01*
X51929051Y-131264335D01*
X51929051Y-133622735D01*
X51926543Y-133673782D01*
X51919044Y-133724338D01*
X51906626Y-133773915D01*
X51889407Y-133822037D01*
X51867556Y-133868238D01*
X51841280Y-133912076D01*
X51810835Y-133953127D01*
X51776512Y-133990996D01*
X51738643Y-134025319D01*
X51697592Y-134055764D01*
X51653754Y-134082040D01*
X51607553Y-134103891D01*
X51559431Y-134121110D01*
X51509854Y-134133528D01*
X51459298Y-134141027D01*
X51408251Y-134143535D01*
X50049851Y-134143535D01*
X49998804Y-134141027D01*
X49948248Y-134133528D01*
X49898671Y-134121110D01*
X49850549Y-134103891D01*
X49804348Y-134082040D01*
X49760510Y-134055764D01*
X49719459Y-134025319D01*
X49681590Y-133990996D01*
X49647267Y-133953127D01*
X49616822Y-133912076D01*
X49590546Y-133868238D01*
X49568695Y-133822037D01*
X49551476Y-133773915D01*
X49539058Y-133724338D01*
X49531559Y-133673782D01*
X49529051Y-133622735D01*
X49529051Y-131264335D01*
X49531559Y-131213288D01*
X49539058Y-131162732D01*
X49551476Y-131113155D01*
X49568695Y-131065033D01*
X49590546Y-131018832D01*
X49616822Y-130974994D01*
X49647267Y-130933943D01*
X49681590Y-130896074D01*
X49719459Y-130861751D01*
X49760510Y-130831306D01*
X49804348Y-130805030D01*
X49850549Y-130783179D01*
X49898671Y-130765960D01*
X49948248Y-130753542D01*
X49998804Y-130746043D01*
X50049851Y-130743535D01*
X51408251Y-130743535D01*
X51459298Y-130746043D01*
X51459298Y-130746043D01*
G37*
D13*
X50729051Y-132443535D03*
D12*
G36*
X54634298Y-122627508D02*
G01*
X54684854Y-122635007D01*
X54734431Y-122647425D01*
X54782553Y-122664644D01*
X54828754Y-122686495D01*
X54872592Y-122712771D01*
X54913643Y-122743216D01*
X54951512Y-122777539D01*
X54985835Y-122815408D01*
X55016280Y-122856459D01*
X55042556Y-122900297D01*
X55064407Y-122946498D01*
X55081626Y-122994620D01*
X55094044Y-123044197D01*
X55101543Y-123094753D01*
X55104051Y-123145800D01*
X55104051Y-125504200D01*
X55101543Y-125555247D01*
X55094044Y-125605803D01*
X55081626Y-125655380D01*
X55064407Y-125703502D01*
X55042556Y-125749703D01*
X55016280Y-125793541D01*
X54985835Y-125834592D01*
X54951512Y-125872461D01*
X54913643Y-125906784D01*
X54872592Y-125937229D01*
X54828754Y-125963505D01*
X54782553Y-125985356D01*
X54734431Y-126002575D01*
X54684854Y-126014993D01*
X54634298Y-126022492D01*
X54583251Y-126025000D01*
X53224851Y-126025000D01*
X53173804Y-126022492D01*
X53123248Y-126014993D01*
X53073671Y-126002575D01*
X53025549Y-125985356D01*
X52979348Y-125963505D01*
X52935510Y-125937229D01*
X52894459Y-125906784D01*
X52856590Y-125872461D01*
X52822267Y-125834592D01*
X52791822Y-125793541D01*
X52765546Y-125749703D01*
X52743695Y-125703502D01*
X52726476Y-125655380D01*
X52714058Y-125605803D01*
X52706559Y-125555247D01*
X52704051Y-125504200D01*
X52704051Y-123145800D01*
X52706559Y-123094753D01*
X52714058Y-123044197D01*
X52726476Y-122994620D01*
X52743695Y-122946498D01*
X52765546Y-122900297D01*
X52791822Y-122856459D01*
X52822267Y-122815408D01*
X52856590Y-122777539D01*
X52894459Y-122743216D01*
X52935510Y-122712771D01*
X52979348Y-122686495D01*
X53025549Y-122664644D01*
X53073671Y-122647425D01*
X53123248Y-122635007D01*
X53173804Y-122627508D01*
X53224851Y-122625000D01*
X54583251Y-122625000D01*
X54634298Y-122627508D01*
X54634298Y-122627508D01*
G37*
D13*
X53904051Y-124325000D03*
D12*
G36*
X54634298Y-126707508D02*
G01*
X54684854Y-126715007D01*
X54734431Y-126727425D01*
X54782553Y-126744644D01*
X54828754Y-126766495D01*
X54872592Y-126792771D01*
X54913643Y-126823216D01*
X54951512Y-126857539D01*
X54985835Y-126895408D01*
X55016280Y-126936459D01*
X55042556Y-126980297D01*
X55064407Y-127026498D01*
X55081626Y-127074620D01*
X55094044Y-127124197D01*
X55101543Y-127174753D01*
X55104051Y-127225800D01*
X55104051Y-129584200D01*
X55101543Y-129635247D01*
X55094044Y-129685803D01*
X55081626Y-129735380D01*
X55064407Y-129783502D01*
X55042556Y-129829703D01*
X55016280Y-129873541D01*
X54985835Y-129914592D01*
X54951512Y-129952461D01*
X54913643Y-129986784D01*
X54872592Y-130017229D01*
X54828754Y-130043505D01*
X54782553Y-130065356D01*
X54734431Y-130082575D01*
X54684854Y-130094993D01*
X54634298Y-130102492D01*
X54583251Y-130105000D01*
X53224851Y-130105000D01*
X53173804Y-130102492D01*
X53123248Y-130094993D01*
X53073671Y-130082575D01*
X53025549Y-130065356D01*
X52979348Y-130043505D01*
X52935510Y-130017229D01*
X52894459Y-129986784D01*
X52856590Y-129952461D01*
X52822267Y-129914592D01*
X52791822Y-129873541D01*
X52765546Y-129829703D01*
X52743695Y-129783502D01*
X52726476Y-129735380D01*
X52714058Y-129685803D01*
X52706559Y-129635247D01*
X52704051Y-129584200D01*
X52704051Y-127225800D01*
X52706559Y-127174753D01*
X52714058Y-127124197D01*
X52726476Y-127074620D01*
X52743695Y-127026498D01*
X52765546Y-126980297D01*
X52791822Y-126936459D01*
X52822267Y-126895408D01*
X52856590Y-126857539D01*
X52894459Y-126823216D01*
X52935510Y-126792771D01*
X52979348Y-126766495D01*
X53025549Y-126744644D01*
X53073671Y-126727425D01*
X53123248Y-126715007D01*
X53173804Y-126707508D01*
X53224851Y-126705000D01*
X54583251Y-126705000D01*
X54634298Y-126707508D01*
X54634298Y-126707508D01*
G37*
D13*
X53904051Y-128405000D03*
D12*
G36*
X71779298Y-124278508D02*
G01*
X71829854Y-124286007D01*
X71879431Y-124298425D01*
X71927553Y-124315644D01*
X71973754Y-124337495D01*
X72017592Y-124363771D01*
X72058643Y-124394216D01*
X72096512Y-124428539D01*
X72130835Y-124466408D01*
X72161280Y-124507459D01*
X72187556Y-124551297D01*
X72209407Y-124597498D01*
X72226626Y-124645620D01*
X72239044Y-124695197D01*
X72246543Y-124745753D01*
X72249051Y-124796800D01*
X72249051Y-127155200D01*
X72246543Y-127206247D01*
X72239044Y-127256803D01*
X72226626Y-127306380D01*
X72209407Y-127354502D01*
X72187556Y-127400703D01*
X72161280Y-127444541D01*
X72130835Y-127485592D01*
X72096512Y-127523461D01*
X72058643Y-127557784D01*
X72017592Y-127588229D01*
X71973754Y-127614505D01*
X71927553Y-127636356D01*
X71879431Y-127653575D01*
X71829854Y-127665993D01*
X71779298Y-127673492D01*
X71728251Y-127676000D01*
X70369851Y-127676000D01*
X70318804Y-127673492D01*
X70268248Y-127665993D01*
X70218671Y-127653575D01*
X70170549Y-127636356D01*
X70124348Y-127614505D01*
X70080510Y-127588229D01*
X70039459Y-127557784D01*
X70001590Y-127523461D01*
X69967267Y-127485592D01*
X69936822Y-127444541D01*
X69910546Y-127400703D01*
X69888695Y-127354502D01*
X69871476Y-127306380D01*
X69859058Y-127256803D01*
X69851559Y-127206247D01*
X69849051Y-127155200D01*
X69849051Y-124796800D01*
X69851559Y-124745753D01*
X69859058Y-124695197D01*
X69871476Y-124645620D01*
X69888695Y-124597498D01*
X69910546Y-124551297D01*
X69936822Y-124507459D01*
X69967267Y-124466408D01*
X70001590Y-124428539D01*
X70039459Y-124394216D01*
X70080510Y-124363771D01*
X70124348Y-124337495D01*
X70170549Y-124315644D01*
X70218671Y-124298425D01*
X70268248Y-124286007D01*
X70318804Y-124278508D01*
X70369851Y-124276000D01*
X71728251Y-124276000D01*
X71779298Y-124278508D01*
X71779298Y-124278508D01*
G37*
D13*
X71049051Y-125976000D03*
D12*
G36*
X71779298Y-128358508D02*
G01*
X71829854Y-128366007D01*
X71879431Y-128378425D01*
X71927553Y-128395644D01*
X71973754Y-128417495D01*
X72017592Y-128443771D01*
X72058643Y-128474216D01*
X72096512Y-128508539D01*
X72130835Y-128546408D01*
X72161280Y-128587459D01*
X72187556Y-128631297D01*
X72209407Y-128677498D01*
X72226626Y-128725620D01*
X72239044Y-128775197D01*
X72246543Y-128825753D01*
X72249051Y-128876800D01*
X72249051Y-131235200D01*
X72246543Y-131286247D01*
X72239044Y-131336803D01*
X72226626Y-131386380D01*
X72209407Y-131434502D01*
X72187556Y-131480703D01*
X72161280Y-131524541D01*
X72130835Y-131565592D01*
X72096512Y-131603461D01*
X72058643Y-131637784D01*
X72017592Y-131668229D01*
X71973754Y-131694505D01*
X71927553Y-131716356D01*
X71879431Y-131733575D01*
X71829854Y-131745993D01*
X71779298Y-131753492D01*
X71728251Y-131756000D01*
X70369851Y-131756000D01*
X70318804Y-131753492D01*
X70268248Y-131745993D01*
X70218671Y-131733575D01*
X70170549Y-131716356D01*
X70124348Y-131694505D01*
X70080510Y-131668229D01*
X70039459Y-131637784D01*
X70001590Y-131603461D01*
X69967267Y-131565592D01*
X69936822Y-131524541D01*
X69910546Y-131480703D01*
X69888695Y-131434502D01*
X69871476Y-131386380D01*
X69859058Y-131336803D01*
X69851559Y-131286247D01*
X69849051Y-131235200D01*
X69849051Y-128876800D01*
X69851559Y-128825753D01*
X69859058Y-128775197D01*
X69871476Y-128725620D01*
X69888695Y-128677498D01*
X69910546Y-128631297D01*
X69936822Y-128587459D01*
X69967267Y-128546408D01*
X70001590Y-128508539D01*
X70039459Y-128474216D01*
X70080510Y-128443771D01*
X70124348Y-128417495D01*
X70170549Y-128395644D01*
X70218671Y-128378425D01*
X70268248Y-128366007D01*
X70318804Y-128358508D01*
X70369851Y-128356000D01*
X71728251Y-128356000D01*
X71779298Y-128358508D01*
X71779298Y-128358508D01*
G37*
D13*
X71049051Y-130056000D03*
D12*
G36*
X80105247Y-124929508D02*
G01*
X80155803Y-124937007D01*
X80205380Y-124949425D01*
X80253502Y-124966644D01*
X80299703Y-124988495D01*
X80343541Y-125014771D01*
X80384592Y-125045216D01*
X80422461Y-125079539D01*
X80456784Y-125117408D01*
X80487229Y-125158459D01*
X80513505Y-125202297D01*
X80535356Y-125248498D01*
X80552575Y-125296620D01*
X80564993Y-125346197D01*
X80572492Y-125396753D01*
X80575000Y-125447800D01*
X80575000Y-127806200D01*
X80572492Y-127857247D01*
X80564993Y-127907803D01*
X80552575Y-127957380D01*
X80535356Y-128005502D01*
X80513505Y-128051703D01*
X80487229Y-128095541D01*
X80456784Y-128136592D01*
X80422461Y-128174461D01*
X80384592Y-128208784D01*
X80343541Y-128239229D01*
X80299703Y-128265505D01*
X80253502Y-128287356D01*
X80205380Y-128304575D01*
X80155803Y-128316993D01*
X80105247Y-128324492D01*
X80054200Y-128327000D01*
X78695800Y-128327000D01*
X78644753Y-128324492D01*
X78594197Y-128316993D01*
X78544620Y-128304575D01*
X78496498Y-128287356D01*
X78450297Y-128265505D01*
X78406459Y-128239229D01*
X78365408Y-128208784D01*
X78327539Y-128174461D01*
X78293216Y-128136592D01*
X78262771Y-128095541D01*
X78236495Y-128051703D01*
X78214644Y-128005502D01*
X78197425Y-127957380D01*
X78185007Y-127907803D01*
X78177508Y-127857247D01*
X78175000Y-127806200D01*
X78175000Y-125447800D01*
X78177508Y-125396753D01*
X78185007Y-125346197D01*
X78197425Y-125296620D01*
X78214644Y-125248498D01*
X78236495Y-125202297D01*
X78262771Y-125158459D01*
X78293216Y-125117408D01*
X78327539Y-125079539D01*
X78365408Y-125045216D01*
X78406459Y-125014771D01*
X78450297Y-124988495D01*
X78496498Y-124966644D01*
X78544620Y-124949425D01*
X78594197Y-124937007D01*
X78644753Y-124929508D01*
X78695800Y-124927000D01*
X80054200Y-124927000D01*
X80105247Y-124929508D01*
X80105247Y-124929508D01*
G37*
D13*
X79375000Y-126627000D03*
D12*
G36*
X80105247Y-120849508D02*
G01*
X80155803Y-120857007D01*
X80205380Y-120869425D01*
X80253502Y-120886644D01*
X80299703Y-120908495D01*
X80343541Y-120934771D01*
X80384592Y-120965216D01*
X80422461Y-120999539D01*
X80456784Y-121037408D01*
X80487229Y-121078459D01*
X80513505Y-121122297D01*
X80535356Y-121168498D01*
X80552575Y-121216620D01*
X80564993Y-121266197D01*
X80572492Y-121316753D01*
X80575000Y-121367800D01*
X80575000Y-123726200D01*
X80572492Y-123777247D01*
X80564993Y-123827803D01*
X80552575Y-123877380D01*
X80535356Y-123925502D01*
X80513505Y-123971703D01*
X80487229Y-124015541D01*
X80456784Y-124056592D01*
X80422461Y-124094461D01*
X80384592Y-124128784D01*
X80343541Y-124159229D01*
X80299703Y-124185505D01*
X80253502Y-124207356D01*
X80205380Y-124224575D01*
X80155803Y-124236993D01*
X80105247Y-124244492D01*
X80054200Y-124247000D01*
X78695800Y-124247000D01*
X78644753Y-124244492D01*
X78594197Y-124236993D01*
X78544620Y-124224575D01*
X78496498Y-124207356D01*
X78450297Y-124185505D01*
X78406459Y-124159229D01*
X78365408Y-124128784D01*
X78327539Y-124094461D01*
X78293216Y-124056592D01*
X78262771Y-124015541D01*
X78236495Y-123971703D01*
X78214644Y-123925502D01*
X78197425Y-123877380D01*
X78185007Y-123827803D01*
X78177508Y-123777247D01*
X78175000Y-123726200D01*
X78175000Y-121367800D01*
X78177508Y-121316753D01*
X78185007Y-121266197D01*
X78197425Y-121216620D01*
X78214644Y-121168498D01*
X78236495Y-121122297D01*
X78262771Y-121078459D01*
X78293216Y-121037408D01*
X78327539Y-120999539D01*
X78365408Y-120965216D01*
X78406459Y-120934771D01*
X78450297Y-120908495D01*
X78496498Y-120886644D01*
X78544620Y-120869425D01*
X78594197Y-120857007D01*
X78644753Y-120849508D01*
X78695800Y-120847000D01*
X80054200Y-120847000D01*
X80105247Y-120849508D01*
X80105247Y-120849508D01*
G37*
D13*
X79375000Y-122547000D03*
D12*
G36*
X68802247Y-120214508D02*
G01*
X68852803Y-120222007D01*
X68902380Y-120234425D01*
X68950502Y-120251644D01*
X68996703Y-120273495D01*
X69040541Y-120299771D01*
X69081592Y-120330216D01*
X69119461Y-120364539D01*
X69153784Y-120402408D01*
X69184229Y-120443459D01*
X69210505Y-120487297D01*
X69232356Y-120533498D01*
X69249575Y-120581620D01*
X69261993Y-120631197D01*
X69269492Y-120681753D01*
X69272000Y-120732800D01*
X69272000Y-123091200D01*
X69269492Y-123142247D01*
X69261993Y-123192803D01*
X69249575Y-123242380D01*
X69232356Y-123290502D01*
X69210505Y-123336703D01*
X69184229Y-123380541D01*
X69153784Y-123421592D01*
X69119461Y-123459461D01*
X69081592Y-123493784D01*
X69040541Y-123524229D01*
X68996703Y-123550505D01*
X68950502Y-123572356D01*
X68902380Y-123589575D01*
X68852803Y-123601993D01*
X68802247Y-123609492D01*
X68751200Y-123612000D01*
X67392800Y-123612000D01*
X67341753Y-123609492D01*
X67291197Y-123601993D01*
X67241620Y-123589575D01*
X67193498Y-123572356D01*
X67147297Y-123550505D01*
X67103459Y-123524229D01*
X67062408Y-123493784D01*
X67024539Y-123459461D01*
X66990216Y-123421592D01*
X66959771Y-123380541D01*
X66933495Y-123336703D01*
X66911644Y-123290502D01*
X66894425Y-123242380D01*
X66882007Y-123192803D01*
X66874508Y-123142247D01*
X66872000Y-123091200D01*
X66872000Y-120732800D01*
X66874508Y-120681753D01*
X66882007Y-120631197D01*
X66894425Y-120581620D01*
X66911644Y-120533498D01*
X66933495Y-120487297D01*
X66959771Y-120443459D01*
X66990216Y-120402408D01*
X67024539Y-120364539D01*
X67062408Y-120330216D01*
X67103459Y-120299771D01*
X67147297Y-120273495D01*
X67193498Y-120251644D01*
X67241620Y-120234425D01*
X67291197Y-120222007D01*
X67341753Y-120214508D01*
X67392800Y-120212000D01*
X68751200Y-120212000D01*
X68802247Y-120214508D01*
X68802247Y-120214508D01*
G37*
D13*
X68072000Y-121912000D03*
D12*
G36*
X68802247Y-124294508D02*
G01*
X68852803Y-124302007D01*
X68902380Y-124314425D01*
X68950502Y-124331644D01*
X68996703Y-124353495D01*
X69040541Y-124379771D01*
X69081592Y-124410216D01*
X69119461Y-124444539D01*
X69153784Y-124482408D01*
X69184229Y-124523459D01*
X69210505Y-124567297D01*
X69232356Y-124613498D01*
X69249575Y-124661620D01*
X69261993Y-124711197D01*
X69269492Y-124761753D01*
X69272000Y-124812800D01*
X69272000Y-127171200D01*
X69269492Y-127222247D01*
X69261993Y-127272803D01*
X69249575Y-127322380D01*
X69232356Y-127370502D01*
X69210505Y-127416703D01*
X69184229Y-127460541D01*
X69153784Y-127501592D01*
X69119461Y-127539461D01*
X69081592Y-127573784D01*
X69040541Y-127604229D01*
X68996703Y-127630505D01*
X68950502Y-127652356D01*
X68902380Y-127669575D01*
X68852803Y-127681993D01*
X68802247Y-127689492D01*
X68751200Y-127692000D01*
X67392800Y-127692000D01*
X67341753Y-127689492D01*
X67291197Y-127681993D01*
X67241620Y-127669575D01*
X67193498Y-127652356D01*
X67147297Y-127630505D01*
X67103459Y-127604229D01*
X67062408Y-127573784D01*
X67024539Y-127539461D01*
X66990216Y-127501592D01*
X66959771Y-127460541D01*
X66933495Y-127416703D01*
X66911644Y-127370502D01*
X66894425Y-127322380D01*
X66882007Y-127272803D01*
X66874508Y-127222247D01*
X66872000Y-127171200D01*
X66872000Y-124812800D01*
X66874508Y-124761753D01*
X66882007Y-124711197D01*
X66894425Y-124661620D01*
X66911644Y-124613498D01*
X66933495Y-124567297D01*
X66959771Y-124523459D01*
X66990216Y-124482408D01*
X67024539Y-124444539D01*
X67062408Y-124410216D01*
X67103459Y-124379771D01*
X67147297Y-124353495D01*
X67193498Y-124331644D01*
X67241620Y-124314425D01*
X67291197Y-124302007D01*
X67341753Y-124294508D01*
X67392800Y-124292000D01*
X68751200Y-124292000D01*
X68802247Y-124294508D01*
X68802247Y-124294508D01*
G37*
D13*
X68072000Y-125992000D03*
D14*
X93980000Y-122301000D03*
D15*
X93980000Y-124841000D03*
X93980000Y-127381000D03*
D12*
G36*
X55086215Y-116592403D02*
G01*
X55183288Y-116606803D01*
X55278483Y-116630648D01*
X55370881Y-116663708D01*
X55459595Y-116705667D01*
X55543768Y-116756118D01*
X55622591Y-116814578D01*
X55695305Y-116880481D01*
X57109519Y-118294695D01*
X57175422Y-118367409D01*
X57233882Y-118446232D01*
X57284333Y-118530405D01*
X57326292Y-118619119D01*
X57359352Y-118711517D01*
X57383197Y-118806712D01*
X57397597Y-118903785D01*
X57402412Y-119001802D01*
X57397597Y-119099819D01*
X57383197Y-119196892D01*
X57359352Y-119292087D01*
X57326292Y-119384485D01*
X57284333Y-119473199D01*
X57233882Y-119557372D01*
X57175422Y-119636195D01*
X57109519Y-119708909D01*
X55058909Y-121759519D01*
X54986195Y-121825422D01*
X54907372Y-121883882D01*
X54823199Y-121934333D01*
X54734485Y-121976292D01*
X54642087Y-122009352D01*
X54546892Y-122033197D01*
X54449819Y-122047597D01*
X54351802Y-122052412D01*
X54253785Y-122047597D01*
X54156712Y-122033197D01*
X54061517Y-122009352D01*
X53969119Y-121976292D01*
X53880405Y-121934333D01*
X53796232Y-121883882D01*
X53717409Y-121825422D01*
X53644695Y-121759519D01*
X52230481Y-120345305D01*
X52164578Y-120272591D01*
X52106118Y-120193768D01*
X52055667Y-120109595D01*
X52013708Y-120020881D01*
X51980648Y-119928483D01*
X51956803Y-119833288D01*
X51942403Y-119736215D01*
X51937588Y-119638198D01*
X51942403Y-119540181D01*
X51956803Y-119443108D01*
X51980648Y-119347913D01*
X52013708Y-119255515D01*
X52055667Y-119166801D01*
X52106118Y-119082628D01*
X52164578Y-119003805D01*
X52230481Y-118931091D01*
X54281091Y-116880481D01*
X54353805Y-116814578D01*
X54432628Y-116756118D01*
X54516801Y-116705667D01*
X54605515Y-116663708D01*
X54697913Y-116630648D01*
X54793108Y-116606803D01*
X54890181Y-116592403D01*
X54988198Y-116587588D01*
X55086215Y-116592403D01*
X55086215Y-116592403D01*
G37*
D16*
X54670000Y-119320000D03*
D12*
G36*
X54449819Y-109092403D02*
G01*
X54546892Y-109106803D01*
X54642087Y-109130648D01*
X54734485Y-109163708D01*
X54823199Y-109205667D01*
X54907372Y-109256118D01*
X54986195Y-109314578D01*
X55058909Y-109380481D01*
X57109519Y-111431091D01*
X57175422Y-111503805D01*
X57233882Y-111582628D01*
X57284333Y-111666801D01*
X57326292Y-111755515D01*
X57359352Y-111847913D01*
X57383197Y-111943108D01*
X57397597Y-112040181D01*
X57402412Y-112138198D01*
X57397597Y-112236215D01*
X57383197Y-112333288D01*
X57359352Y-112428483D01*
X57326292Y-112520881D01*
X57284333Y-112609595D01*
X57233882Y-112693768D01*
X57175422Y-112772591D01*
X57109519Y-112845305D01*
X55695305Y-114259519D01*
X55622591Y-114325422D01*
X55543768Y-114383882D01*
X55459595Y-114434333D01*
X55370881Y-114476292D01*
X55278483Y-114509352D01*
X55183288Y-114533197D01*
X55086215Y-114547597D01*
X54988198Y-114552412D01*
X54890181Y-114547597D01*
X54793108Y-114533197D01*
X54697913Y-114509352D01*
X54605515Y-114476292D01*
X54516801Y-114434333D01*
X54432628Y-114383882D01*
X54353805Y-114325422D01*
X54281091Y-114259519D01*
X52230481Y-112208909D01*
X52164578Y-112136195D01*
X52106118Y-112057372D01*
X52055667Y-111973199D01*
X52013708Y-111884485D01*
X51980648Y-111792087D01*
X51956803Y-111696892D01*
X51942403Y-111599819D01*
X51937588Y-111501802D01*
X51942403Y-111403785D01*
X51956803Y-111306712D01*
X51980648Y-111211517D01*
X52013708Y-111119119D01*
X52055667Y-111030405D01*
X52106118Y-110946232D01*
X52164578Y-110867409D01*
X52230481Y-110794695D01*
X53644695Y-109380481D01*
X53717409Y-109314578D01*
X53796232Y-109256118D01*
X53880405Y-109205667D01*
X53969119Y-109163708D01*
X54061517Y-109130648D01*
X54156712Y-109106803D01*
X54253785Y-109092403D01*
X54351802Y-109087588D01*
X54449819Y-109092403D01*
X54449819Y-109092403D01*
G37*
D16*
X54670000Y-111820000D03*
D12*
G36*
X61949819Y-116592403D02*
G01*
X62046892Y-116606803D01*
X62142087Y-116630648D01*
X62234485Y-116663708D01*
X62323199Y-116705667D01*
X62407372Y-116756118D01*
X62486195Y-116814578D01*
X62558909Y-116880481D01*
X64609519Y-118931091D01*
X64675422Y-119003805D01*
X64733882Y-119082628D01*
X64784333Y-119166801D01*
X64826292Y-119255515D01*
X64859352Y-119347913D01*
X64883197Y-119443108D01*
X64897597Y-119540181D01*
X64902412Y-119638198D01*
X64897597Y-119736215D01*
X64883197Y-119833288D01*
X64859352Y-119928483D01*
X64826292Y-120020881D01*
X64784333Y-120109595D01*
X64733882Y-120193768D01*
X64675422Y-120272591D01*
X64609519Y-120345305D01*
X63195305Y-121759519D01*
X63122591Y-121825422D01*
X63043768Y-121883882D01*
X62959595Y-121934333D01*
X62870881Y-121976292D01*
X62778483Y-122009352D01*
X62683288Y-122033197D01*
X62586215Y-122047597D01*
X62488198Y-122052412D01*
X62390181Y-122047597D01*
X62293108Y-122033197D01*
X62197913Y-122009352D01*
X62105515Y-121976292D01*
X62016801Y-121934333D01*
X61932628Y-121883882D01*
X61853805Y-121825422D01*
X61781091Y-121759519D01*
X59730481Y-119708909D01*
X59664578Y-119636195D01*
X59606118Y-119557372D01*
X59555667Y-119473199D01*
X59513708Y-119384485D01*
X59480648Y-119292087D01*
X59456803Y-119196892D01*
X59442403Y-119099819D01*
X59437588Y-119001802D01*
X59442403Y-118903785D01*
X59456803Y-118806712D01*
X59480648Y-118711517D01*
X59513708Y-118619119D01*
X59555667Y-118530405D01*
X59606118Y-118446232D01*
X59664578Y-118367409D01*
X59730481Y-118294695D01*
X61144695Y-116880481D01*
X61217409Y-116814578D01*
X61296232Y-116756118D01*
X61380405Y-116705667D01*
X61469119Y-116663708D01*
X61561517Y-116630648D01*
X61656712Y-116606803D01*
X61753785Y-116592403D01*
X61851802Y-116587588D01*
X61949819Y-116592403D01*
X61949819Y-116592403D01*
G37*
D16*
X62170000Y-119320000D03*
D17*
X58420000Y-115570000D03*
D12*
G36*
X62586215Y-109092403D02*
G01*
X62683288Y-109106803D01*
X62778483Y-109130648D01*
X62870881Y-109163708D01*
X62959595Y-109205667D01*
X63043768Y-109256118D01*
X63122591Y-109314578D01*
X63195305Y-109380481D01*
X64609519Y-110794695D01*
X64675422Y-110867409D01*
X64733882Y-110946232D01*
X64784333Y-111030405D01*
X64826292Y-111119119D01*
X64859352Y-111211517D01*
X64883197Y-111306712D01*
X64897597Y-111403785D01*
X64902412Y-111501802D01*
X64897597Y-111599819D01*
X64883197Y-111696892D01*
X64859352Y-111792087D01*
X64826292Y-111884485D01*
X64784333Y-111973199D01*
X64733882Y-112057372D01*
X64675422Y-112136195D01*
X64609519Y-112208909D01*
X62558909Y-114259519D01*
X62486195Y-114325422D01*
X62407372Y-114383882D01*
X62323199Y-114434333D01*
X62234485Y-114476292D01*
X62142087Y-114509352D01*
X62046892Y-114533197D01*
X61949819Y-114547597D01*
X61851802Y-114552412D01*
X61753785Y-114547597D01*
X61656712Y-114533197D01*
X61561517Y-114509352D01*
X61469119Y-114476292D01*
X61380405Y-114434333D01*
X61296232Y-114383882D01*
X61217409Y-114325422D01*
X61144695Y-114259519D01*
X59730481Y-112845305D01*
X59664578Y-112772591D01*
X59606118Y-112693768D01*
X59555667Y-112609595D01*
X59513708Y-112520881D01*
X59480648Y-112428483D01*
X59456803Y-112333288D01*
X59442403Y-112236215D01*
X59437588Y-112138198D01*
X59442403Y-112040181D01*
X59456803Y-111943108D01*
X59480648Y-111847913D01*
X59513708Y-111755515D01*
X59555667Y-111666801D01*
X59606118Y-111582628D01*
X59664578Y-111503805D01*
X59730481Y-111431091D01*
X61781091Y-109380481D01*
X61853805Y-109314578D01*
X61932628Y-109256118D01*
X62016801Y-109205667D01*
X62105515Y-109163708D01*
X62197913Y-109130648D01*
X62293108Y-109106803D01*
X62390181Y-109092403D01*
X62488198Y-109087588D01*
X62586215Y-109092403D01*
X62586215Y-109092403D01*
G37*
D16*
X62170000Y-111820000D03*
D18*
X40894000Y-122174000D03*
D12*
G36*
X42077315Y-114478093D02*
G01*
X42159827Y-114490333D01*
X42240742Y-114510601D01*
X42319281Y-114538702D01*
X42394687Y-114574367D01*
X42466235Y-114617251D01*
X42533234Y-114666941D01*
X42595041Y-114722959D01*
X42651059Y-114784766D01*
X42700749Y-114851765D01*
X42743633Y-114923313D01*
X42779298Y-114998719D01*
X42807399Y-115077258D01*
X42827667Y-115158173D01*
X42839907Y-115240685D01*
X42844000Y-115324000D01*
X42844000Y-117024000D01*
X42839907Y-117107315D01*
X42827667Y-117189827D01*
X42807399Y-117270742D01*
X42779298Y-117349281D01*
X42743633Y-117424687D01*
X42700749Y-117496235D01*
X42651059Y-117563234D01*
X42595041Y-117625041D01*
X42533234Y-117681059D01*
X42466235Y-117730749D01*
X42394687Y-117773633D01*
X42319281Y-117809298D01*
X42240742Y-117837399D01*
X42159827Y-117857667D01*
X42077315Y-117869907D01*
X41994000Y-117874000D01*
X39794000Y-117874000D01*
X39710685Y-117869907D01*
X39628173Y-117857667D01*
X39547258Y-117837399D01*
X39468719Y-117809298D01*
X39393313Y-117773633D01*
X39321765Y-117730749D01*
X39254766Y-117681059D01*
X39192959Y-117625041D01*
X39136941Y-117563234D01*
X39087251Y-117496235D01*
X39044367Y-117424687D01*
X39008702Y-117349281D01*
X38980601Y-117270742D01*
X38960333Y-117189827D01*
X38948093Y-117107315D01*
X38944000Y-117024000D01*
X38944000Y-115324000D01*
X38948093Y-115240685D01*
X38960333Y-115158173D01*
X38980601Y-115077258D01*
X39008702Y-114998719D01*
X39044367Y-114923313D01*
X39087251Y-114851765D01*
X39136941Y-114784766D01*
X39192959Y-114722959D01*
X39254766Y-114666941D01*
X39321765Y-114617251D01*
X39393313Y-114574367D01*
X39468719Y-114538702D01*
X39547258Y-114510601D01*
X39628173Y-114490333D01*
X39710685Y-114478093D01*
X39794000Y-114474000D01*
X41994000Y-114474000D01*
X42077315Y-114478093D01*
X42077315Y-114478093D01*
G37*
D19*
X40894000Y-116174000D03*
D12*
G36*
X37264567Y-117228695D02*
G01*
X37359213Y-117242734D01*
X37452028Y-117265983D01*
X37542116Y-117298217D01*
X37628612Y-117339127D01*
X37710681Y-117388317D01*
X37787533Y-117445315D01*
X37858429Y-117509571D01*
X37922685Y-117580467D01*
X37979683Y-117657319D01*
X38028873Y-117739388D01*
X38069783Y-117825884D01*
X38102017Y-117915972D01*
X38125266Y-118008787D01*
X38139305Y-118103433D01*
X38144000Y-118199000D01*
X38144000Y-120149000D01*
X38139305Y-120244567D01*
X38125266Y-120339213D01*
X38102017Y-120432028D01*
X38069783Y-120522116D01*
X38028873Y-120608612D01*
X37979683Y-120690681D01*
X37922685Y-120767533D01*
X37858429Y-120838429D01*
X37787533Y-120902685D01*
X37710681Y-120959683D01*
X37628612Y-121008873D01*
X37542116Y-121049783D01*
X37452028Y-121082017D01*
X37359213Y-121105266D01*
X37264567Y-121119305D01*
X37169000Y-121124000D01*
X35219000Y-121124000D01*
X35123433Y-121119305D01*
X35028787Y-121105266D01*
X34935972Y-121082017D01*
X34845884Y-121049783D01*
X34759388Y-121008873D01*
X34677319Y-120959683D01*
X34600467Y-120902685D01*
X34529571Y-120838429D01*
X34465315Y-120767533D01*
X34408317Y-120690681D01*
X34359127Y-120608612D01*
X34318217Y-120522116D01*
X34285983Y-120432028D01*
X34262734Y-120339213D01*
X34248695Y-120244567D01*
X34244000Y-120149000D01*
X34244000Y-118199000D01*
X34248695Y-118103433D01*
X34262734Y-118008787D01*
X34285983Y-117915972D01*
X34318217Y-117825884D01*
X34359127Y-117739388D01*
X34408317Y-117657319D01*
X34465315Y-117580467D01*
X34529571Y-117509571D01*
X34600467Y-117445315D01*
X34677319Y-117388317D01*
X34759388Y-117339127D01*
X34845884Y-117298217D01*
X34935972Y-117265983D01*
X35028787Y-117242734D01*
X35123433Y-117228695D01*
X35219000Y-117224000D01*
X37169000Y-117224000D01*
X37264567Y-117228695D01*
X37264567Y-117228695D01*
G37*
D20*
X36194000Y-119174000D03*
D21*
X70866000Y-110617000D03*
X75946000Y-110617000D03*
X75946000Y-115697000D03*
X70866000Y-115697000D03*
D22*
X73406000Y-113157000D03*
D21*
X83312000Y-110617000D03*
X88392000Y-110617000D03*
X88392000Y-115697000D03*
X83312000Y-115697000D03*
D22*
X85852000Y-113157000D03*
D23*
X93345000Y-113030000D03*
X32385000Y-113030000D03*
X93218000Y-149606000D03*
X32258000Y-149606000D03*
D24*
X49530000Y-116840000D03*
D25*
X46990000Y-116840000D03*
M02*
