%TF.GenerationSoftware,KiCad,Pcbnew,(5.1.2)-2*%
%TF.CreationDate,2019-08-18T23:04:57+01:00*%
%TF.ProjectId,ReferenceBias,52656665-7265-46e6-9365-426961732e6b,rev?*%
%TF.SameCoordinates,Original*%
%TF.FileFunction,Paste,Top*%
%TF.FilePolarity,Positive*%
%FSLAX46Y46*%
G04 Gerber Fmt 4.6, Leading zero omitted, Abs format (unit mm)*
G04 Created by KiCad (PCBNEW (5.1.2)-2) date 2019-08-18 23:04:57*
%MOMM*%
%LPD*%
G04 APERTURE LIST*
%ADD10C,0.150000*%
%ADD11C,0.100000*%
%ADD12C,0.975000*%
%ADD13R,1.280000X0.760000*%
%ADD14R,0.940000X1.280000*%
%ADD15R,1.000000X1.200000*%
%ADD16R,0.508000X1.219200*%
%ADD17C,1.000000*%
%ADD18R,1.840000X2.200000*%
%ADD19R,1.500000X1.000000*%
%ADD20R,1.800000X1.000000*%
%ADD21C,0.850000*%
%ADD22R,2.790000X1.190000*%
%ADD23C,1.150000*%
%ADD24R,0.700000X0.450000*%
%ADD25C,1.250000*%
%ADD26R,1.000000X1.000000*%
%ADD27C,1.425000*%
G04 APERTURE END LIST*
D10*
X28500000Y-109000000D02*
X28500000Y-154000000D01*
X97000000Y-154000000D02*
X28500000Y-154000000D01*
X97000000Y-109000000D02*
X97000000Y-154000000D01*
X28500000Y-109000000D02*
X97000000Y-109000000D01*
D11*
G36*
X82268142Y-142467174D02*
G01*
X82291803Y-142470684D01*
X82315007Y-142476496D01*
X82337529Y-142484554D01*
X82359153Y-142494782D01*
X82379670Y-142507079D01*
X82398883Y-142521329D01*
X82416607Y-142537393D01*
X82432671Y-142555117D01*
X82446921Y-142574330D01*
X82459218Y-142594847D01*
X82469446Y-142616471D01*
X82477504Y-142638993D01*
X82483316Y-142662197D01*
X82486826Y-142685858D01*
X82488000Y-142709750D01*
X82488000Y-143197250D01*
X82486826Y-143221142D01*
X82483316Y-143244803D01*
X82477504Y-143268007D01*
X82469446Y-143290529D01*
X82459218Y-143312153D01*
X82446921Y-143332670D01*
X82432671Y-143351883D01*
X82416607Y-143369607D01*
X82398883Y-143385671D01*
X82379670Y-143399921D01*
X82359153Y-143412218D01*
X82337529Y-143422446D01*
X82315007Y-143430504D01*
X82291803Y-143436316D01*
X82268142Y-143439826D01*
X82244250Y-143441000D01*
X81331750Y-143441000D01*
X81307858Y-143439826D01*
X81284197Y-143436316D01*
X81260993Y-143430504D01*
X81238471Y-143422446D01*
X81216847Y-143412218D01*
X81196330Y-143399921D01*
X81177117Y-143385671D01*
X81159393Y-143369607D01*
X81143329Y-143351883D01*
X81129079Y-143332670D01*
X81116782Y-143312153D01*
X81106554Y-143290529D01*
X81098496Y-143268007D01*
X81092684Y-143244803D01*
X81089174Y-143221142D01*
X81088000Y-143197250D01*
X81088000Y-142709750D01*
X81089174Y-142685858D01*
X81092684Y-142662197D01*
X81098496Y-142638993D01*
X81106554Y-142616471D01*
X81116782Y-142594847D01*
X81129079Y-142574330D01*
X81143329Y-142555117D01*
X81159393Y-142537393D01*
X81177117Y-142521329D01*
X81196330Y-142507079D01*
X81216847Y-142494782D01*
X81238471Y-142484554D01*
X81260993Y-142476496D01*
X81284197Y-142470684D01*
X81307858Y-142467174D01*
X81331750Y-142466000D01*
X82244250Y-142466000D01*
X82268142Y-142467174D01*
X82268142Y-142467174D01*
G37*
D12*
X81788000Y-142953500D03*
D11*
G36*
X82268142Y-144342174D02*
G01*
X82291803Y-144345684D01*
X82315007Y-144351496D01*
X82337529Y-144359554D01*
X82359153Y-144369782D01*
X82379670Y-144382079D01*
X82398883Y-144396329D01*
X82416607Y-144412393D01*
X82432671Y-144430117D01*
X82446921Y-144449330D01*
X82459218Y-144469847D01*
X82469446Y-144491471D01*
X82477504Y-144513993D01*
X82483316Y-144537197D01*
X82486826Y-144560858D01*
X82488000Y-144584750D01*
X82488000Y-145072250D01*
X82486826Y-145096142D01*
X82483316Y-145119803D01*
X82477504Y-145143007D01*
X82469446Y-145165529D01*
X82459218Y-145187153D01*
X82446921Y-145207670D01*
X82432671Y-145226883D01*
X82416607Y-145244607D01*
X82398883Y-145260671D01*
X82379670Y-145274921D01*
X82359153Y-145287218D01*
X82337529Y-145297446D01*
X82315007Y-145305504D01*
X82291803Y-145311316D01*
X82268142Y-145314826D01*
X82244250Y-145316000D01*
X81331750Y-145316000D01*
X81307858Y-145314826D01*
X81284197Y-145311316D01*
X81260993Y-145305504D01*
X81238471Y-145297446D01*
X81216847Y-145287218D01*
X81196330Y-145274921D01*
X81177117Y-145260671D01*
X81159393Y-145244607D01*
X81143329Y-145226883D01*
X81129079Y-145207670D01*
X81116782Y-145187153D01*
X81106554Y-145165529D01*
X81098496Y-145143007D01*
X81092684Y-145119803D01*
X81089174Y-145096142D01*
X81088000Y-145072250D01*
X81088000Y-144584750D01*
X81089174Y-144560858D01*
X81092684Y-144537197D01*
X81098496Y-144513993D01*
X81106554Y-144491471D01*
X81116782Y-144469847D01*
X81129079Y-144449330D01*
X81143329Y-144430117D01*
X81159393Y-144412393D01*
X81177117Y-144396329D01*
X81196330Y-144382079D01*
X81216847Y-144369782D01*
X81238471Y-144359554D01*
X81260993Y-144351496D01*
X81284197Y-144345684D01*
X81307858Y-144342174D01*
X81331750Y-144341000D01*
X82244250Y-144341000D01*
X82268142Y-144342174D01*
X82268142Y-144342174D01*
G37*
D12*
X81788000Y-144828500D03*
D11*
G36*
X89851142Y-145859174D02*
G01*
X89874803Y-145862684D01*
X89898007Y-145868496D01*
X89920529Y-145876554D01*
X89942153Y-145886782D01*
X89962670Y-145899079D01*
X89981883Y-145913329D01*
X89999607Y-145929393D01*
X90015671Y-145947117D01*
X90029921Y-145966330D01*
X90042218Y-145986847D01*
X90052446Y-146008471D01*
X90060504Y-146030993D01*
X90066316Y-146054197D01*
X90069826Y-146077858D01*
X90071000Y-146101750D01*
X90071000Y-147014250D01*
X90069826Y-147038142D01*
X90066316Y-147061803D01*
X90060504Y-147085007D01*
X90052446Y-147107529D01*
X90042218Y-147129153D01*
X90029921Y-147149670D01*
X90015671Y-147168883D01*
X89999607Y-147186607D01*
X89981883Y-147202671D01*
X89962670Y-147216921D01*
X89942153Y-147229218D01*
X89920529Y-147239446D01*
X89898007Y-147247504D01*
X89874803Y-147253316D01*
X89851142Y-147256826D01*
X89827250Y-147258000D01*
X89339750Y-147258000D01*
X89315858Y-147256826D01*
X89292197Y-147253316D01*
X89268993Y-147247504D01*
X89246471Y-147239446D01*
X89224847Y-147229218D01*
X89204330Y-147216921D01*
X89185117Y-147202671D01*
X89167393Y-147186607D01*
X89151329Y-147168883D01*
X89137079Y-147149670D01*
X89124782Y-147129153D01*
X89114554Y-147107529D01*
X89106496Y-147085007D01*
X89100684Y-147061803D01*
X89097174Y-147038142D01*
X89096000Y-147014250D01*
X89096000Y-146101750D01*
X89097174Y-146077858D01*
X89100684Y-146054197D01*
X89106496Y-146030993D01*
X89114554Y-146008471D01*
X89124782Y-145986847D01*
X89137079Y-145966330D01*
X89151329Y-145947117D01*
X89167393Y-145929393D01*
X89185117Y-145913329D01*
X89204330Y-145899079D01*
X89224847Y-145886782D01*
X89246471Y-145876554D01*
X89268993Y-145868496D01*
X89292197Y-145862684D01*
X89315858Y-145859174D01*
X89339750Y-145858000D01*
X89827250Y-145858000D01*
X89851142Y-145859174D01*
X89851142Y-145859174D01*
G37*
D12*
X89583500Y-146558000D03*
D11*
G36*
X87976142Y-145859174D02*
G01*
X87999803Y-145862684D01*
X88023007Y-145868496D01*
X88045529Y-145876554D01*
X88067153Y-145886782D01*
X88087670Y-145899079D01*
X88106883Y-145913329D01*
X88124607Y-145929393D01*
X88140671Y-145947117D01*
X88154921Y-145966330D01*
X88167218Y-145986847D01*
X88177446Y-146008471D01*
X88185504Y-146030993D01*
X88191316Y-146054197D01*
X88194826Y-146077858D01*
X88196000Y-146101750D01*
X88196000Y-147014250D01*
X88194826Y-147038142D01*
X88191316Y-147061803D01*
X88185504Y-147085007D01*
X88177446Y-147107529D01*
X88167218Y-147129153D01*
X88154921Y-147149670D01*
X88140671Y-147168883D01*
X88124607Y-147186607D01*
X88106883Y-147202671D01*
X88087670Y-147216921D01*
X88067153Y-147229218D01*
X88045529Y-147239446D01*
X88023007Y-147247504D01*
X87999803Y-147253316D01*
X87976142Y-147256826D01*
X87952250Y-147258000D01*
X87464750Y-147258000D01*
X87440858Y-147256826D01*
X87417197Y-147253316D01*
X87393993Y-147247504D01*
X87371471Y-147239446D01*
X87349847Y-147229218D01*
X87329330Y-147216921D01*
X87310117Y-147202671D01*
X87292393Y-147186607D01*
X87276329Y-147168883D01*
X87262079Y-147149670D01*
X87249782Y-147129153D01*
X87239554Y-147107529D01*
X87231496Y-147085007D01*
X87225684Y-147061803D01*
X87222174Y-147038142D01*
X87221000Y-147014250D01*
X87221000Y-146101750D01*
X87222174Y-146077858D01*
X87225684Y-146054197D01*
X87231496Y-146030993D01*
X87239554Y-146008471D01*
X87249782Y-145986847D01*
X87262079Y-145966330D01*
X87276329Y-145947117D01*
X87292393Y-145929393D01*
X87310117Y-145913329D01*
X87329330Y-145899079D01*
X87349847Y-145886782D01*
X87371471Y-145876554D01*
X87393993Y-145868496D01*
X87417197Y-145862684D01*
X87440858Y-145859174D01*
X87464750Y-145858000D01*
X87952250Y-145858000D01*
X87976142Y-145859174D01*
X87976142Y-145859174D01*
G37*
D12*
X87708500Y-146558000D03*
D13*
X94038000Y-141986000D03*
X94038000Y-140716000D03*
X94038000Y-139446000D03*
D14*
X93218000Y-137611000D03*
X90678000Y-137611000D03*
D13*
X89858000Y-139446000D03*
X89858000Y-140716000D03*
X89858000Y-141986000D03*
D14*
X90678000Y-143821000D03*
X93218000Y-143821000D03*
D15*
X83394000Y-143002000D03*
X83394000Y-137922000D03*
X87294000Y-137922000D03*
X87294000Y-143002000D03*
D16*
X70038001Y-148717000D03*
X69088000Y-148717000D03*
X68137999Y-148717000D03*
X68137999Y-151003000D03*
X69088000Y-151003000D03*
X70038001Y-151003000D03*
D17*
X33350200Y-139446000D03*
D11*
G36*
X32850200Y-138346000D02*
G01*
X33850200Y-139046000D01*
X33850200Y-139846000D01*
X32850200Y-140546000D01*
X32850200Y-138346000D01*
X32850200Y-138346000D01*
G37*
D18*
X31940500Y-139446000D03*
D19*
X34754000Y-137946000D03*
D20*
X34607500Y-139446000D03*
D19*
X34754000Y-140946000D03*
D21*
X30607000Y-139446000D03*
D11*
G36*
X31032000Y-140546000D02*
G01*
X30182000Y-139946000D01*
X30182000Y-138946000D01*
X31032000Y-138346000D01*
X31032000Y-140546000D01*
X31032000Y-140546000D01*
G37*
D22*
X80135000Y-152400000D03*
X84965000Y-149860000D03*
X80135000Y-147320000D03*
D11*
G36*
X37781142Y-128333174D02*
G01*
X37804803Y-128336684D01*
X37828007Y-128342496D01*
X37850529Y-128350554D01*
X37872153Y-128360782D01*
X37892670Y-128373079D01*
X37911883Y-128387329D01*
X37929607Y-128403393D01*
X37945671Y-128421117D01*
X37959921Y-128440330D01*
X37972218Y-128460847D01*
X37982446Y-128482471D01*
X37990504Y-128504993D01*
X37996316Y-128528197D01*
X37999826Y-128551858D01*
X38001000Y-128575750D01*
X38001000Y-129488250D01*
X37999826Y-129512142D01*
X37996316Y-129535803D01*
X37990504Y-129559007D01*
X37982446Y-129581529D01*
X37972218Y-129603153D01*
X37959921Y-129623670D01*
X37945671Y-129642883D01*
X37929607Y-129660607D01*
X37911883Y-129676671D01*
X37892670Y-129690921D01*
X37872153Y-129703218D01*
X37850529Y-129713446D01*
X37828007Y-129721504D01*
X37804803Y-129727316D01*
X37781142Y-129730826D01*
X37757250Y-129732000D01*
X37269750Y-129732000D01*
X37245858Y-129730826D01*
X37222197Y-129727316D01*
X37198993Y-129721504D01*
X37176471Y-129713446D01*
X37154847Y-129703218D01*
X37134330Y-129690921D01*
X37115117Y-129676671D01*
X37097393Y-129660607D01*
X37081329Y-129642883D01*
X37067079Y-129623670D01*
X37054782Y-129603153D01*
X37044554Y-129581529D01*
X37036496Y-129559007D01*
X37030684Y-129535803D01*
X37027174Y-129512142D01*
X37026000Y-129488250D01*
X37026000Y-128575750D01*
X37027174Y-128551858D01*
X37030684Y-128528197D01*
X37036496Y-128504993D01*
X37044554Y-128482471D01*
X37054782Y-128460847D01*
X37067079Y-128440330D01*
X37081329Y-128421117D01*
X37097393Y-128403393D01*
X37115117Y-128387329D01*
X37134330Y-128373079D01*
X37154847Y-128360782D01*
X37176471Y-128350554D01*
X37198993Y-128342496D01*
X37222197Y-128336684D01*
X37245858Y-128333174D01*
X37269750Y-128332000D01*
X37757250Y-128332000D01*
X37781142Y-128333174D01*
X37781142Y-128333174D01*
G37*
D12*
X37513500Y-129032000D03*
D11*
G36*
X35906142Y-128333174D02*
G01*
X35929803Y-128336684D01*
X35953007Y-128342496D01*
X35975529Y-128350554D01*
X35997153Y-128360782D01*
X36017670Y-128373079D01*
X36036883Y-128387329D01*
X36054607Y-128403393D01*
X36070671Y-128421117D01*
X36084921Y-128440330D01*
X36097218Y-128460847D01*
X36107446Y-128482471D01*
X36115504Y-128504993D01*
X36121316Y-128528197D01*
X36124826Y-128551858D01*
X36126000Y-128575750D01*
X36126000Y-129488250D01*
X36124826Y-129512142D01*
X36121316Y-129535803D01*
X36115504Y-129559007D01*
X36107446Y-129581529D01*
X36097218Y-129603153D01*
X36084921Y-129623670D01*
X36070671Y-129642883D01*
X36054607Y-129660607D01*
X36036883Y-129676671D01*
X36017670Y-129690921D01*
X35997153Y-129703218D01*
X35975529Y-129713446D01*
X35953007Y-129721504D01*
X35929803Y-129727316D01*
X35906142Y-129730826D01*
X35882250Y-129732000D01*
X35394750Y-129732000D01*
X35370858Y-129730826D01*
X35347197Y-129727316D01*
X35323993Y-129721504D01*
X35301471Y-129713446D01*
X35279847Y-129703218D01*
X35259330Y-129690921D01*
X35240117Y-129676671D01*
X35222393Y-129660607D01*
X35206329Y-129642883D01*
X35192079Y-129623670D01*
X35179782Y-129603153D01*
X35169554Y-129581529D01*
X35161496Y-129559007D01*
X35155684Y-129535803D01*
X35152174Y-129512142D01*
X35151000Y-129488250D01*
X35151000Y-128575750D01*
X35152174Y-128551858D01*
X35155684Y-128528197D01*
X35161496Y-128504993D01*
X35169554Y-128482471D01*
X35179782Y-128460847D01*
X35192079Y-128440330D01*
X35206329Y-128421117D01*
X35222393Y-128403393D01*
X35240117Y-128387329D01*
X35259330Y-128373079D01*
X35279847Y-128360782D01*
X35301471Y-128350554D01*
X35323993Y-128342496D01*
X35347197Y-128336684D01*
X35370858Y-128333174D01*
X35394750Y-128332000D01*
X35882250Y-128332000D01*
X35906142Y-128333174D01*
X35906142Y-128333174D01*
G37*
D12*
X35638500Y-129032000D03*
D11*
G36*
X70197505Y-138990204D02*
G01*
X70221773Y-138993804D01*
X70245572Y-138999765D01*
X70268671Y-139008030D01*
X70290850Y-139018520D01*
X70311893Y-139031132D01*
X70331599Y-139045747D01*
X70349777Y-139062223D01*
X70366253Y-139080401D01*
X70380868Y-139100107D01*
X70393480Y-139121150D01*
X70403970Y-139143329D01*
X70412235Y-139166428D01*
X70418196Y-139190227D01*
X70421796Y-139214495D01*
X70423000Y-139238999D01*
X70423000Y-139889001D01*
X70421796Y-139913505D01*
X70418196Y-139937773D01*
X70412235Y-139961572D01*
X70403970Y-139984671D01*
X70393480Y-140006850D01*
X70380868Y-140027893D01*
X70366253Y-140047599D01*
X70349777Y-140065777D01*
X70331599Y-140082253D01*
X70311893Y-140096868D01*
X70290850Y-140109480D01*
X70268671Y-140119970D01*
X70245572Y-140128235D01*
X70221773Y-140134196D01*
X70197505Y-140137796D01*
X70173001Y-140139000D01*
X69272999Y-140139000D01*
X69248495Y-140137796D01*
X69224227Y-140134196D01*
X69200428Y-140128235D01*
X69177329Y-140119970D01*
X69155150Y-140109480D01*
X69134107Y-140096868D01*
X69114401Y-140082253D01*
X69096223Y-140065777D01*
X69079747Y-140047599D01*
X69065132Y-140027893D01*
X69052520Y-140006850D01*
X69042030Y-139984671D01*
X69033765Y-139961572D01*
X69027804Y-139937773D01*
X69024204Y-139913505D01*
X69023000Y-139889001D01*
X69023000Y-139238999D01*
X69024204Y-139214495D01*
X69027804Y-139190227D01*
X69033765Y-139166428D01*
X69042030Y-139143329D01*
X69052520Y-139121150D01*
X69065132Y-139100107D01*
X69079747Y-139080401D01*
X69096223Y-139062223D01*
X69114401Y-139045747D01*
X69134107Y-139031132D01*
X69155150Y-139018520D01*
X69177329Y-139008030D01*
X69200428Y-138999765D01*
X69224227Y-138993804D01*
X69248495Y-138990204D01*
X69272999Y-138989000D01*
X70173001Y-138989000D01*
X70197505Y-138990204D01*
X70197505Y-138990204D01*
G37*
D23*
X69723000Y-139564000D03*
D11*
G36*
X70197505Y-141040204D02*
G01*
X70221773Y-141043804D01*
X70245572Y-141049765D01*
X70268671Y-141058030D01*
X70290850Y-141068520D01*
X70311893Y-141081132D01*
X70331599Y-141095747D01*
X70349777Y-141112223D01*
X70366253Y-141130401D01*
X70380868Y-141150107D01*
X70393480Y-141171150D01*
X70403970Y-141193329D01*
X70412235Y-141216428D01*
X70418196Y-141240227D01*
X70421796Y-141264495D01*
X70423000Y-141288999D01*
X70423000Y-141939001D01*
X70421796Y-141963505D01*
X70418196Y-141987773D01*
X70412235Y-142011572D01*
X70403970Y-142034671D01*
X70393480Y-142056850D01*
X70380868Y-142077893D01*
X70366253Y-142097599D01*
X70349777Y-142115777D01*
X70331599Y-142132253D01*
X70311893Y-142146868D01*
X70290850Y-142159480D01*
X70268671Y-142169970D01*
X70245572Y-142178235D01*
X70221773Y-142184196D01*
X70197505Y-142187796D01*
X70173001Y-142189000D01*
X69272999Y-142189000D01*
X69248495Y-142187796D01*
X69224227Y-142184196D01*
X69200428Y-142178235D01*
X69177329Y-142169970D01*
X69155150Y-142159480D01*
X69134107Y-142146868D01*
X69114401Y-142132253D01*
X69096223Y-142115777D01*
X69079747Y-142097599D01*
X69065132Y-142077893D01*
X69052520Y-142056850D01*
X69042030Y-142034671D01*
X69033765Y-142011572D01*
X69027804Y-141987773D01*
X69024204Y-141963505D01*
X69023000Y-141939001D01*
X69023000Y-141288999D01*
X69024204Y-141264495D01*
X69027804Y-141240227D01*
X69033765Y-141216428D01*
X69042030Y-141193329D01*
X69052520Y-141171150D01*
X69065132Y-141150107D01*
X69079747Y-141130401D01*
X69096223Y-141112223D01*
X69114401Y-141095747D01*
X69134107Y-141081132D01*
X69155150Y-141068520D01*
X69177329Y-141058030D01*
X69200428Y-141049765D01*
X69224227Y-141043804D01*
X69248495Y-141040204D01*
X69272999Y-141039000D01*
X70173001Y-141039000D01*
X70197505Y-141040204D01*
X70197505Y-141040204D01*
G37*
D23*
X69723000Y-141614000D03*
D11*
G36*
X67541505Y-135191204D02*
G01*
X67565773Y-135194804D01*
X67589572Y-135200765D01*
X67612671Y-135209030D01*
X67634850Y-135219520D01*
X67655893Y-135232132D01*
X67675599Y-135246747D01*
X67693777Y-135263223D01*
X67710253Y-135281401D01*
X67724868Y-135301107D01*
X67737480Y-135322150D01*
X67747970Y-135344329D01*
X67756235Y-135367428D01*
X67762196Y-135391227D01*
X67765796Y-135415495D01*
X67767000Y-135439999D01*
X67767000Y-136340001D01*
X67765796Y-136364505D01*
X67762196Y-136388773D01*
X67756235Y-136412572D01*
X67747970Y-136435671D01*
X67737480Y-136457850D01*
X67724868Y-136478893D01*
X67710253Y-136498599D01*
X67693777Y-136516777D01*
X67675599Y-136533253D01*
X67655893Y-136547868D01*
X67634850Y-136560480D01*
X67612671Y-136570970D01*
X67589572Y-136579235D01*
X67565773Y-136585196D01*
X67541505Y-136588796D01*
X67517001Y-136590000D01*
X66866999Y-136590000D01*
X66842495Y-136588796D01*
X66818227Y-136585196D01*
X66794428Y-136579235D01*
X66771329Y-136570970D01*
X66749150Y-136560480D01*
X66728107Y-136547868D01*
X66708401Y-136533253D01*
X66690223Y-136516777D01*
X66673747Y-136498599D01*
X66659132Y-136478893D01*
X66646520Y-136457850D01*
X66636030Y-136435671D01*
X66627765Y-136412572D01*
X66621804Y-136388773D01*
X66618204Y-136364505D01*
X66617000Y-136340001D01*
X66617000Y-135439999D01*
X66618204Y-135415495D01*
X66621804Y-135391227D01*
X66627765Y-135367428D01*
X66636030Y-135344329D01*
X66646520Y-135322150D01*
X66659132Y-135301107D01*
X66673747Y-135281401D01*
X66690223Y-135263223D01*
X66708401Y-135246747D01*
X66728107Y-135232132D01*
X66749150Y-135219520D01*
X66771329Y-135209030D01*
X66794428Y-135200765D01*
X66818227Y-135194804D01*
X66842495Y-135191204D01*
X66866999Y-135190000D01*
X67517001Y-135190000D01*
X67541505Y-135191204D01*
X67541505Y-135191204D01*
G37*
D23*
X67192000Y-135890000D03*
D11*
G36*
X65491505Y-135191204D02*
G01*
X65515773Y-135194804D01*
X65539572Y-135200765D01*
X65562671Y-135209030D01*
X65584850Y-135219520D01*
X65605893Y-135232132D01*
X65625599Y-135246747D01*
X65643777Y-135263223D01*
X65660253Y-135281401D01*
X65674868Y-135301107D01*
X65687480Y-135322150D01*
X65697970Y-135344329D01*
X65706235Y-135367428D01*
X65712196Y-135391227D01*
X65715796Y-135415495D01*
X65717000Y-135439999D01*
X65717000Y-136340001D01*
X65715796Y-136364505D01*
X65712196Y-136388773D01*
X65706235Y-136412572D01*
X65697970Y-136435671D01*
X65687480Y-136457850D01*
X65674868Y-136478893D01*
X65660253Y-136498599D01*
X65643777Y-136516777D01*
X65625599Y-136533253D01*
X65605893Y-136547868D01*
X65584850Y-136560480D01*
X65562671Y-136570970D01*
X65539572Y-136579235D01*
X65515773Y-136585196D01*
X65491505Y-136588796D01*
X65467001Y-136590000D01*
X64816999Y-136590000D01*
X64792495Y-136588796D01*
X64768227Y-136585196D01*
X64744428Y-136579235D01*
X64721329Y-136570970D01*
X64699150Y-136560480D01*
X64678107Y-136547868D01*
X64658401Y-136533253D01*
X64640223Y-136516777D01*
X64623747Y-136498599D01*
X64609132Y-136478893D01*
X64596520Y-136457850D01*
X64586030Y-136435671D01*
X64577765Y-136412572D01*
X64571804Y-136388773D01*
X64568204Y-136364505D01*
X64567000Y-136340001D01*
X64567000Y-135439999D01*
X64568204Y-135415495D01*
X64571804Y-135391227D01*
X64577765Y-135367428D01*
X64586030Y-135344329D01*
X64596520Y-135322150D01*
X64609132Y-135301107D01*
X64623747Y-135281401D01*
X64640223Y-135263223D01*
X64658401Y-135246747D01*
X64678107Y-135232132D01*
X64699150Y-135219520D01*
X64721329Y-135209030D01*
X64744428Y-135200765D01*
X64768227Y-135194804D01*
X64792495Y-135191204D01*
X64816999Y-135190000D01*
X65467001Y-135190000D01*
X65491505Y-135191204D01*
X65491505Y-135191204D01*
G37*
D23*
X65142000Y-135890000D03*
D11*
G36*
X65244505Y-140768204D02*
G01*
X65268773Y-140771804D01*
X65292572Y-140777765D01*
X65315671Y-140786030D01*
X65337850Y-140796520D01*
X65358893Y-140809132D01*
X65378599Y-140823747D01*
X65396777Y-140840223D01*
X65413253Y-140858401D01*
X65427868Y-140878107D01*
X65440480Y-140899150D01*
X65450970Y-140921329D01*
X65459235Y-140944428D01*
X65465196Y-140968227D01*
X65468796Y-140992495D01*
X65470000Y-141016999D01*
X65470000Y-141667001D01*
X65468796Y-141691505D01*
X65465196Y-141715773D01*
X65459235Y-141739572D01*
X65450970Y-141762671D01*
X65440480Y-141784850D01*
X65427868Y-141805893D01*
X65413253Y-141825599D01*
X65396777Y-141843777D01*
X65378599Y-141860253D01*
X65358893Y-141874868D01*
X65337850Y-141887480D01*
X65315671Y-141897970D01*
X65292572Y-141906235D01*
X65268773Y-141912196D01*
X65244505Y-141915796D01*
X65220001Y-141917000D01*
X64319999Y-141917000D01*
X64295495Y-141915796D01*
X64271227Y-141912196D01*
X64247428Y-141906235D01*
X64224329Y-141897970D01*
X64202150Y-141887480D01*
X64181107Y-141874868D01*
X64161401Y-141860253D01*
X64143223Y-141843777D01*
X64126747Y-141825599D01*
X64112132Y-141805893D01*
X64099520Y-141784850D01*
X64089030Y-141762671D01*
X64080765Y-141739572D01*
X64074804Y-141715773D01*
X64071204Y-141691505D01*
X64070000Y-141667001D01*
X64070000Y-141016999D01*
X64071204Y-140992495D01*
X64074804Y-140968227D01*
X64080765Y-140944428D01*
X64089030Y-140921329D01*
X64099520Y-140899150D01*
X64112132Y-140878107D01*
X64126747Y-140858401D01*
X64143223Y-140840223D01*
X64161401Y-140823747D01*
X64181107Y-140809132D01*
X64202150Y-140796520D01*
X64224329Y-140786030D01*
X64247428Y-140777765D01*
X64271227Y-140771804D01*
X64295495Y-140768204D01*
X64319999Y-140767000D01*
X65220001Y-140767000D01*
X65244505Y-140768204D01*
X65244505Y-140768204D01*
G37*
D23*
X64770000Y-141342000D03*
D11*
G36*
X65244505Y-142818204D02*
G01*
X65268773Y-142821804D01*
X65292572Y-142827765D01*
X65315671Y-142836030D01*
X65337850Y-142846520D01*
X65358893Y-142859132D01*
X65378599Y-142873747D01*
X65396777Y-142890223D01*
X65413253Y-142908401D01*
X65427868Y-142928107D01*
X65440480Y-142949150D01*
X65450970Y-142971329D01*
X65459235Y-142994428D01*
X65465196Y-143018227D01*
X65468796Y-143042495D01*
X65470000Y-143066999D01*
X65470000Y-143717001D01*
X65468796Y-143741505D01*
X65465196Y-143765773D01*
X65459235Y-143789572D01*
X65450970Y-143812671D01*
X65440480Y-143834850D01*
X65427868Y-143855893D01*
X65413253Y-143875599D01*
X65396777Y-143893777D01*
X65378599Y-143910253D01*
X65358893Y-143924868D01*
X65337850Y-143937480D01*
X65315671Y-143947970D01*
X65292572Y-143956235D01*
X65268773Y-143962196D01*
X65244505Y-143965796D01*
X65220001Y-143967000D01*
X64319999Y-143967000D01*
X64295495Y-143965796D01*
X64271227Y-143962196D01*
X64247428Y-143956235D01*
X64224329Y-143947970D01*
X64202150Y-143937480D01*
X64181107Y-143924868D01*
X64161401Y-143910253D01*
X64143223Y-143893777D01*
X64126747Y-143875599D01*
X64112132Y-143855893D01*
X64099520Y-143834850D01*
X64089030Y-143812671D01*
X64080765Y-143789572D01*
X64074804Y-143765773D01*
X64071204Y-143741505D01*
X64070000Y-143717001D01*
X64070000Y-143066999D01*
X64071204Y-143042495D01*
X64074804Y-143018227D01*
X64080765Y-142994428D01*
X64089030Y-142971329D01*
X64099520Y-142949150D01*
X64112132Y-142928107D01*
X64126747Y-142908401D01*
X64143223Y-142890223D01*
X64161401Y-142873747D01*
X64181107Y-142859132D01*
X64202150Y-142846520D01*
X64224329Y-142836030D01*
X64247428Y-142827765D01*
X64271227Y-142821804D01*
X64295495Y-142818204D01*
X64319999Y-142817000D01*
X65220001Y-142817000D01*
X65244505Y-142818204D01*
X65244505Y-142818204D01*
G37*
D23*
X64770000Y-143392000D03*
D11*
G36*
X63096505Y-142938204D02*
G01*
X63120773Y-142941804D01*
X63144572Y-142947765D01*
X63167671Y-142956030D01*
X63189850Y-142966520D01*
X63210893Y-142979132D01*
X63230599Y-142993747D01*
X63248777Y-143010223D01*
X63265253Y-143028401D01*
X63279868Y-143048107D01*
X63292480Y-143069150D01*
X63302970Y-143091329D01*
X63311235Y-143114428D01*
X63317196Y-143138227D01*
X63320796Y-143162495D01*
X63322000Y-143186999D01*
X63322000Y-144087001D01*
X63320796Y-144111505D01*
X63317196Y-144135773D01*
X63311235Y-144159572D01*
X63302970Y-144182671D01*
X63292480Y-144204850D01*
X63279868Y-144225893D01*
X63265253Y-144245599D01*
X63248777Y-144263777D01*
X63230599Y-144280253D01*
X63210893Y-144294868D01*
X63189850Y-144307480D01*
X63167671Y-144317970D01*
X63144572Y-144326235D01*
X63120773Y-144332196D01*
X63096505Y-144335796D01*
X63072001Y-144337000D01*
X62421999Y-144337000D01*
X62397495Y-144335796D01*
X62373227Y-144332196D01*
X62349428Y-144326235D01*
X62326329Y-144317970D01*
X62304150Y-144307480D01*
X62283107Y-144294868D01*
X62263401Y-144280253D01*
X62245223Y-144263777D01*
X62228747Y-144245599D01*
X62214132Y-144225893D01*
X62201520Y-144204850D01*
X62191030Y-144182671D01*
X62182765Y-144159572D01*
X62176804Y-144135773D01*
X62173204Y-144111505D01*
X62172000Y-144087001D01*
X62172000Y-143186999D01*
X62173204Y-143162495D01*
X62176804Y-143138227D01*
X62182765Y-143114428D01*
X62191030Y-143091329D01*
X62201520Y-143069150D01*
X62214132Y-143048107D01*
X62228747Y-143028401D01*
X62245223Y-143010223D01*
X62263401Y-142993747D01*
X62283107Y-142979132D01*
X62304150Y-142966520D01*
X62326329Y-142956030D01*
X62349428Y-142947765D01*
X62373227Y-142941804D01*
X62397495Y-142938204D01*
X62421999Y-142937000D01*
X63072001Y-142937000D01*
X63096505Y-142938204D01*
X63096505Y-142938204D01*
G37*
D23*
X62747000Y-143637000D03*
D11*
G36*
X61046505Y-142938204D02*
G01*
X61070773Y-142941804D01*
X61094572Y-142947765D01*
X61117671Y-142956030D01*
X61139850Y-142966520D01*
X61160893Y-142979132D01*
X61180599Y-142993747D01*
X61198777Y-143010223D01*
X61215253Y-143028401D01*
X61229868Y-143048107D01*
X61242480Y-143069150D01*
X61252970Y-143091329D01*
X61261235Y-143114428D01*
X61267196Y-143138227D01*
X61270796Y-143162495D01*
X61272000Y-143186999D01*
X61272000Y-144087001D01*
X61270796Y-144111505D01*
X61267196Y-144135773D01*
X61261235Y-144159572D01*
X61252970Y-144182671D01*
X61242480Y-144204850D01*
X61229868Y-144225893D01*
X61215253Y-144245599D01*
X61198777Y-144263777D01*
X61180599Y-144280253D01*
X61160893Y-144294868D01*
X61139850Y-144307480D01*
X61117671Y-144317970D01*
X61094572Y-144326235D01*
X61070773Y-144332196D01*
X61046505Y-144335796D01*
X61022001Y-144337000D01*
X60371999Y-144337000D01*
X60347495Y-144335796D01*
X60323227Y-144332196D01*
X60299428Y-144326235D01*
X60276329Y-144317970D01*
X60254150Y-144307480D01*
X60233107Y-144294868D01*
X60213401Y-144280253D01*
X60195223Y-144263777D01*
X60178747Y-144245599D01*
X60164132Y-144225893D01*
X60151520Y-144204850D01*
X60141030Y-144182671D01*
X60132765Y-144159572D01*
X60126804Y-144135773D01*
X60123204Y-144111505D01*
X60122000Y-144087001D01*
X60122000Y-143186999D01*
X60123204Y-143162495D01*
X60126804Y-143138227D01*
X60132765Y-143114428D01*
X60141030Y-143091329D01*
X60151520Y-143069150D01*
X60164132Y-143048107D01*
X60178747Y-143028401D01*
X60195223Y-143010223D01*
X60213401Y-142993747D01*
X60233107Y-142979132D01*
X60254150Y-142966520D01*
X60276329Y-142956030D01*
X60299428Y-142947765D01*
X60323227Y-142941804D01*
X60347495Y-142938204D01*
X60371999Y-142937000D01*
X61022001Y-142937000D01*
X61046505Y-142938204D01*
X61046505Y-142938204D01*
G37*
D23*
X60697000Y-143637000D03*
D24*
X60976000Y-139319000D03*
X62976000Y-138669000D03*
X62976000Y-139969000D03*
D11*
G36*
X35643504Y-134380204D02*
G01*
X35667773Y-134383804D01*
X35691571Y-134389765D01*
X35714671Y-134398030D01*
X35736849Y-134408520D01*
X35757893Y-134421133D01*
X35777598Y-134435747D01*
X35795777Y-134452223D01*
X35812253Y-134470402D01*
X35826867Y-134490107D01*
X35839480Y-134511151D01*
X35849970Y-134533329D01*
X35858235Y-134556429D01*
X35864196Y-134580227D01*
X35867796Y-134604496D01*
X35869000Y-134629000D01*
X35869000Y-135379000D01*
X35867796Y-135403504D01*
X35864196Y-135427773D01*
X35858235Y-135451571D01*
X35849970Y-135474671D01*
X35839480Y-135496849D01*
X35826867Y-135517893D01*
X35812253Y-135537598D01*
X35795777Y-135555777D01*
X35777598Y-135572253D01*
X35757893Y-135586867D01*
X35736849Y-135599480D01*
X35714671Y-135609970D01*
X35691571Y-135618235D01*
X35667773Y-135624196D01*
X35643504Y-135627796D01*
X35619000Y-135629000D01*
X33469000Y-135629000D01*
X33444496Y-135627796D01*
X33420227Y-135624196D01*
X33396429Y-135618235D01*
X33373329Y-135609970D01*
X33351151Y-135599480D01*
X33330107Y-135586867D01*
X33310402Y-135572253D01*
X33292223Y-135555777D01*
X33275747Y-135537598D01*
X33261133Y-135517893D01*
X33248520Y-135496849D01*
X33238030Y-135474671D01*
X33229765Y-135451571D01*
X33223804Y-135427773D01*
X33220204Y-135403504D01*
X33219000Y-135379000D01*
X33219000Y-134629000D01*
X33220204Y-134604496D01*
X33223804Y-134580227D01*
X33229765Y-134556429D01*
X33238030Y-134533329D01*
X33248520Y-134511151D01*
X33261133Y-134490107D01*
X33275747Y-134470402D01*
X33292223Y-134452223D01*
X33310402Y-134435747D01*
X33330107Y-134421133D01*
X33351151Y-134408520D01*
X33373329Y-134398030D01*
X33396429Y-134389765D01*
X33420227Y-134383804D01*
X33444496Y-134380204D01*
X33469000Y-134379000D01*
X35619000Y-134379000D01*
X35643504Y-134380204D01*
X35643504Y-134380204D01*
G37*
D25*
X34544000Y-135004000D03*
D11*
G36*
X35643504Y-131580204D02*
G01*
X35667773Y-131583804D01*
X35691571Y-131589765D01*
X35714671Y-131598030D01*
X35736849Y-131608520D01*
X35757893Y-131621133D01*
X35777598Y-131635747D01*
X35795777Y-131652223D01*
X35812253Y-131670402D01*
X35826867Y-131690107D01*
X35839480Y-131711151D01*
X35849970Y-131733329D01*
X35858235Y-131756429D01*
X35864196Y-131780227D01*
X35867796Y-131804496D01*
X35869000Y-131829000D01*
X35869000Y-132579000D01*
X35867796Y-132603504D01*
X35864196Y-132627773D01*
X35858235Y-132651571D01*
X35849970Y-132674671D01*
X35839480Y-132696849D01*
X35826867Y-132717893D01*
X35812253Y-132737598D01*
X35795777Y-132755777D01*
X35777598Y-132772253D01*
X35757893Y-132786867D01*
X35736849Y-132799480D01*
X35714671Y-132809970D01*
X35691571Y-132818235D01*
X35667773Y-132824196D01*
X35643504Y-132827796D01*
X35619000Y-132829000D01*
X33469000Y-132829000D01*
X33444496Y-132827796D01*
X33420227Y-132824196D01*
X33396429Y-132818235D01*
X33373329Y-132809970D01*
X33351151Y-132799480D01*
X33330107Y-132786867D01*
X33310402Y-132772253D01*
X33292223Y-132755777D01*
X33275747Y-132737598D01*
X33261133Y-132717893D01*
X33248520Y-132696849D01*
X33238030Y-132674671D01*
X33229765Y-132651571D01*
X33223804Y-132627773D01*
X33220204Y-132603504D01*
X33219000Y-132579000D01*
X33219000Y-131829000D01*
X33220204Y-131804496D01*
X33223804Y-131780227D01*
X33229765Y-131756429D01*
X33238030Y-131733329D01*
X33248520Y-131711151D01*
X33261133Y-131690107D01*
X33275747Y-131670402D01*
X33292223Y-131652223D01*
X33310402Y-131635747D01*
X33330107Y-131621133D01*
X33351151Y-131608520D01*
X33373329Y-131598030D01*
X33396429Y-131589765D01*
X33420227Y-131583804D01*
X33444496Y-131580204D01*
X33469000Y-131579000D01*
X35619000Y-131579000D01*
X35643504Y-131580204D01*
X35643504Y-131580204D01*
G37*
D25*
X34544000Y-132204000D03*
D26*
X44303000Y-133223000D03*
X41803000Y-133223000D03*
D11*
G36*
X85702505Y-134429204D02*
G01*
X85726773Y-134432804D01*
X85750572Y-134438765D01*
X85773671Y-134447030D01*
X85795850Y-134457520D01*
X85816893Y-134470132D01*
X85836599Y-134484747D01*
X85854777Y-134501223D01*
X85871253Y-134519401D01*
X85885868Y-134539107D01*
X85898480Y-134560150D01*
X85908970Y-134582329D01*
X85917235Y-134605428D01*
X85923196Y-134629227D01*
X85926796Y-134653495D01*
X85928000Y-134677999D01*
X85928000Y-135578001D01*
X85926796Y-135602505D01*
X85923196Y-135626773D01*
X85917235Y-135650572D01*
X85908970Y-135673671D01*
X85898480Y-135695850D01*
X85885868Y-135716893D01*
X85871253Y-135736599D01*
X85854777Y-135754777D01*
X85836599Y-135771253D01*
X85816893Y-135785868D01*
X85795850Y-135798480D01*
X85773671Y-135808970D01*
X85750572Y-135817235D01*
X85726773Y-135823196D01*
X85702505Y-135826796D01*
X85678001Y-135828000D01*
X85027999Y-135828000D01*
X85003495Y-135826796D01*
X84979227Y-135823196D01*
X84955428Y-135817235D01*
X84932329Y-135808970D01*
X84910150Y-135798480D01*
X84889107Y-135785868D01*
X84869401Y-135771253D01*
X84851223Y-135754777D01*
X84834747Y-135736599D01*
X84820132Y-135716893D01*
X84807520Y-135695850D01*
X84797030Y-135673671D01*
X84788765Y-135650572D01*
X84782804Y-135626773D01*
X84779204Y-135602505D01*
X84778000Y-135578001D01*
X84778000Y-134677999D01*
X84779204Y-134653495D01*
X84782804Y-134629227D01*
X84788765Y-134605428D01*
X84797030Y-134582329D01*
X84807520Y-134560150D01*
X84820132Y-134539107D01*
X84834747Y-134519401D01*
X84851223Y-134501223D01*
X84869401Y-134484747D01*
X84889107Y-134470132D01*
X84910150Y-134457520D01*
X84932329Y-134447030D01*
X84955428Y-134438765D01*
X84979227Y-134432804D01*
X85003495Y-134429204D01*
X85027999Y-134428000D01*
X85678001Y-134428000D01*
X85702505Y-134429204D01*
X85702505Y-134429204D01*
G37*
D23*
X85353000Y-135128000D03*
D11*
G36*
X83652505Y-134429204D02*
G01*
X83676773Y-134432804D01*
X83700572Y-134438765D01*
X83723671Y-134447030D01*
X83745850Y-134457520D01*
X83766893Y-134470132D01*
X83786599Y-134484747D01*
X83804777Y-134501223D01*
X83821253Y-134519401D01*
X83835868Y-134539107D01*
X83848480Y-134560150D01*
X83858970Y-134582329D01*
X83867235Y-134605428D01*
X83873196Y-134629227D01*
X83876796Y-134653495D01*
X83878000Y-134677999D01*
X83878000Y-135578001D01*
X83876796Y-135602505D01*
X83873196Y-135626773D01*
X83867235Y-135650572D01*
X83858970Y-135673671D01*
X83848480Y-135695850D01*
X83835868Y-135716893D01*
X83821253Y-135736599D01*
X83804777Y-135754777D01*
X83786599Y-135771253D01*
X83766893Y-135785868D01*
X83745850Y-135798480D01*
X83723671Y-135808970D01*
X83700572Y-135817235D01*
X83676773Y-135823196D01*
X83652505Y-135826796D01*
X83628001Y-135828000D01*
X82977999Y-135828000D01*
X82953495Y-135826796D01*
X82929227Y-135823196D01*
X82905428Y-135817235D01*
X82882329Y-135808970D01*
X82860150Y-135798480D01*
X82839107Y-135785868D01*
X82819401Y-135771253D01*
X82801223Y-135754777D01*
X82784747Y-135736599D01*
X82770132Y-135716893D01*
X82757520Y-135695850D01*
X82747030Y-135673671D01*
X82738765Y-135650572D01*
X82732804Y-135626773D01*
X82729204Y-135602505D01*
X82728000Y-135578001D01*
X82728000Y-134677999D01*
X82729204Y-134653495D01*
X82732804Y-134629227D01*
X82738765Y-134605428D01*
X82747030Y-134582329D01*
X82757520Y-134560150D01*
X82770132Y-134539107D01*
X82784747Y-134519401D01*
X82801223Y-134501223D01*
X82819401Y-134484747D01*
X82839107Y-134470132D01*
X82860150Y-134457520D01*
X82882329Y-134447030D01*
X82905428Y-134438765D01*
X82929227Y-134432804D01*
X82953495Y-134429204D01*
X82977999Y-134428000D01*
X83628001Y-134428000D01*
X83652505Y-134429204D01*
X83652505Y-134429204D01*
G37*
D23*
X83303000Y-135128000D03*
D11*
G36*
X31765504Y-125618204D02*
G01*
X31789773Y-125621804D01*
X31813571Y-125627765D01*
X31836671Y-125636030D01*
X31858849Y-125646520D01*
X31879893Y-125659133D01*
X31899598Y-125673747D01*
X31917777Y-125690223D01*
X31934253Y-125708402D01*
X31948867Y-125728107D01*
X31961480Y-125749151D01*
X31971970Y-125771329D01*
X31980235Y-125794429D01*
X31986196Y-125818227D01*
X31989796Y-125842496D01*
X31991000Y-125867000D01*
X31991000Y-127117000D01*
X31989796Y-127141504D01*
X31986196Y-127165773D01*
X31980235Y-127189571D01*
X31971970Y-127212671D01*
X31961480Y-127234849D01*
X31948867Y-127255893D01*
X31934253Y-127275598D01*
X31917777Y-127293777D01*
X31899598Y-127310253D01*
X31879893Y-127324867D01*
X31858849Y-127337480D01*
X31836671Y-127347970D01*
X31813571Y-127356235D01*
X31789773Y-127362196D01*
X31765504Y-127365796D01*
X31741000Y-127367000D01*
X30991000Y-127367000D01*
X30966496Y-127365796D01*
X30942227Y-127362196D01*
X30918429Y-127356235D01*
X30895329Y-127347970D01*
X30873151Y-127337480D01*
X30852107Y-127324867D01*
X30832402Y-127310253D01*
X30814223Y-127293777D01*
X30797747Y-127275598D01*
X30783133Y-127255893D01*
X30770520Y-127234849D01*
X30760030Y-127212671D01*
X30751765Y-127189571D01*
X30745804Y-127165773D01*
X30742204Y-127141504D01*
X30741000Y-127117000D01*
X30741000Y-125867000D01*
X30742204Y-125842496D01*
X30745804Y-125818227D01*
X30751765Y-125794429D01*
X30760030Y-125771329D01*
X30770520Y-125749151D01*
X30783133Y-125728107D01*
X30797747Y-125708402D01*
X30814223Y-125690223D01*
X30832402Y-125673747D01*
X30852107Y-125659133D01*
X30873151Y-125646520D01*
X30895329Y-125636030D01*
X30918429Y-125627765D01*
X30942227Y-125621804D01*
X30966496Y-125618204D01*
X30991000Y-125617000D01*
X31741000Y-125617000D01*
X31765504Y-125618204D01*
X31765504Y-125618204D01*
G37*
D25*
X31366000Y-126492000D03*
D11*
G36*
X34565504Y-125618204D02*
G01*
X34589773Y-125621804D01*
X34613571Y-125627765D01*
X34636671Y-125636030D01*
X34658849Y-125646520D01*
X34679893Y-125659133D01*
X34699598Y-125673747D01*
X34717777Y-125690223D01*
X34734253Y-125708402D01*
X34748867Y-125728107D01*
X34761480Y-125749151D01*
X34771970Y-125771329D01*
X34780235Y-125794429D01*
X34786196Y-125818227D01*
X34789796Y-125842496D01*
X34791000Y-125867000D01*
X34791000Y-127117000D01*
X34789796Y-127141504D01*
X34786196Y-127165773D01*
X34780235Y-127189571D01*
X34771970Y-127212671D01*
X34761480Y-127234849D01*
X34748867Y-127255893D01*
X34734253Y-127275598D01*
X34717777Y-127293777D01*
X34699598Y-127310253D01*
X34679893Y-127324867D01*
X34658849Y-127337480D01*
X34636671Y-127347970D01*
X34613571Y-127356235D01*
X34589773Y-127362196D01*
X34565504Y-127365796D01*
X34541000Y-127367000D01*
X33791000Y-127367000D01*
X33766496Y-127365796D01*
X33742227Y-127362196D01*
X33718429Y-127356235D01*
X33695329Y-127347970D01*
X33673151Y-127337480D01*
X33652107Y-127324867D01*
X33632402Y-127310253D01*
X33614223Y-127293777D01*
X33597747Y-127275598D01*
X33583133Y-127255893D01*
X33570520Y-127234849D01*
X33560030Y-127212671D01*
X33551765Y-127189571D01*
X33545804Y-127165773D01*
X33542204Y-127141504D01*
X33541000Y-127117000D01*
X33541000Y-125867000D01*
X33542204Y-125842496D01*
X33545804Y-125818227D01*
X33551765Y-125794429D01*
X33560030Y-125771329D01*
X33570520Y-125749151D01*
X33583133Y-125728107D01*
X33597747Y-125708402D01*
X33614223Y-125690223D01*
X33632402Y-125673747D01*
X33652107Y-125659133D01*
X33673151Y-125646520D01*
X33695329Y-125636030D01*
X33718429Y-125627765D01*
X33742227Y-125621804D01*
X33766496Y-125618204D01*
X33791000Y-125617000D01*
X34541000Y-125617000D01*
X34565504Y-125618204D01*
X34565504Y-125618204D01*
G37*
D25*
X34166000Y-126492000D03*
D11*
G36*
X94454505Y-132005204D02*
G01*
X94478773Y-132008804D01*
X94502572Y-132014765D01*
X94525671Y-132023030D01*
X94547850Y-132033520D01*
X94568893Y-132046132D01*
X94588599Y-132060747D01*
X94606777Y-132077223D01*
X94623253Y-132095401D01*
X94637868Y-132115107D01*
X94650480Y-132136150D01*
X94660970Y-132158329D01*
X94669235Y-132181428D01*
X94675196Y-132205227D01*
X94678796Y-132229495D01*
X94680000Y-132253999D01*
X94680000Y-132904001D01*
X94678796Y-132928505D01*
X94675196Y-132952773D01*
X94669235Y-132976572D01*
X94660970Y-132999671D01*
X94650480Y-133021850D01*
X94637868Y-133042893D01*
X94623253Y-133062599D01*
X94606777Y-133080777D01*
X94588599Y-133097253D01*
X94568893Y-133111868D01*
X94547850Y-133124480D01*
X94525671Y-133134970D01*
X94502572Y-133143235D01*
X94478773Y-133149196D01*
X94454505Y-133152796D01*
X94430001Y-133154000D01*
X93529999Y-133154000D01*
X93505495Y-133152796D01*
X93481227Y-133149196D01*
X93457428Y-133143235D01*
X93434329Y-133134970D01*
X93412150Y-133124480D01*
X93391107Y-133111868D01*
X93371401Y-133097253D01*
X93353223Y-133080777D01*
X93336747Y-133062599D01*
X93322132Y-133042893D01*
X93309520Y-133021850D01*
X93299030Y-132999671D01*
X93290765Y-132976572D01*
X93284804Y-132952773D01*
X93281204Y-132928505D01*
X93280000Y-132904001D01*
X93280000Y-132253999D01*
X93281204Y-132229495D01*
X93284804Y-132205227D01*
X93290765Y-132181428D01*
X93299030Y-132158329D01*
X93309520Y-132136150D01*
X93322132Y-132115107D01*
X93336747Y-132095401D01*
X93353223Y-132077223D01*
X93371401Y-132060747D01*
X93391107Y-132046132D01*
X93412150Y-132033520D01*
X93434329Y-132023030D01*
X93457428Y-132014765D01*
X93481227Y-132008804D01*
X93505495Y-132005204D01*
X93529999Y-132004000D01*
X94430001Y-132004000D01*
X94454505Y-132005204D01*
X94454505Y-132005204D01*
G37*
D23*
X93980000Y-132579000D03*
D11*
G36*
X94454505Y-134055204D02*
G01*
X94478773Y-134058804D01*
X94502572Y-134064765D01*
X94525671Y-134073030D01*
X94547850Y-134083520D01*
X94568893Y-134096132D01*
X94588599Y-134110747D01*
X94606777Y-134127223D01*
X94623253Y-134145401D01*
X94637868Y-134165107D01*
X94650480Y-134186150D01*
X94660970Y-134208329D01*
X94669235Y-134231428D01*
X94675196Y-134255227D01*
X94678796Y-134279495D01*
X94680000Y-134303999D01*
X94680000Y-134954001D01*
X94678796Y-134978505D01*
X94675196Y-135002773D01*
X94669235Y-135026572D01*
X94660970Y-135049671D01*
X94650480Y-135071850D01*
X94637868Y-135092893D01*
X94623253Y-135112599D01*
X94606777Y-135130777D01*
X94588599Y-135147253D01*
X94568893Y-135161868D01*
X94547850Y-135174480D01*
X94525671Y-135184970D01*
X94502572Y-135193235D01*
X94478773Y-135199196D01*
X94454505Y-135202796D01*
X94430001Y-135204000D01*
X93529999Y-135204000D01*
X93505495Y-135202796D01*
X93481227Y-135199196D01*
X93457428Y-135193235D01*
X93434329Y-135184970D01*
X93412150Y-135174480D01*
X93391107Y-135161868D01*
X93371401Y-135147253D01*
X93353223Y-135130777D01*
X93336747Y-135112599D01*
X93322132Y-135092893D01*
X93309520Y-135071850D01*
X93299030Y-135049671D01*
X93290765Y-135026572D01*
X93284804Y-135002773D01*
X93281204Y-134978505D01*
X93280000Y-134954001D01*
X93280000Y-134303999D01*
X93281204Y-134279495D01*
X93284804Y-134255227D01*
X93290765Y-134231428D01*
X93299030Y-134208329D01*
X93309520Y-134186150D01*
X93322132Y-134165107D01*
X93336747Y-134145401D01*
X93353223Y-134127223D01*
X93371401Y-134110747D01*
X93391107Y-134096132D01*
X93412150Y-134083520D01*
X93434329Y-134073030D01*
X93457428Y-134064765D01*
X93481227Y-134058804D01*
X93505495Y-134055204D01*
X93529999Y-134054000D01*
X94430001Y-134054000D01*
X94454505Y-134055204D01*
X94454505Y-134055204D01*
G37*
D23*
X93980000Y-134629000D03*
D11*
G36*
X75785505Y-138990204D02*
G01*
X75809773Y-138993804D01*
X75833572Y-138999765D01*
X75856671Y-139008030D01*
X75878850Y-139018520D01*
X75899893Y-139031132D01*
X75919599Y-139045747D01*
X75937777Y-139062223D01*
X75954253Y-139080401D01*
X75968868Y-139100107D01*
X75981480Y-139121150D01*
X75991970Y-139143329D01*
X76000235Y-139166428D01*
X76006196Y-139190227D01*
X76009796Y-139214495D01*
X76011000Y-139238999D01*
X76011000Y-139889001D01*
X76009796Y-139913505D01*
X76006196Y-139937773D01*
X76000235Y-139961572D01*
X75991970Y-139984671D01*
X75981480Y-140006850D01*
X75968868Y-140027893D01*
X75954253Y-140047599D01*
X75937777Y-140065777D01*
X75919599Y-140082253D01*
X75899893Y-140096868D01*
X75878850Y-140109480D01*
X75856671Y-140119970D01*
X75833572Y-140128235D01*
X75809773Y-140134196D01*
X75785505Y-140137796D01*
X75761001Y-140139000D01*
X74860999Y-140139000D01*
X74836495Y-140137796D01*
X74812227Y-140134196D01*
X74788428Y-140128235D01*
X74765329Y-140119970D01*
X74743150Y-140109480D01*
X74722107Y-140096868D01*
X74702401Y-140082253D01*
X74684223Y-140065777D01*
X74667747Y-140047599D01*
X74653132Y-140027893D01*
X74640520Y-140006850D01*
X74630030Y-139984671D01*
X74621765Y-139961572D01*
X74615804Y-139937773D01*
X74612204Y-139913505D01*
X74611000Y-139889001D01*
X74611000Y-139238999D01*
X74612204Y-139214495D01*
X74615804Y-139190227D01*
X74621765Y-139166428D01*
X74630030Y-139143329D01*
X74640520Y-139121150D01*
X74653132Y-139100107D01*
X74667747Y-139080401D01*
X74684223Y-139062223D01*
X74702401Y-139045747D01*
X74722107Y-139031132D01*
X74743150Y-139018520D01*
X74765329Y-139008030D01*
X74788428Y-138999765D01*
X74812227Y-138993804D01*
X74836495Y-138990204D01*
X74860999Y-138989000D01*
X75761001Y-138989000D01*
X75785505Y-138990204D01*
X75785505Y-138990204D01*
G37*
D23*
X75311000Y-139564000D03*
D11*
G36*
X75785505Y-141040204D02*
G01*
X75809773Y-141043804D01*
X75833572Y-141049765D01*
X75856671Y-141058030D01*
X75878850Y-141068520D01*
X75899893Y-141081132D01*
X75919599Y-141095747D01*
X75937777Y-141112223D01*
X75954253Y-141130401D01*
X75968868Y-141150107D01*
X75981480Y-141171150D01*
X75991970Y-141193329D01*
X76000235Y-141216428D01*
X76006196Y-141240227D01*
X76009796Y-141264495D01*
X76011000Y-141288999D01*
X76011000Y-141939001D01*
X76009796Y-141963505D01*
X76006196Y-141987773D01*
X76000235Y-142011572D01*
X75991970Y-142034671D01*
X75981480Y-142056850D01*
X75968868Y-142077893D01*
X75954253Y-142097599D01*
X75937777Y-142115777D01*
X75919599Y-142132253D01*
X75899893Y-142146868D01*
X75878850Y-142159480D01*
X75856671Y-142169970D01*
X75833572Y-142178235D01*
X75809773Y-142184196D01*
X75785505Y-142187796D01*
X75761001Y-142189000D01*
X74860999Y-142189000D01*
X74836495Y-142187796D01*
X74812227Y-142184196D01*
X74788428Y-142178235D01*
X74765329Y-142169970D01*
X74743150Y-142159480D01*
X74722107Y-142146868D01*
X74702401Y-142132253D01*
X74684223Y-142115777D01*
X74667747Y-142097599D01*
X74653132Y-142077893D01*
X74640520Y-142056850D01*
X74630030Y-142034671D01*
X74621765Y-142011572D01*
X74615804Y-141987773D01*
X74612204Y-141963505D01*
X74611000Y-141939001D01*
X74611000Y-141288999D01*
X74612204Y-141264495D01*
X74615804Y-141240227D01*
X74621765Y-141216428D01*
X74630030Y-141193329D01*
X74640520Y-141171150D01*
X74653132Y-141150107D01*
X74667747Y-141130401D01*
X74684223Y-141112223D01*
X74702401Y-141095747D01*
X74722107Y-141081132D01*
X74743150Y-141068520D01*
X74765329Y-141058030D01*
X74788428Y-141049765D01*
X74812227Y-141043804D01*
X74836495Y-141040204D01*
X74860999Y-141039000D01*
X75761001Y-141039000D01*
X75785505Y-141040204D01*
X75785505Y-141040204D01*
G37*
D23*
X75311000Y-141614000D03*
D11*
G36*
X75013504Y-147661204D02*
G01*
X75037773Y-147664804D01*
X75061571Y-147670765D01*
X75084671Y-147679030D01*
X75106849Y-147689520D01*
X75127893Y-147702133D01*
X75147598Y-147716747D01*
X75165777Y-147733223D01*
X75182253Y-147751402D01*
X75196867Y-147771107D01*
X75209480Y-147792151D01*
X75219970Y-147814329D01*
X75228235Y-147837429D01*
X75234196Y-147861227D01*
X75237796Y-147885496D01*
X75239000Y-147910000D01*
X75239000Y-148835000D01*
X75237796Y-148859504D01*
X75234196Y-148883773D01*
X75228235Y-148907571D01*
X75219970Y-148930671D01*
X75209480Y-148952849D01*
X75196867Y-148973893D01*
X75182253Y-148993598D01*
X75165777Y-149011777D01*
X75147598Y-149028253D01*
X75127893Y-149042867D01*
X75106849Y-149055480D01*
X75084671Y-149065970D01*
X75061571Y-149074235D01*
X75037773Y-149080196D01*
X75013504Y-149083796D01*
X74989000Y-149085000D01*
X72839000Y-149085000D01*
X72814496Y-149083796D01*
X72790227Y-149080196D01*
X72766429Y-149074235D01*
X72743329Y-149065970D01*
X72721151Y-149055480D01*
X72700107Y-149042867D01*
X72680402Y-149028253D01*
X72662223Y-149011777D01*
X72645747Y-148993598D01*
X72631133Y-148973893D01*
X72618520Y-148952849D01*
X72608030Y-148930671D01*
X72599765Y-148907571D01*
X72593804Y-148883773D01*
X72590204Y-148859504D01*
X72589000Y-148835000D01*
X72589000Y-147910000D01*
X72590204Y-147885496D01*
X72593804Y-147861227D01*
X72599765Y-147837429D01*
X72608030Y-147814329D01*
X72618520Y-147792151D01*
X72631133Y-147771107D01*
X72645747Y-147751402D01*
X72662223Y-147733223D01*
X72680402Y-147716747D01*
X72700107Y-147702133D01*
X72721151Y-147689520D01*
X72743329Y-147679030D01*
X72766429Y-147670765D01*
X72790227Y-147664804D01*
X72814496Y-147661204D01*
X72839000Y-147660000D01*
X74989000Y-147660000D01*
X75013504Y-147661204D01*
X75013504Y-147661204D01*
G37*
D27*
X73914000Y-148372500D03*
D11*
G36*
X75013504Y-150636204D02*
G01*
X75037773Y-150639804D01*
X75061571Y-150645765D01*
X75084671Y-150654030D01*
X75106849Y-150664520D01*
X75127893Y-150677133D01*
X75147598Y-150691747D01*
X75165777Y-150708223D01*
X75182253Y-150726402D01*
X75196867Y-150746107D01*
X75209480Y-150767151D01*
X75219970Y-150789329D01*
X75228235Y-150812429D01*
X75234196Y-150836227D01*
X75237796Y-150860496D01*
X75239000Y-150885000D01*
X75239000Y-151810000D01*
X75237796Y-151834504D01*
X75234196Y-151858773D01*
X75228235Y-151882571D01*
X75219970Y-151905671D01*
X75209480Y-151927849D01*
X75196867Y-151948893D01*
X75182253Y-151968598D01*
X75165777Y-151986777D01*
X75147598Y-152003253D01*
X75127893Y-152017867D01*
X75106849Y-152030480D01*
X75084671Y-152040970D01*
X75061571Y-152049235D01*
X75037773Y-152055196D01*
X75013504Y-152058796D01*
X74989000Y-152060000D01*
X72839000Y-152060000D01*
X72814496Y-152058796D01*
X72790227Y-152055196D01*
X72766429Y-152049235D01*
X72743329Y-152040970D01*
X72721151Y-152030480D01*
X72700107Y-152017867D01*
X72680402Y-152003253D01*
X72662223Y-151986777D01*
X72645747Y-151968598D01*
X72631133Y-151948893D01*
X72618520Y-151927849D01*
X72608030Y-151905671D01*
X72599765Y-151882571D01*
X72593804Y-151858773D01*
X72590204Y-151834504D01*
X72589000Y-151810000D01*
X72589000Y-150885000D01*
X72590204Y-150860496D01*
X72593804Y-150836227D01*
X72599765Y-150812429D01*
X72608030Y-150789329D01*
X72618520Y-150767151D01*
X72631133Y-150746107D01*
X72645747Y-150726402D01*
X72662223Y-150708223D01*
X72680402Y-150691747D01*
X72700107Y-150677133D01*
X72721151Y-150664520D01*
X72743329Y-150654030D01*
X72766429Y-150645765D01*
X72790227Y-150639804D01*
X72814496Y-150636204D01*
X72839000Y-150635000D01*
X74989000Y-150635000D01*
X75013504Y-150636204D01*
X75013504Y-150636204D01*
G37*
D27*
X73914000Y-151347500D03*
D11*
G36*
X73499505Y-138990204D02*
G01*
X73523773Y-138993804D01*
X73547572Y-138999765D01*
X73570671Y-139008030D01*
X73592850Y-139018520D01*
X73613893Y-139031132D01*
X73633599Y-139045747D01*
X73651777Y-139062223D01*
X73668253Y-139080401D01*
X73682868Y-139100107D01*
X73695480Y-139121150D01*
X73705970Y-139143329D01*
X73714235Y-139166428D01*
X73720196Y-139190227D01*
X73723796Y-139214495D01*
X73725000Y-139238999D01*
X73725000Y-139889001D01*
X73723796Y-139913505D01*
X73720196Y-139937773D01*
X73714235Y-139961572D01*
X73705970Y-139984671D01*
X73695480Y-140006850D01*
X73682868Y-140027893D01*
X73668253Y-140047599D01*
X73651777Y-140065777D01*
X73633599Y-140082253D01*
X73613893Y-140096868D01*
X73592850Y-140109480D01*
X73570671Y-140119970D01*
X73547572Y-140128235D01*
X73523773Y-140134196D01*
X73499505Y-140137796D01*
X73475001Y-140139000D01*
X72574999Y-140139000D01*
X72550495Y-140137796D01*
X72526227Y-140134196D01*
X72502428Y-140128235D01*
X72479329Y-140119970D01*
X72457150Y-140109480D01*
X72436107Y-140096868D01*
X72416401Y-140082253D01*
X72398223Y-140065777D01*
X72381747Y-140047599D01*
X72367132Y-140027893D01*
X72354520Y-140006850D01*
X72344030Y-139984671D01*
X72335765Y-139961572D01*
X72329804Y-139937773D01*
X72326204Y-139913505D01*
X72325000Y-139889001D01*
X72325000Y-139238999D01*
X72326204Y-139214495D01*
X72329804Y-139190227D01*
X72335765Y-139166428D01*
X72344030Y-139143329D01*
X72354520Y-139121150D01*
X72367132Y-139100107D01*
X72381747Y-139080401D01*
X72398223Y-139062223D01*
X72416401Y-139045747D01*
X72436107Y-139031132D01*
X72457150Y-139018520D01*
X72479329Y-139008030D01*
X72502428Y-138999765D01*
X72526227Y-138993804D01*
X72550495Y-138990204D01*
X72574999Y-138989000D01*
X73475001Y-138989000D01*
X73499505Y-138990204D01*
X73499505Y-138990204D01*
G37*
D23*
X73025000Y-139564000D03*
D11*
G36*
X73499505Y-141040204D02*
G01*
X73523773Y-141043804D01*
X73547572Y-141049765D01*
X73570671Y-141058030D01*
X73592850Y-141068520D01*
X73613893Y-141081132D01*
X73633599Y-141095747D01*
X73651777Y-141112223D01*
X73668253Y-141130401D01*
X73682868Y-141150107D01*
X73695480Y-141171150D01*
X73705970Y-141193329D01*
X73714235Y-141216428D01*
X73720196Y-141240227D01*
X73723796Y-141264495D01*
X73725000Y-141288999D01*
X73725000Y-141939001D01*
X73723796Y-141963505D01*
X73720196Y-141987773D01*
X73714235Y-142011572D01*
X73705970Y-142034671D01*
X73695480Y-142056850D01*
X73682868Y-142077893D01*
X73668253Y-142097599D01*
X73651777Y-142115777D01*
X73633599Y-142132253D01*
X73613893Y-142146868D01*
X73592850Y-142159480D01*
X73570671Y-142169970D01*
X73547572Y-142178235D01*
X73523773Y-142184196D01*
X73499505Y-142187796D01*
X73475001Y-142189000D01*
X72574999Y-142189000D01*
X72550495Y-142187796D01*
X72526227Y-142184196D01*
X72502428Y-142178235D01*
X72479329Y-142169970D01*
X72457150Y-142159480D01*
X72436107Y-142146868D01*
X72416401Y-142132253D01*
X72398223Y-142115777D01*
X72381747Y-142097599D01*
X72367132Y-142077893D01*
X72354520Y-142056850D01*
X72344030Y-142034671D01*
X72335765Y-142011572D01*
X72329804Y-141987773D01*
X72326204Y-141963505D01*
X72325000Y-141939001D01*
X72325000Y-141288999D01*
X72326204Y-141264495D01*
X72329804Y-141240227D01*
X72335765Y-141216428D01*
X72344030Y-141193329D01*
X72354520Y-141171150D01*
X72367132Y-141150107D01*
X72381747Y-141130401D01*
X72398223Y-141112223D01*
X72416401Y-141095747D01*
X72436107Y-141081132D01*
X72457150Y-141068520D01*
X72479329Y-141058030D01*
X72502428Y-141049765D01*
X72526227Y-141043804D01*
X72550495Y-141040204D01*
X72574999Y-141039000D01*
X73475001Y-141039000D01*
X73499505Y-141040204D01*
X73499505Y-141040204D01*
G37*
D23*
X73025000Y-141614000D03*
D11*
G36*
X40321142Y-140271174D02*
G01*
X40344803Y-140274684D01*
X40368007Y-140280496D01*
X40390529Y-140288554D01*
X40412153Y-140298782D01*
X40432670Y-140311079D01*
X40451883Y-140325329D01*
X40469607Y-140341393D01*
X40485671Y-140359117D01*
X40499921Y-140378330D01*
X40512218Y-140398847D01*
X40522446Y-140420471D01*
X40530504Y-140442993D01*
X40536316Y-140466197D01*
X40539826Y-140489858D01*
X40541000Y-140513750D01*
X40541000Y-141426250D01*
X40539826Y-141450142D01*
X40536316Y-141473803D01*
X40530504Y-141497007D01*
X40522446Y-141519529D01*
X40512218Y-141541153D01*
X40499921Y-141561670D01*
X40485671Y-141580883D01*
X40469607Y-141598607D01*
X40451883Y-141614671D01*
X40432670Y-141628921D01*
X40412153Y-141641218D01*
X40390529Y-141651446D01*
X40368007Y-141659504D01*
X40344803Y-141665316D01*
X40321142Y-141668826D01*
X40297250Y-141670000D01*
X39809750Y-141670000D01*
X39785858Y-141668826D01*
X39762197Y-141665316D01*
X39738993Y-141659504D01*
X39716471Y-141651446D01*
X39694847Y-141641218D01*
X39674330Y-141628921D01*
X39655117Y-141614671D01*
X39637393Y-141598607D01*
X39621329Y-141580883D01*
X39607079Y-141561670D01*
X39594782Y-141541153D01*
X39584554Y-141519529D01*
X39576496Y-141497007D01*
X39570684Y-141473803D01*
X39567174Y-141450142D01*
X39566000Y-141426250D01*
X39566000Y-140513750D01*
X39567174Y-140489858D01*
X39570684Y-140466197D01*
X39576496Y-140442993D01*
X39584554Y-140420471D01*
X39594782Y-140398847D01*
X39607079Y-140378330D01*
X39621329Y-140359117D01*
X39637393Y-140341393D01*
X39655117Y-140325329D01*
X39674330Y-140311079D01*
X39694847Y-140298782D01*
X39716471Y-140288554D01*
X39738993Y-140280496D01*
X39762197Y-140274684D01*
X39785858Y-140271174D01*
X39809750Y-140270000D01*
X40297250Y-140270000D01*
X40321142Y-140271174D01*
X40321142Y-140271174D01*
G37*
D12*
X40053500Y-140970000D03*
D11*
G36*
X38446142Y-140271174D02*
G01*
X38469803Y-140274684D01*
X38493007Y-140280496D01*
X38515529Y-140288554D01*
X38537153Y-140298782D01*
X38557670Y-140311079D01*
X38576883Y-140325329D01*
X38594607Y-140341393D01*
X38610671Y-140359117D01*
X38624921Y-140378330D01*
X38637218Y-140398847D01*
X38647446Y-140420471D01*
X38655504Y-140442993D01*
X38661316Y-140466197D01*
X38664826Y-140489858D01*
X38666000Y-140513750D01*
X38666000Y-141426250D01*
X38664826Y-141450142D01*
X38661316Y-141473803D01*
X38655504Y-141497007D01*
X38647446Y-141519529D01*
X38637218Y-141541153D01*
X38624921Y-141561670D01*
X38610671Y-141580883D01*
X38594607Y-141598607D01*
X38576883Y-141614671D01*
X38557670Y-141628921D01*
X38537153Y-141641218D01*
X38515529Y-141651446D01*
X38493007Y-141659504D01*
X38469803Y-141665316D01*
X38446142Y-141668826D01*
X38422250Y-141670000D01*
X37934750Y-141670000D01*
X37910858Y-141668826D01*
X37887197Y-141665316D01*
X37863993Y-141659504D01*
X37841471Y-141651446D01*
X37819847Y-141641218D01*
X37799330Y-141628921D01*
X37780117Y-141614671D01*
X37762393Y-141598607D01*
X37746329Y-141580883D01*
X37732079Y-141561670D01*
X37719782Y-141541153D01*
X37709554Y-141519529D01*
X37701496Y-141497007D01*
X37695684Y-141473803D01*
X37692174Y-141450142D01*
X37691000Y-141426250D01*
X37691000Y-140513750D01*
X37692174Y-140489858D01*
X37695684Y-140466197D01*
X37701496Y-140442993D01*
X37709554Y-140420471D01*
X37719782Y-140398847D01*
X37732079Y-140378330D01*
X37746329Y-140359117D01*
X37762393Y-140341393D01*
X37780117Y-140325329D01*
X37799330Y-140311079D01*
X37819847Y-140298782D01*
X37841471Y-140288554D01*
X37863993Y-140280496D01*
X37887197Y-140274684D01*
X37910858Y-140271174D01*
X37934750Y-140270000D01*
X38422250Y-140270000D01*
X38446142Y-140271174D01*
X38446142Y-140271174D01*
G37*
D12*
X38178500Y-140970000D03*
D11*
G36*
X65491505Y-137350204D02*
G01*
X65515773Y-137353804D01*
X65539572Y-137359765D01*
X65562671Y-137368030D01*
X65584850Y-137378520D01*
X65605893Y-137391132D01*
X65625599Y-137405747D01*
X65643777Y-137422223D01*
X65660253Y-137440401D01*
X65674868Y-137460107D01*
X65687480Y-137481150D01*
X65697970Y-137503329D01*
X65706235Y-137526428D01*
X65712196Y-137550227D01*
X65715796Y-137574495D01*
X65717000Y-137598999D01*
X65717000Y-138499001D01*
X65715796Y-138523505D01*
X65712196Y-138547773D01*
X65706235Y-138571572D01*
X65697970Y-138594671D01*
X65687480Y-138616850D01*
X65674868Y-138637893D01*
X65660253Y-138657599D01*
X65643777Y-138675777D01*
X65625599Y-138692253D01*
X65605893Y-138706868D01*
X65584850Y-138719480D01*
X65562671Y-138729970D01*
X65539572Y-138738235D01*
X65515773Y-138744196D01*
X65491505Y-138747796D01*
X65467001Y-138749000D01*
X64816999Y-138749000D01*
X64792495Y-138747796D01*
X64768227Y-138744196D01*
X64744428Y-138738235D01*
X64721329Y-138729970D01*
X64699150Y-138719480D01*
X64678107Y-138706868D01*
X64658401Y-138692253D01*
X64640223Y-138675777D01*
X64623747Y-138657599D01*
X64609132Y-138637893D01*
X64596520Y-138616850D01*
X64586030Y-138594671D01*
X64577765Y-138571572D01*
X64571804Y-138547773D01*
X64568204Y-138523505D01*
X64567000Y-138499001D01*
X64567000Y-137598999D01*
X64568204Y-137574495D01*
X64571804Y-137550227D01*
X64577765Y-137526428D01*
X64586030Y-137503329D01*
X64596520Y-137481150D01*
X64609132Y-137460107D01*
X64623747Y-137440401D01*
X64640223Y-137422223D01*
X64658401Y-137405747D01*
X64678107Y-137391132D01*
X64699150Y-137378520D01*
X64721329Y-137368030D01*
X64744428Y-137359765D01*
X64768227Y-137353804D01*
X64792495Y-137350204D01*
X64816999Y-137349000D01*
X65467001Y-137349000D01*
X65491505Y-137350204D01*
X65491505Y-137350204D01*
G37*
D23*
X65142000Y-138049000D03*
D11*
G36*
X67541505Y-137350204D02*
G01*
X67565773Y-137353804D01*
X67589572Y-137359765D01*
X67612671Y-137368030D01*
X67634850Y-137378520D01*
X67655893Y-137391132D01*
X67675599Y-137405747D01*
X67693777Y-137422223D01*
X67710253Y-137440401D01*
X67724868Y-137460107D01*
X67737480Y-137481150D01*
X67747970Y-137503329D01*
X67756235Y-137526428D01*
X67762196Y-137550227D01*
X67765796Y-137574495D01*
X67767000Y-137598999D01*
X67767000Y-138499001D01*
X67765796Y-138523505D01*
X67762196Y-138547773D01*
X67756235Y-138571572D01*
X67747970Y-138594671D01*
X67737480Y-138616850D01*
X67724868Y-138637893D01*
X67710253Y-138657599D01*
X67693777Y-138675777D01*
X67675599Y-138692253D01*
X67655893Y-138706868D01*
X67634850Y-138719480D01*
X67612671Y-138729970D01*
X67589572Y-138738235D01*
X67565773Y-138744196D01*
X67541505Y-138747796D01*
X67517001Y-138749000D01*
X66866999Y-138749000D01*
X66842495Y-138747796D01*
X66818227Y-138744196D01*
X66794428Y-138738235D01*
X66771329Y-138729970D01*
X66749150Y-138719480D01*
X66728107Y-138706868D01*
X66708401Y-138692253D01*
X66690223Y-138675777D01*
X66673747Y-138657599D01*
X66659132Y-138637893D01*
X66646520Y-138616850D01*
X66636030Y-138594671D01*
X66627765Y-138571572D01*
X66621804Y-138547773D01*
X66618204Y-138523505D01*
X66617000Y-138499001D01*
X66617000Y-137598999D01*
X66618204Y-137574495D01*
X66621804Y-137550227D01*
X66627765Y-137526428D01*
X66636030Y-137503329D01*
X66646520Y-137481150D01*
X66659132Y-137460107D01*
X66673747Y-137440401D01*
X66690223Y-137422223D01*
X66708401Y-137405747D01*
X66728107Y-137391132D01*
X66749150Y-137378520D01*
X66771329Y-137368030D01*
X66794428Y-137359765D01*
X66818227Y-137353804D01*
X66842495Y-137350204D01*
X66866999Y-137349000D01*
X67517001Y-137349000D01*
X67541505Y-137350204D01*
X67541505Y-137350204D01*
G37*
D23*
X67192000Y-138049000D03*
D11*
G36*
X59529505Y-139643204D02*
G01*
X59553773Y-139646804D01*
X59577572Y-139652765D01*
X59600671Y-139661030D01*
X59622850Y-139671520D01*
X59643893Y-139684132D01*
X59663599Y-139698747D01*
X59681777Y-139715223D01*
X59698253Y-139733401D01*
X59712868Y-139753107D01*
X59725480Y-139774150D01*
X59735970Y-139796329D01*
X59744235Y-139819428D01*
X59750196Y-139843227D01*
X59753796Y-139867495D01*
X59755000Y-139891999D01*
X59755000Y-140542001D01*
X59753796Y-140566505D01*
X59750196Y-140590773D01*
X59744235Y-140614572D01*
X59735970Y-140637671D01*
X59725480Y-140659850D01*
X59712868Y-140680893D01*
X59698253Y-140700599D01*
X59681777Y-140718777D01*
X59663599Y-140735253D01*
X59643893Y-140749868D01*
X59622850Y-140762480D01*
X59600671Y-140772970D01*
X59577572Y-140781235D01*
X59553773Y-140787196D01*
X59529505Y-140790796D01*
X59505001Y-140792000D01*
X58604999Y-140792000D01*
X58580495Y-140790796D01*
X58556227Y-140787196D01*
X58532428Y-140781235D01*
X58509329Y-140772970D01*
X58487150Y-140762480D01*
X58466107Y-140749868D01*
X58446401Y-140735253D01*
X58428223Y-140718777D01*
X58411747Y-140700599D01*
X58397132Y-140680893D01*
X58384520Y-140659850D01*
X58374030Y-140637671D01*
X58365765Y-140614572D01*
X58359804Y-140590773D01*
X58356204Y-140566505D01*
X58355000Y-140542001D01*
X58355000Y-139891999D01*
X58356204Y-139867495D01*
X58359804Y-139843227D01*
X58365765Y-139819428D01*
X58374030Y-139796329D01*
X58384520Y-139774150D01*
X58397132Y-139753107D01*
X58411747Y-139733401D01*
X58428223Y-139715223D01*
X58446401Y-139698747D01*
X58466107Y-139684132D01*
X58487150Y-139671520D01*
X58509329Y-139661030D01*
X58532428Y-139652765D01*
X58556227Y-139646804D01*
X58580495Y-139643204D01*
X58604999Y-139642000D01*
X59505001Y-139642000D01*
X59529505Y-139643204D01*
X59529505Y-139643204D01*
G37*
D23*
X59055000Y-140217000D03*
D11*
G36*
X59529505Y-137593204D02*
G01*
X59553773Y-137596804D01*
X59577572Y-137602765D01*
X59600671Y-137611030D01*
X59622850Y-137621520D01*
X59643893Y-137634132D01*
X59663599Y-137648747D01*
X59681777Y-137665223D01*
X59698253Y-137683401D01*
X59712868Y-137703107D01*
X59725480Y-137724150D01*
X59735970Y-137746329D01*
X59744235Y-137769428D01*
X59750196Y-137793227D01*
X59753796Y-137817495D01*
X59755000Y-137841999D01*
X59755000Y-138492001D01*
X59753796Y-138516505D01*
X59750196Y-138540773D01*
X59744235Y-138564572D01*
X59735970Y-138587671D01*
X59725480Y-138609850D01*
X59712868Y-138630893D01*
X59698253Y-138650599D01*
X59681777Y-138668777D01*
X59663599Y-138685253D01*
X59643893Y-138699868D01*
X59622850Y-138712480D01*
X59600671Y-138722970D01*
X59577572Y-138731235D01*
X59553773Y-138737196D01*
X59529505Y-138740796D01*
X59505001Y-138742000D01*
X58604999Y-138742000D01*
X58580495Y-138740796D01*
X58556227Y-138737196D01*
X58532428Y-138731235D01*
X58509329Y-138722970D01*
X58487150Y-138712480D01*
X58466107Y-138699868D01*
X58446401Y-138685253D01*
X58428223Y-138668777D01*
X58411747Y-138650599D01*
X58397132Y-138630893D01*
X58384520Y-138609850D01*
X58374030Y-138587671D01*
X58365765Y-138564572D01*
X58359804Y-138540773D01*
X58356204Y-138516505D01*
X58355000Y-138492001D01*
X58355000Y-137841999D01*
X58356204Y-137817495D01*
X58359804Y-137793227D01*
X58365765Y-137769428D01*
X58374030Y-137746329D01*
X58384520Y-137724150D01*
X58397132Y-137703107D01*
X58411747Y-137683401D01*
X58428223Y-137665223D01*
X58446401Y-137648747D01*
X58466107Y-137634132D01*
X58487150Y-137621520D01*
X58509329Y-137611030D01*
X58532428Y-137602765D01*
X58556227Y-137596804D01*
X58580495Y-137593204D01*
X58604999Y-137592000D01*
X59505001Y-137592000D01*
X59529505Y-137593204D01*
X59529505Y-137593204D01*
G37*
D23*
X59055000Y-138167000D03*
D11*
G36*
X32145504Y-131580204D02*
G01*
X32169773Y-131583804D01*
X32193571Y-131589765D01*
X32216671Y-131598030D01*
X32238849Y-131608520D01*
X32259893Y-131621133D01*
X32279598Y-131635747D01*
X32297777Y-131652223D01*
X32314253Y-131670402D01*
X32328867Y-131690107D01*
X32341480Y-131711151D01*
X32351970Y-131733329D01*
X32360235Y-131756429D01*
X32366196Y-131780227D01*
X32369796Y-131804496D01*
X32371000Y-131829000D01*
X32371000Y-132579000D01*
X32369796Y-132603504D01*
X32366196Y-132627773D01*
X32360235Y-132651571D01*
X32351970Y-132674671D01*
X32341480Y-132696849D01*
X32328867Y-132717893D01*
X32314253Y-132737598D01*
X32297777Y-132755777D01*
X32279598Y-132772253D01*
X32259893Y-132786867D01*
X32238849Y-132799480D01*
X32216671Y-132809970D01*
X32193571Y-132818235D01*
X32169773Y-132824196D01*
X32145504Y-132827796D01*
X32121000Y-132829000D01*
X30871000Y-132829000D01*
X30846496Y-132827796D01*
X30822227Y-132824196D01*
X30798429Y-132818235D01*
X30775329Y-132809970D01*
X30753151Y-132799480D01*
X30732107Y-132786867D01*
X30712402Y-132772253D01*
X30694223Y-132755777D01*
X30677747Y-132737598D01*
X30663133Y-132717893D01*
X30650520Y-132696849D01*
X30640030Y-132674671D01*
X30631765Y-132651571D01*
X30625804Y-132627773D01*
X30622204Y-132603504D01*
X30621000Y-132579000D01*
X30621000Y-131829000D01*
X30622204Y-131804496D01*
X30625804Y-131780227D01*
X30631765Y-131756429D01*
X30640030Y-131733329D01*
X30650520Y-131711151D01*
X30663133Y-131690107D01*
X30677747Y-131670402D01*
X30694223Y-131652223D01*
X30712402Y-131635747D01*
X30732107Y-131621133D01*
X30753151Y-131608520D01*
X30775329Y-131598030D01*
X30798429Y-131589765D01*
X30822227Y-131583804D01*
X30846496Y-131580204D01*
X30871000Y-131579000D01*
X32121000Y-131579000D01*
X32145504Y-131580204D01*
X32145504Y-131580204D01*
G37*
D25*
X31496000Y-132204000D03*
D11*
G36*
X32145504Y-134380204D02*
G01*
X32169773Y-134383804D01*
X32193571Y-134389765D01*
X32216671Y-134398030D01*
X32238849Y-134408520D01*
X32259893Y-134421133D01*
X32279598Y-134435747D01*
X32297777Y-134452223D01*
X32314253Y-134470402D01*
X32328867Y-134490107D01*
X32341480Y-134511151D01*
X32351970Y-134533329D01*
X32360235Y-134556429D01*
X32366196Y-134580227D01*
X32369796Y-134604496D01*
X32371000Y-134629000D01*
X32371000Y-135379000D01*
X32369796Y-135403504D01*
X32366196Y-135427773D01*
X32360235Y-135451571D01*
X32351970Y-135474671D01*
X32341480Y-135496849D01*
X32328867Y-135517893D01*
X32314253Y-135537598D01*
X32297777Y-135555777D01*
X32279598Y-135572253D01*
X32259893Y-135586867D01*
X32238849Y-135599480D01*
X32216671Y-135609970D01*
X32193571Y-135618235D01*
X32169773Y-135624196D01*
X32145504Y-135627796D01*
X32121000Y-135629000D01*
X30871000Y-135629000D01*
X30846496Y-135627796D01*
X30822227Y-135624196D01*
X30798429Y-135618235D01*
X30775329Y-135609970D01*
X30753151Y-135599480D01*
X30732107Y-135586867D01*
X30712402Y-135572253D01*
X30694223Y-135555777D01*
X30677747Y-135537598D01*
X30663133Y-135517893D01*
X30650520Y-135496849D01*
X30640030Y-135474671D01*
X30631765Y-135451571D01*
X30625804Y-135427773D01*
X30622204Y-135403504D01*
X30621000Y-135379000D01*
X30621000Y-134629000D01*
X30622204Y-134604496D01*
X30625804Y-134580227D01*
X30631765Y-134556429D01*
X30640030Y-134533329D01*
X30650520Y-134511151D01*
X30663133Y-134490107D01*
X30677747Y-134470402D01*
X30694223Y-134452223D01*
X30712402Y-134435747D01*
X30732107Y-134421133D01*
X30753151Y-134408520D01*
X30775329Y-134398030D01*
X30798429Y-134389765D01*
X30822227Y-134383804D01*
X30846496Y-134380204D01*
X30871000Y-134379000D01*
X32121000Y-134379000D01*
X32145504Y-134380204D01*
X32145504Y-134380204D01*
G37*
D25*
X31496000Y-135004000D03*
D11*
G36*
X60919505Y-145859204D02*
G01*
X60943773Y-145862804D01*
X60967572Y-145868765D01*
X60990671Y-145877030D01*
X61012850Y-145887520D01*
X61033893Y-145900132D01*
X61053599Y-145914747D01*
X61071777Y-145931223D01*
X61088253Y-145949401D01*
X61102868Y-145969107D01*
X61115480Y-145990150D01*
X61125970Y-146012329D01*
X61134235Y-146035428D01*
X61140196Y-146059227D01*
X61143796Y-146083495D01*
X61145000Y-146107999D01*
X61145000Y-147008001D01*
X61143796Y-147032505D01*
X61140196Y-147056773D01*
X61134235Y-147080572D01*
X61125970Y-147103671D01*
X61115480Y-147125850D01*
X61102868Y-147146893D01*
X61088253Y-147166599D01*
X61071777Y-147184777D01*
X61053599Y-147201253D01*
X61033893Y-147215868D01*
X61012850Y-147228480D01*
X60990671Y-147238970D01*
X60967572Y-147247235D01*
X60943773Y-147253196D01*
X60919505Y-147256796D01*
X60895001Y-147258000D01*
X60244999Y-147258000D01*
X60220495Y-147256796D01*
X60196227Y-147253196D01*
X60172428Y-147247235D01*
X60149329Y-147238970D01*
X60127150Y-147228480D01*
X60106107Y-147215868D01*
X60086401Y-147201253D01*
X60068223Y-147184777D01*
X60051747Y-147166599D01*
X60037132Y-147146893D01*
X60024520Y-147125850D01*
X60014030Y-147103671D01*
X60005765Y-147080572D01*
X59999804Y-147056773D01*
X59996204Y-147032505D01*
X59995000Y-147008001D01*
X59995000Y-146107999D01*
X59996204Y-146083495D01*
X59999804Y-146059227D01*
X60005765Y-146035428D01*
X60014030Y-146012329D01*
X60024520Y-145990150D01*
X60037132Y-145969107D01*
X60051747Y-145949401D01*
X60068223Y-145931223D01*
X60086401Y-145914747D01*
X60106107Y-145900132D01*
X60127150Y-145887520D01*
X60149329Y-145877030D01*
X60172428Y-145868765D01*
X60196227Y-145862804D01*
X60220495Y-145859204D01*
X60244999Y-145858000D01*
X60895001Y-145858000D01*
X60919505Y-145859204D01*
X60919505Y-145859204D01*
G37*
D23*
X60570000Y-146558000D03*
D11*
G36*
X62969505Y-145859204D02*
G01*
X62993773Y-145862804D01*
X63017572Y-145868765D01*
X63040671Y-145877030D01*
X63062850Y-145887520D01*
X63083893Y-145900132D01*
X63103599Y-145914747D01*
X63121777Y-145931223D01*
X63138253Y-145949401D01*
X63152868Y-145969107D01*
X63165480Y-145990150D01*
X63175970Y-146012329D01*
X63184235Y-146035428D01*
X63190196Y-146059227D01*
X63193796Y-146083495D01*
X63195000Y-146107999D01*
X63195000Y-147008001D01*
X63193796Y-147032505D01*
X63190196Y-147056773D01*
X63184235Y-147080572D01*
X63175970Y-147103671D01*
X63165480Y-147125850D01*
X63152868Y-147146893D01*
X63138253Y-147166599D01*
X63121777Y-147184777D01*
X63103599Y-147201253D01*
X63083893Y-147215868D01*
X63062850Y-147228480D01*
X63040671Y-147238970D01*
X63017572Y-147247235D01*
X62993773Y-147253196D01*
X62969505Y-147256796D01*
X62945001Y-147258000D01*
X62294999Y-147258000D01*
X62270495Y-147256796D01*
X62246227Y-147253196D01*
X62222428Y-147247235D01*
X62199329Y-147238970D01*
X62177150Y-147228480D01*
X62156107Y-147215868D01*
X62136401Y-147201253D01*
X62118223Y-147184777D01*
X62101747Y-147166599D01*
X62087132Y-147146893D01*
X62074520Y-147125850D01*
X62064030Y-147103671D01*
X62055765Y-147080572D01*
X62049804Y-147056773D01*
X62046204Y-147032505D01*
X62045000Y-147008001D01*
X62045000Y-146107999D01*
X62046204Y-146083495D01*
X62049804Y-146059227D01*
X62055765Y-146035428D01*
X62064030Y-146012329D01*
X62074520Y-145990150D01*
X62087132Y-145969107D01*
X62101747Y-145949401D01*
X62118223Y-145931223D01*
X62136401Y-145914747D01*
X62156107Y-145900132D01*
X62177150Y-145887520D01*
X62199329Y-145877030D01*
X62222428Y-145868765D01*
X62246227Y-145862804D01*
X62270495Y-145859204D01*
X62294999Y-145858000D01*
X62945001Y-145858000D01*
X62969505Y-145859204D01*
X62969505Y-145859204D01*
G37*
D23*
X62620000Y-146558000D03*
D11*
G36*
X43654505Y-141149204D02*
G01*
X43678773Y-141152804D01*
X43702572Y-141158765D01*
X43725671Y-141167030D01*
X43747850Y-141177520D01*
X43768893Y-141190132D01*
X43788599Y-141204747D01*
X43806777Y-141221223D01*
X43823253Y-141239401D01*
X43837868Y-141259107D01*
X43850480Y-141280150D01*
X43860970Y-141302329D01*
X43869235Y-141325428D01*
X43875196Y-141349227D01*
X43878796Y-141373495D01*
X43880000Y-141397999D01*
X43880000Y-142048001D01*
X43878796Y-142072505D01*
X43875196Y-142096773D01*
X43869235Y-142120572D01*
X43860970Y-142143671D01*
X43850480Y-142165850D01*
X43837868Y-142186893D01*
X43823253Y-142206599D01*
X43806777Y-142224777D01*
X43788599Y-142241253D01*
X43768893Y-142255868D01*
X43747850Y-142268480D01*
X43725671Y-142278970D01*
X43702572Y-142287235D01*
X43678773Y-142293196D01*
X43654505Y-142296796D01*
X43630001Y-142298000D01*
X42729999Y-142298000D01*
X42705495Y-142296796D01*
X42681227Y-142293196D01*
X42657428Y-142287235D01*
X42634329Y-142278970D01*
X42612150Y-142268480D01*
X42591107Y-142255868D01*
X42571401Y-142241253D01*
X42553223Y-142224777D01*
X42536747Y-142206599D01*
X42522132Y-142186893D01*
X42509520Y-142165850D01*
X42499030Y-142143671D01*
X42490765Y-142120572D01*
X42484804Y-142096773D01*
X42481204Y-142072505D01*
X42480000Y-142048001D01*
X42480000Y-141397999D01*
X42481204Y-141373495D01*
X42484804Y-141349227D01*
X42490765Y-141325428D01*
X42499030Y-141302329D01*
X42509520Y-141280150D01*
X42522132Y-141259107D01*
X42536747Y-141239401D01*
X42553223Y-141221223D01*
X42571401Y-141204747D01*
X42591107Y-141190132D01*
X42612150Y-141177520D01*
X42634329Y-141167030D01*
X42657428Y-141158765D01*
X42681227Y-141152804D01*
X42705495Y-141149204D01*
X42729999Y-141148000D01*
X43630001Y-141148000D01*
X43654505Y-141149204D01*
X43654505Y-141149204D01*
G37*
D23*
X43180000Y-141723000D03*
D11*
G36*
X43654505Y-143199204D02*
G01*
X43678773Y-143202804D01*
X43702572Y-143208765D01*
X43725671Y-143217030D01*
X43747850Y-143227520D01*
X43768893Y-143240132D01*
X43788599Y-143254747D01*
X43806777Y-143271223D01*
X43823253Y-143289401D01*
X43837868Y-143309107D01*
X43850480Y-143330150D01*
X43860970Y-143352329D01*
X43869235Y-143375428D01*
X43875196Y-143399227D01*
X43878796Y-143423495D01*
X43880000Y-143447999D01*
X43880000Y-144098001D01*
X43878796Y-144122505D01*
X43875196Y-144146773D01*
X43869235Y-144170572D01*
X43860970Y-144193671D01*
X43850480Y-144215850D01*
X43837868Y-144236893D01*
X43823253Y-144256599D01*
X43806777Y-144274777D01*
X43788599Y-144291253D01*
X43768893Y-144305868D01*
X43747850Y-144318480D01*
X43725671Y-144328970D01*
X43702572Y-144337235D01*
X43678773Y-144343196D01*
X43654505Y-144346796D01*
X43630001Y-144348000D01*
X42729999Y-144348000D01*
X42705495Y-144346796D01*
X42681227Y-144343196D01*
X42657428Y-144337235D01*
X42634329Y-144328970D01*
X42612150Y-144318480D01*
X42591107Y-144305868D01*
X42571401Y-144291253D01*
X42553223Y-144274777D01*
X42536747Y-144256599D01*
X42522132Y-144236893D01*
X42509520Y-144215850D01*
X42499030Y-144193671D01*
X42490765Y-144170572D01*
X42484804Y-144146773D01*
X42481204Y-144122505D01*
X42480000Y-144098001D01*
X42480000Y-143447999D01*
X42481204Y-143423495D01*
X42484804Y-143399227D01*
X42490765Y-143375428D01*
X42499030Y-143352329D01*
X42509520Y-143330150D01*
X42522132Y-143309107D01*
X42536747Y-143289401D01*
X42553223Y-143271223D01*
X42571401Y-143254747D01*
X42591107Y-143240132D01*
X42612150Y-143227520D01*
X42634329Y-143217030D01*
X42657428Y-143208765D01*
X42681227Y-143202804D01*
X42705495Y-143199204D01*
X42729999Y-143198000D01*
X43630001Y-143198000D01*
X43654505Y-143199204D01*
X43654505Y-143199204D01*
G37*
D23*
X43180000Y-143773000D03*
D11*
G36*
X91544505Y-131635204D02*
G01*
X91568773Y-131638804D01*
X91592572Y-131644765D01*
X91615671Y-131653030D01*
X91637850Y-131663520D01*
X91658893Y-131676132D01*
X91678599Y-131690747D01*
X91696777Y-131707223D01*
X91713253Y-131725401D01*
X91727868Y-131745107D01*
X91740480Y-131766150D01*
X91750970Y-131788329D01*
X91759235Y-131811428D01*
X91765196Y-131835227D01*
X91768796Y-131859495D01*
X91770000Y-131883999D01*
X91770000Y-132784001D01*
X91768796Y-132808505D01*
X91765196Y-132832773D01*
X91759235Y-132856572D01*
X91750970Y-132879671D01*
X91740480Y-132901850D01*
X91727868Y-132922893D01*
X91713253Y-132942599D01*
X91696777Y-132960777D01*
X91678599Y-132977253D01*
X91658893Y-132991868D01*
X91637850Y-133004480D01*
X91615671Y-133014970D01*
X91592572Y-133023235D01*
X91568773Y-133029196D01*
X91544505Y-133032796D01*
X91520001Y-133034000D01*
X90869999Y-133034000D01*
X90845495Y-133032796D01*
X90821227Y-133029196D01*
X90797428Y-133023235D01*
X90774329Y-133014970D01*
X90752150Y-133004480D01*
X90731107Y-132991868D01*
X90711401Y-132977253D01*
X90693223Y-132960777D01*
X90676747Y-132942599D01*
X90662132Y-132922893D01*
X90649520Y-132901850D01*
X90639030Y-132879671D01*
X90630765Y-132856572D01*
X90624804Y-132832773D01*
X90621204Y-132808505D01*
X90620000Y-132784001D01*
X90620000Y-131883999D01*
X90621204Y-131859495D01*
X90624804Y-131835227D01*
X90630765Y-131811428D01*
X90639030Y-131788329D01*
X90649520Y-131766150D01*
X90662132Y-131745107D01*
X90676747Y-131725401D01*
X90693223Y-131707223D01*
X90711401Y-131690747D01*
X90731107Y-131676132D01*
X90752150Y-131663520D01*
X90774329Y-131653030D01*
X90797428Y-131644765D01*
X90821227Y-131638804D01*
X90845495Y-131635204D01*
X90869999Y-131634000D01*
X91520001Y-131634000D01*
X91544505Y-131635204D01*
X91544505Y-131635204D01*
G37*
D23*
X91195000Y-132334000D03*
D11*
G36*
X89494505Y-131635204D02*
G01*
X89518773Y-131638804D01*
X89542572Y-131644765D01*
X89565671Y-131653030D01*
X89587850Y-131663520D01*
X89608893Y-131676132D01*
X89628599Y-131690747D01*
X89646777Y-131707223D01*
X89663253Y-131725401D01*
X89677868Y-131745107D01*
X89690480Y-131766150D01*
X89700970Y-131788329D01*
X89709235Y-131811428D01*
X89715196Y-131835227D01*
X89718796Y-131859495D01*
X89720000Y-131883999D01*
X89720000Y-132784001D01*
X89718796Y-132808505D01*
X89715196Y-132832773D01*
X89709235Y-132856572D01*
X89700970Y-132879671D01*
X89690480Y-132901850D01*
X89677868Y-132922893D01*
X89663253Y-132942599D01*
X89646777Y-132960777D01*
X89628599Y-132977253D01*
X89608893Y-132991868D01*
X89587850Y-133004480D01*
X89565671Y-133014970D01*
X89542572Y-133023235D01*
X89518773Y-133029196D01*
X89494505Y-133032796D01*
X89470001Y-133034000D01*
X88819999Y-133034000D01*
X88795495Y-133032796D01*
X88771227Y-133029196D01*
X88747428Y-133023235D01*
X88724329Y-133014970D01*
X88702150Y-133004480D01*
X88681107Y-132991868D01*
X88661401Y-132977253D01*
X88643223Y-132960777D01*
X88626747Y-132942599D01*
X88612132Y-132922893D01*
X88599520Y-132901850D01*
X88589030Y-132879671D01*
X88580765Y-132856572D01*
X88574804Y-132832773D01*
X88571204Y-132808505D01*
X88570000Y-132784001D01*
X88570000Y-131883999D01*
X88571204Y-131859495D01*
X88574804Y-131835227D01*
X88580765Y-131811428D01*
X88589030Y-131788329D01*
X88599520Y-131766150D01*
X88612132Y-131745107D01*
X88626747Y-131725401D01*
X88643223Y-131707223D01*
X88661401Y-131690747D01*
X88681107Y-131676132D01*
X88702150Y-131663520D01*
X88724329Y-131653030D01*
X88747428Y-131644765D01*
X88771227Y-131638804D01*
X88795495Y-131635204D01*
X88819999Y-131634000D01*
X89470001Y-131634000D01*
X89494505Y-131635204D01*
X89494505Y-131635204D01*
G37*
D23*
X89145000Y-132334000D03*
D11*
G36*
X62837142Y-126742209D02*
G01*
X62860803Y-126745719D01*
X62884007Y-126751531D01*
X62906529Y-126759589D01*
X62928153Y-126769817D01*
X62948670Y-126782114D01*
X62967883Y-126796364D01*
X62985607Y-126812428D01*
X63001671Y-126830152D01*
X63015921Y-126849365D01*
X63028218Y-126869882D01*
X63038446Y-126891506D01*
X63046504Y-126914028D01*
X63052316Y-126937232D01*
X63055826Y-126960893D01*
X63057000Y-126984785D01*
X63057000Y-127472285D01*
X63055826Y-127496177D01*
X63052316Y-127519838D01*
X63046504Y-127543042D01*
X63038446Y-127565564D01*
X63028218Y-127587188D01*
X63015921Y-127607705D01*
X63001671Y-127626918D01*
X62985607Y-127644642D01*
X62967883Y-127660706D01*
X62948670Y-127674956D01*
X62928153Y-127687253D01*
X62906529Y-127697481D01*
X62884007Y-127705539D01*
X62860803Y-127711351D01*
X62837142Y-127714861D01*
X62813250Y-127716035D01*
X61900750Y-127716035D01*
X61876858Y-127714861D01*
X61853197Y-127711351D01*
X61829993Y-127705539D01*
X61807471Y-127697481D01*
X61785847Y-127687253D01*
X61765330Y-127674956D01*
X61746117Y-127660706D01*
X61728393Y-127644642D01*
X61712329Y-127626918D01*
X61698079Y-127607705D01*
X61685782Y-127587188D01*
X61675554Y-127565564D01*
X61667496Y-127543042D01*
X61661684Y-127519838D01*
X61658174Y-127496177D01*
X61657000Y-127472285D01*
X61657000Y-126984785D01*
X61658174Y-126960893D01*
X61661684Y-126937232D01*
X61667496Y-126914028D01*
X61675554Y-126891506D01*
X61685782Y-126869882D01*
X61698079Y-126849365D01*
X61712329Y-126830152D01*
X61728393Y-126812428D01*
X61746117Y-126796364D01*
X61765330Y-126782114D01*
X61785847Y-126769817D01*
X61807471Y-126759589D01*
X61829993Y-126751531D01*
X61853197Y-126745719D01*
X61876858Y-126742209D01*
X61900750Y-126741035D01*
X62813250Y-126741035D01*
X62837142Y-126742209D01*
X62837142Y-126742209D01*
G37*
D12*
X62357000Y-127228535D03*
D11*
G36*
X62837142Y-128617209D02*
G01*
X62860803Y-128620719D01*
X62884007Y-128626531D01*
X62906529Y-128634589D01*
X62928153Y-128644817D01*
X62948670Y-128657114D01*
X62967883Y-128671364D01*
X62985607Y-128687428D01*
X63001671Y-128705152D01*
X63015921Y-128724365D01*
X63028218Y-128744882D01*
X63038446Y-128766506D01*
X63046504Y-128789028D01*
X63052316Y-128812232D01*
X63055826Y-128835893D01*
X63057000Y-128859785D01*
X63057000Y-129347285D01*
X63055826Y-129371177D01*
X63052316Y-129394838D01*
X63046504Y-129418042D01*
X63038446Y-129440564D01*
X63028218Y-129462188D01*
X63015921Y-129482705D01*
X63001671Y-129501918D01*
X62985607Y-129519642D01*
X62967883Y-129535706D01*
X62948670Y-129549956D01*
X62928153Y-129562253D01*
X62906529Y-129572481D01*
X62884007Y-129580539D01*
X62860803Y-129586351D01*
X62837142Y-129589861D01*
X62813250Y-129591035D01*
X61900750Y-129591035D01*
X61876858Y-129589861D01*
X61853197Y-129586351D01*
X61829993Y-129580539D01*
X61807471Y-129572481D01*
X61785847Y-129562253D01*
X61765330Y-129549956D01*
X61746117Y-129535706D01*
X61728393Y-129519642D01*
X61712329Y-129501918D01*
X61698079Y-129482705D01*
X61685782Y-129462188D01*
X61675554Y-129440564D01*
X61667496Y-129418042D01*
X61661684Y-129394838D01*
X61658174Y-129371177D01*
X61657000Y-129347285D01*
X61657000Y-128859785D01*
X61658174Y-128835893D01*
X61661684Y-128812232D01*
X61667496Y-128789028D01*
X61675554Y-128766506D01*
X61685782Y-128744882D01*
X61698079Y-128724365D01*
X61712329Y-128705152D01*
X61728393Y-128687428D01*
X61746117Y-128671364D01*
X61765330Y-128657114D01*
X61785847Y-128644817D01*
X61807471Y-128634589D01*
X61829993Y-128626531D01*
X61853197Y-128620719D01*
X61876858Y-128617209D01*
X61900750Y-128616035D01*
X62813250Y-128616035D01*
X62837142Y-128617209D01*
X62837142Y-128617209D01*
G37*
D12*
X62357000Y-129103535D03*
D11*
G36*
X81295556Y-128688739D02*
G01*
X81319824Y-128692339D01*
X81343623Y-128698300D01*
X81366722Y-128706565D01*
X81388901Y-128717055D01*
X81409944Y-128729667D01*
X81429650Y-128744282D01*
X81447828Y-128760758D01*
X81464304Y-128778936D01*
X81478919Y-128798642D01*
X81491531Y-128819685D01*
X81502021Y-128841864D01*
X81510286Y-128864963D01*
X81516247Y-128888762D01*
X81519847Y-128913030D01*
X81521051Y-128937534D01*
X81521051Y-129837536D01*
X81519847Y-129862040D01*
X81516247Y-129886308D01*
X81510286Y-129910107D01*
X81502021Y-129933206D01*
X81491531Y-129955385D01*
X81478919Y-129976428D01*
X81464304Y-129996134D01*
X81447828Y-130014312D01*
X81429650Y-130030788D01*
X81409944Y-130045403D01*
X81388901Y-130058015D01*
X81366722Y-130068505D01*
X81343623Y-130076770D01*
X81319824Y-130082731D01*
X81295556Y-130086331D01*
X81271052Y-130087535D01*
X80621050Y-130087535D01*
X80596546Y-130086331D01*
X80572278Y-130082731D01*
X80548479Y-130076770D01*
X80525380Y-130068505D01*
X80503201Y-130058015D01*
X80482158Y-130045403D01*
X80462452Y-130030788D01*
X80444274Y-130014312D01*
X80427798Y-129996134D01*
X80413183Y-129976428D01*
X80400571Y-129955385D01*
X80390081Y-129933206D01*
X80381816Y-129910107D01*
X80375855Y-129886308D01*
X80372255Y-129862040D01*
X80371051Y-129837536D01*
X80371051Y-128937534D01*
X80372255Y-128913030D01*
X80375855Y-128888762D01*
X80381816Y-128864963D01*
X80390081Y-128841864D01*
X80400571Y-128819685D01*
X80413183Y-128798642D01*
X80427798Y-128778936D01*
X80444274Y-128760758D01*
X80462452Y-128744282D01*
X80482158Y-128729667D01*
X80503201Y-128717055D01*
X80525380Y-128706565D01*
X80548479Y-128698300D01*
X80572278Y-128692339D01*
X80596546Y-128688739D01*
X80621050Y-128687535D01*
X81271052Y-128687535D01*
X81295556Y-128688739D01*
X81295556Y-128688739D01*
G37*
D23*
X80946051Y-129387535D03*
D11*
G36*
X83345556Y-128688739D02*
G01*
X83369824Y-128692339D01*
X83393623Y-128698300D01*
X83416722Y-128706565D01*
X83438901Y-128717055D01*
X83459944Y-128729667D01*
X83479650Y-128744282D01*
X83497828Y-128760758D01*
X83514304Y-128778936D01*
X83528919Y-128798642D01*
X83541531Y-128819685D01*
X83552021Y-128841864D01*
X83560286Y-128864963D01*
X83566247Y-128888762D01*
X83569847Y-128913030D01*
X83571051Y-128937534D01*
X83571051Y-129837536D01*
X83569847Y-129862040D01*
X83566247Y-129886308D01*
X83560286Y-129910107D01*
X83552021Y-129933206D01*
X83541531Y-129955385D01*
X83528919Y-129976428D01*
X83514304Y-129996134D01*
X83497828Y-130014312D01*
X83479650Y-130030788D01*
X83459944Y-130045403D01*
X83438901Y-130058015D01*
X83416722Y-130068505D01*
X83393623Y-130076770D01*
X83369824Y-130082731D01*
X83345556Y-130086331D01*
X83321052Y-130087535D01*
X82671050Y-130087535D01*
X82646546Y-130086331D01*
X82622278Y-130082731D01*
X82598479Y-130076770D01*
X82575380Y-130068505D01*
X82553201Y-130058015D01*
X82532158Y-130045403D01*
X82512452Y-130030788D01*
X82494274Y-130014312D01*
X82477798Y-129996134D01*
X82463183Y-129976428D01*
X82450571Y-129955385D01*
X82440081Y-129933206D01*
X82431816Y-129910107D01*
X82425855Y-129886308D01*
X82422255Y-129862040D01*
X82421051Y-129837536D01*
X82421051Y-128937534D01*
X82422255Y-128913030D01*
X82425855Y-128888762D01*
X82431816Y-128864963D01*
X82440081Y-128841864D01*
X82450571Y-128819685D01*
X82463183Y-128798642D01*
X82477798Y-128778936D01*
X82494274Y-128760758D01*
X82512452Y-128744282D01*
X82532158Y-128729667D01*
X82553201Y-128717055D01*
X82575380Y-128706565D01*
X82598479Y-128698300D01*
X82622278Y-128692339D01*
X82646546Y-128688739D01*
X82671050Y-128687535D01*
X83321052Y-128687535D01*
X83345556Y-128688739D01*
X83345556Y-128688739D01*
G37*
D23*
X82996051Y-129387535D03*
D11*
G36*
X65244505Y-123115204D02*
G01*
X65268773Y-123118804D01*
X65292572Y-123124765D01*
X65315671Y-123133030D01*
X65337850Y-123143520D01*
X65358893Y-123156132D01*
X65378599Y-123170747D01*
X65396777Y-123187223D01*
X65413253Y-123205401D01*
X65427868Y-123225107D01*
X65440480Y-123246150D01*
X65450970Y-123268329D01*
X65459235Y-123291428D01*
X65465196Y-123315227D01*
X65468796Y-123339495D01*
X65470000Y-123363999D01*
X65470000Y-124014001D01*
X65468796Y-124038505D01*
X65465196Y-124062773D01*
X65459235Y-124086572D01*
X65450970Y-124109671D01*
X65440480Y-124131850D01*
X65427868Y-124152893D01*
X65413253Y-124172599D01*
X65396777Y-124190777D01*
X65378599Y-124207253D01*
X65358893Y-124221868D01*
X65337850Y-124234480D01*
X65315671Y-124244970D01*
X65292572Y-124253235D01*
X65268773Y-124259196D01*
X65244505Y-124262796D01*
X65220001Y-124264000D01*
X64319999Y-124264000D01*
X64295495Y-124262796D01*
X64271227Y-124259196D01*
X64247428Y-124253235D01*
X64224329Y-124244970D01*
X64202150Y-124234480D01*
X64181107Y-124221868D01*
X64161401Y-124207253D01*
X64143223Y-124190777D01*
X64126747Y-124172599D01*
X64112132Y-124152893D01*
X64099520Y-124131850D01*
X64089030Y-124109671D01*
X64080765Y-124086572D01*
X64074804Y-124062773D01*
X64071204Y-124038505D01*
X64070000Y-124014001D01*
X64070000Y-123363999D01*
X64071204Y-123339495D01*
X64074804Y-123315227D01*
X64080765Y-123291428D01*
X64089030Y-123268329D01*
X64099520Y-123246150D01*
X64112132Y-123225107D01*
X64126747Y-123205401D01*
X64143223Y-123187223D01*
X64161401Y-123170747D01*
X64181107Y-123156132D01*
X64202150Y-123143520D01*
X64224329Y-123133030D01*
X64247428Y-123124765D01*
X64271227Y-123118804D01*
X64295495Y-123115204D01*
X64319999Y-123114000D01*
X65220001Y-123114000D01*
X65244505Y-123115204D01*
X65244505Y-123115204D01*
G37*
D23*
X64770000Y-123689000D03*
D11*
G36*
X65244505Y-125165204D02*
G01*
X65268773Y-125168804D01*
X65292572Y-125174765D01*
X65315671Y-125183030D01*
X65337850Y-125193520D01*
X65358893Y-125206132D01*
X65378599Y-125220747D01*
X65396777Y-125237223D01*
X65413253Y-125255401D01*
X65427868Y-125275107D01*
X65440480Y-125296150D01*
X65450970Y-125318329D01*
X65459235Y-125341428D01*
X65465196Y-125365227D01*
X65468796Y-125389495D01*
X65470000Y-125413999D01*
X65470000Y-126064001D01*
X65468796Y-126088505D01*
X65465196Y-126112773D01*
X65459235Y-126136572D01*
X65450970Y-126159671D01*
X65440480Y-126181850D01*
X65427868Y-126202893D01*
X65413253Y-126222599D01*
X65396777Y-126240777D01*
X65378599Y-126257253D01*
X65358893Y-126271868D01*
X65337850Y-126284480D01*
X65315671Y-126294970D01*
X65292572Y-126303235D01*
X65268773Y-126309196D01*
X65244505Y-126312796D01*
X65220001Y-126314000D01*
X64319999Y-126314000D01*
X64295495Y-126312796D01*
X64271227Y-126309196D01*
X64247428Y-126303235D01*
X64224329Y-126294970D01*
X64202150Y-126284480D01*
X64181107Y-126271868D01*
X64161401Y-126257253D01*
X64143223Y-126240777D01*
X64126747Y-126222599D01*
X64112132Y-126202893D01*
X64099520Y-126181850D01*
X64089030Y-126159671D01*
X64080765Y-126136572D01*
X64074804Y-126112773D01*
X64071204Y-126088505D01*
X64070000Y-126064001D01*
X64070000Y-125413999D01*
X64071204Y-125389495D01*
X64074804Y-125365227D01*
X64080765Y-125341428D01*
X64089030Y-125318329D01*
X64099520Y-125296150D01*
X64112132Y-125275107D01*
X64126747Y-125255401D01*
X64143223Y-125237223D01*
X64161401Y-125220747D01*
X64181107Y-125206132D01*
X64202150Y-125193520D01*
X64224329Y-125183030D01*
X64247428Y-125174765D01*
X64271227Y-125168804D01*
X64295495Y-125165204D01*
X64319999Y-125164000D01*
X65220001Y-125164000D01*
X65244505Y-125165204D01*
X65244505Y-125165204D01*
G37*
D23*
X64770000Y-125739000D03*
D11*
G36*
X76177505Y-128714204D02*
G01*
X76201773Y-128717804D01*
X76225572Y-128723765D01*
X76248671Y-128732030D01*
X76270850Y-128742520D01*
X76291893Y-128755132D01*
X76311599Y-128769747D01*
X76329777Y-128786223D01*
X76346253Y-128804401D01*
X76360868Y-128824107D01*
X76373480Y-128845150D01*
X76383970Y-128867329D01*
X76392235Y-128890428D01*
X76398196Y-128914227D01*
X76401796Y-128938495D01*
X76403000Y-128962999D01*
X76403000Y-129863001D01*
X76401796Y-129887505D01*
X76398196Y-129911773D01*
X76392235Y-129935572D01*
X76383970Y-129958671D01*
X76373480Y-129980850D01*
X76360868Y-130001893D01*
X76346253Y-130021599D01*
X76329777Y-130039777D01*
X76311599Y-130056253D01*
X76291893Y-130070868D01*
X76270850Y-130083480D01*
X76248671Y-130093970D01*
X76225572Y-130102235D01*
X76201773Y-130108196D01*
X76177505Y-130111796D01*
X76153001Y-130113000D01*
X75502999Y-130113000D01*
X75478495Y-130111796D01*
X75454227Y-130108196D01*
X75430428Y-130102235D01*
X75407329Y-130093970D01*
X75385150Y-130083480D01*
X75364107Y-130070868D01*
X75344401Y-130056253D01*
X75326223Y-130039777D01*
X75309747Y-130021599D01*
X75295132Y-130001893D01*
X75282520Y-129980850D01*
X75272030Y-129958671D01*
X75263765Y-129935572D01*
X75257804Y-129911773D01*
X75254204Y-129887505D01*
X75253000Y-129863001D01*
X75253000Y-128962999D01*
X75254204Y-128938495D01*
X75257804Y-128914227D01*
X75263765Y-128890428D01*
X75272030Y-128867329D01*
X75282520Y-128845150D01*
X75295132Y-128824107D01*
X75309747Y-128804401D01*
X75326223Y-128786223D01*
X75344401Y-128769747D01*
X75364107Y-128755132D01*
X75385150Y-128742520D01*
X75407329Y-128732030D01*
X75430428Y-128723765D01*
X75454227Y-128717804D01*
X75478495Y-128714204D01*
X75502999Y-128713000D01*
X76153001Y-128713000D01*
X76177505Y-128714204D01*
X76177505Y-128714204D01*
G37*
D23*
X75828000Y-129413000D03*
D11*
G36*
X74127505Y-128714204D02*
G01*
X74151773Y-128717804D01*
X74175572Y-128723765D01*
X74198671Y-128732030D01*
X74220850Y-128742520D01*
X74241893Y-128755132D01*
X74261599Y-128769747D01*
X74279777Y-128786223D01*
X74296253Y-128804401D01*
X74310868Y-128824107D01*
X74323480Y-128845150D01*
X74333970Y-128867329D01*
X74342235Y-128890428D01*
X74348196Y-128914227D01*
X74351796Y-128938495D01*
X74353000Y-128962999D01*
X74353000Y-129863001D01*
X74351796Y-129887505D01*
X74348196Y-129911773D01*
X74342235Y-129935572D01*
X74333970Y-129958671D01*
X74323480Y-129980850D01*
X74310868Y-130001893D01*
X74296253Y-130021599D01*
X74279777Y-130039777D01*
X74261599Y-130056253D01*
X74241893Y-130070868D01*
X74220850Y-130083480D01*
X74198671Y-130093970D01*
X74175572Y-130102235D01*
X74151773Y-130108196D01*
X74127505Y-130111796D01*
X74103001Y-130113000D01*
X73452999Y-130113000D01*
X73428495Y-130111796D01*
X73404227Y-130108196D01*
X73380428Y-130102235D01*
X73357329Y-130093970D01*
X73335150Y-130083480D01*
X73314107Y-130070868D01*
X73294401Y-130056253D01*
X73276223Y-130039777D01*
X73259747Y-130021599D01*
X73245132Y-130001893D01*
X73232520Y-129980850D01*
X73222030Y-129958671D01*
X73213765Y-129935572D01*
X73207804Y-129911773D01*
X73204204Y-129887505D01*
X73203000Y-129863001D01*
X73203000Y-128962999D01*
X73204204Y-128938495D01*
X73207804Y-128914227D01*
X73213765Y-128890428D01*
X73222030Y-128867329D01*
X73232520Y-128845150D01*
X73245132Y-128824107D01*
X73259747Y-128804401D01*
X73276223Y-128786223D01*
X73294401Y-128769747D01*
X73314107Y-128755132D01*
X73335150Y-128742520D01*
X73357329Y-128732030D01*
X73380428Y-128723765D01*
X73404227Y-128717804D01*
X73428495Y-128714204D01*
X73452999Y-128713000D01*
X74103001Y-128713000D01*
X74127505Y-128714204D01*
X74127505Y-128714204D01*
G37*
D23*
X73778000Y-129413000D03*
D11*
G36*
X58188556Y-124504739D02*
G01*
X58212824Y-124508339D01*
X58236623Y-124514300D01*
X58259722Y-124522565D01*
X58281901Y-124533055D01*
X58302944Y-124545667D01*
X58322650Y-124560282D01*
X58340828Y-124576758D01*
X58357304Y-124594936D01*
X58371919Y-124614642D01*
X58384531Y-124635685D01*
X58395021Y-124657864D01*
X58403286Y-124680963D01*
X58409247Y-124704762D01*
X58412847Y-124729030D01*
X58414051Y-124753534D01*
X58414051Y-125403536D01*
X58412847Y-125428040D01*
X58409247Y-125452308D01*
X58403286Y-125476107D01*
X58395021Y-125499206D01*
X58384531Y-125521385D01*
X58371919Y-125542428D01*
X58357304Y-125562134D01*
X58340828Y-125580312D01*
X58322650Y-125596788D01*
X58302944Y-125611403D01*
X58281901Y-125624015D01*
X58259722Y-125634505D01*
X58236623Y-125642770D01*
X58212824Y-125648731D01*
X58188556Y-125652331D01*
X58164052Y-125653535D01*
X57264050Y-125653535D01*
X57239546Y-125652331D01*
X57215278Y-125648731D01*
X57191479Y-125642770D01*
X57168380Y-125634505D01*
X57146201Y-125624015D01*
X57125158Y-125611403D01*
X57105452Y-125596788D01*
X57087274Y-125580312D01*
X57070798Y-125562134D01*
X57056183Y-125542428D01*
X57043571Y-125521385D01*
X57033081Y-125499206D01*
X57024816Y-125476107D01*
X57018855Y-125452308D01*
X57015255Y-125428040D01*
X57014051Y-125403536D01*
X57014051Y-124753534D01*
X57015255Y-124729030D01*
X57018855Y-124704762D01*
X57024816Y-124680963D01*
X57033081Y-124657864D01*
X57043571Y-124635685D01*
X57056183Y-124614642D01*
X57070798Y-124594936D01*
X57087274Y-124576758D01*
X57105452Y-124560282D01*
X57125158Y-124545667D01*
X57146201Y-124533055D01*
X57168380Y-124522565D01*
X57191479Y-124514300D01*
X57215278Y-124508339D01*
X57239546Y-124504739D01*
X57264050Y-124503535D01*
X58164052Y-124503535D01*
X58188556Y-124504739D01*
X58188556Y-124504739D01*
G37*
D23*
X57714051Y-125078535D03*
D11*
G36*
X58188556Y-122454739D02*
G01*
X58212824Y-122458339D01*
X58236623Y-122464300D01*
X58259722Y-122472565D01*
X58281901Y-122483055D01*
X58302944Y-122495667D01*
X58322650Y-122510282D01*
X58340828Y-122526758D01*
X58357304Y-122544936D01*
X58371919Y-122564642D01*
X58384531Y-122585685D01*
X58395021Y-122607864D01*
X58403286Y-122630963D01*
X58409247Y-122654762D01*
X58412847Y-122679030D01*
X58414051Y-122703534D01*
X58414051Y-123353536D01*
X58412847Y-123378040D01*
X58409247Y-123402308D01*
X58403286Y-123426107D01*
X58395021Y-123449206D01*
X58384531Y-123471385D01*
X58371919Y-123492428D01*
X58357304Y-123512134D01*
X58340828Y-123530312D01*
X58322650Y-123546788D01*
X58302944Y-123561403D01*
X58281901Y-123574015D01*
X58259722Y-123584505D01*
X58236623Y-123592770D01*
X58212824Y-123598731D01*
X58188556Y-123602331D01*
X58164052Y-123603535D01*
X57264050Y-123603535D01*
X57239546Y-123602331D01*
X57215278Y-123598731D01*
X57191479Y-123592770D01*
X57168380Y-123584505D01*
X57146201Y-123574015D01*
X57125158Y-123561403D01*
X57105452Y-123546788D01*
X57087274Y-123530312D01*
X57070798Y-123512134D01*
X57056183Y-123492428D01*
X57043571Y-123471385D01*
X57033081Y-123449206D01*
X57024816Y-123426107D01*
X57018855Y-123402308D01*
X57015255Y-123378040D01*
X57014051Y-123353536D01*
X57014051Y-122703534D01*
X57015255Y-122679030D01*
X57018855Y-122654762D01*
X57024816Y-122630963D01*
X57033081Y-122607864D01*
X57043571Y-122585685D01*
X57056183Y-122564642D01*
X57070798Y-122544936D01*
X57087274Y-122526758D01*
X57105452Y-122510282D01*
X57125158Y-122495667D01*
X57146201Y-122483055D01*
X57168380Y-122472565D01*
X57191479Y-122464300D01*
X57215278Y-122458339D01*
X57239546Y-122454739D01*
X57264050Y-122453535D01*
X58164052Y-122453535D01*
X58188556Y-122454739D01*
X58188556Y-122454739D01*
G37*
D23*
X57714051Y-123028535D03*
D11*
G36*
X48028556Y-124994739D02*
G01*
X48052824Y-124998339D01*
X48076623Y-125004300D01*
X48099722Y-125012565D01*
X48121901Y-125023055D01*
X48142944Y-125035667D01*
X48162650Y-125050282D01*
X48180828Y-125066758D01*
X48197304Y-125084936D01*
X48211919Y-125104642D01*
X48224531Y-125125685D01*
X48235021Y-125147864D01*
X48243286Y-125170963D01*
X48249247Y-125194762D01*
X48252847Y-125219030D01*
X48254051Y-125243534D01*
X48254051Y-125893536D01*
X48252847Y-125918040D01*
X48249247Y-125942308D01*
X48243286Y-125966107D01*
X48235021Y-125989206D01*
X48224531Y-126011385D01*
X48211919Y-126032428D01*
X48197304Y-126052134D01*
X48180828Y-126070312D01*
X48162650Y-126086788D01*
X48142944Y-126101403D01*
X48121901Y-126114015D01*
X48099722Y-126124505D01*
X48076623Y-126132770D01*
X48052824Y-126138731D01*
X48028556Y-126142331D01*
X48004052Y-126143535D01*
X47104050Y-126143535D01*
X47079546Y-126142331D01*
X47055278Y-126138731D01*
X47031479Y-126132770D01*
X47008380Y-126124505D01*
X46986201Y-126114015D01*
X46965158Y-126101403D01*
X46945452Y-126086788D01*
X46927274Y-126070312D01*
X46910798Y-126052134D01*
X46896183Y-126032428D01*
X46883571Y-126011385D01*
X46873081Y-125989206D01*
X46864816Y-125966107D01*
X46858855Y-125942308D01*
X46855255Y-125918040D01*
X46854051Y-125893536D01*
X46854051Y-125243534D01*
X46855255Y-125219030D01*
X46858855Y-125194762D01*
X46864816Y-125170963D01*
X46873081Y-125147864D01*
X46883571Y-125125685D01*
X46896183Y-125104642D01*
X46910798Y-125084936D01*
X46927274Y-125066758D01*
X46945452Y-125050282D01*
X46965158Y-125035667D01*
X46986201Y-125023055D01*
X47008380Y-125012565D01*
X47031479Y-125004300D01*
X47055278Y-124998339D01*
X47079546Y-124994739D01*
X47104050Y-124993535D01*
X48004052Y-124993535D01*
X48028556Y-124994739D01*
X48028556Y-124994739D01*
G37*
D23*
X47554051Y-125568535D03*
D11*
G36*
X48028556Y-127044739D02*
G01*
X48052824Y-127048339D01*
X48076623Y-127054300D01*
X48099722Y-127062565D01*
X48121901Y-127073055D01*
X48142944Y-127085667D01*
X48162650Y-127100282D01*
X48180828Y-127116758D01*
X48197304Y-127134936D01*
X48211919Y-127154642D01*
X48224531Y-127175685D01*
X48235021Y-127197864D01*
X48243286Y-127220963D01*
X48249247Y-127244762D01*
X48252847Y-127269030D01*
X48254051Y-127293534D01*
X48254051Y-127943536D01*
X48252847Y-127968040D01*
X48249247Y-127992308D01*
X48243286Y-128016107D01*
X48235021Y-128039206D01*
X48224531Y-128061385D01*
X48211919Y-128082428D01*
X48197304Y-128102134D01*
X48180828Y-128120312D01*
X48162650Y-128136788D01*
X48142944Y-128151403D01*
X48121901Y-128164015D01*
X48099722Y-128174505D01*
X48076623Y-128182770D01*
X48052824Y-128188731D01*
X48028556Y-128192331D01*
X48004052Y-128193535D01*
X47104050Y-128193535D01*
X47079546Y-128192331D01*
X47055278Y-128188731D01*
X47031479Y-128182770D01*
X47008380Y-128174505D01*
X46986201Y-128164015D01*
X46965158Y-128151403D01*
X46945452Y-128136788D01*
X46927274Y-128120312D01*
X46910798Y-128102134D01*
X46896183Y-128082428D01*
X46883571Y-128061385D01*
X46873081Y-128039206D01*
X46864816Y-128016107D01*
X46858855Y-127992308D01*
X46855255Y-127968040D01*
X46854051Y-127943536D01*
X46854051Y-127293534D01*
X46855255Y-127269030D01*
X46858855Y-127244762D01*
X46864816Y-127220963D01*
X46873081Y-127197864D01*
X46883571Y-127175685D01*
X46896183Y-127154642D01*
X46910798Y-127134936D01*
X46927274Y-127116758D01*
X46945452Y-127100282D01*
X46965158Y-127085667D01*
X46986201Y-127073055D01*
X47008380Y-127062565D01*
X47031479Y-127054300D01*
X47055278Y-127048339D01*
X47079546Y-127044739D01*
X47104050Y-127043535D01*
X48004052Y-127043535D01*
X48028556Y-127044739D01*
X48028556Y-127044739D01*
G37*
D23*
X47554051Y-127618535D03*
D11*
G36*
X48028556Y-128804739D02*
G01*
X48052824Y-128808339D01*
X48076623Y-128814300D01*
X48099722Y-128822565D01*
X48121901Y-128833055D01*
X48142944Y-128845667D01*
X48162650Y-128860282D01*
X48180828Y-128876758D01*
X48197304Y-128894936D01*
X48211919Y-128914642D01*
X48224531Y-128935685D01*
X48235021Y-128957864D01*
X48243286Y-128980963D01*
X48249247Y-129004762D01*
X48252847Y-129029030D01*
X48254051Y-129053534D01*
X48254051Y-129703536D01*
X48252847Y-129728040D01*
X48249247Y-129752308D01*
X48243286Y-129776107D01*
X48235021Y-129799206D01*
X48224531Y-129821385D01*
X48211919Y-129842428D01*
X48197304Y-129862134D01*
X48180828Y-129880312D01*
X48162650Y-129896788D01*
X48142944Y-129911403D01*
X48121901Y-129924015D01*
X48099722Y-129934505D01*
X48076623Y-129942770D01*
X48052824Y-129948731D01*
X48028556Y-129952331D01*
X48004052Y-129953535D01*
X47104050Y-129953535D01*
X47079546Y-129952331D01*
X47055278Y-129948731D01*
X47031479Y-129942770D01*
X47008380Y-129934505D01*
X46986201Y-129924015D01*
X46965158Y-129911403D01*
X46945452Y-129896788D01*
X46927274Y-129880312D01*
X46910798Y-129862134D01*
X46896183Y-129842428D01*
X46883571Y-129821385D01*
X46873081Y-129799206D01*
X46864816Y-129776107D01*
X46858855Y-129752308D01*
X46855255Y-129728040D01*
X46854051Y-129703536D01*
X46854051Y-129053534D01*
X46855255Y-129029030D01*
X46858855Y-129004762D01*
X46864816Y-128980963D01*
X46873081Y-128957864D01*
X46883571Y-128935685D01*
X46896183Y-128914642D01*
X46910798Y-128894936D01*
X46927274Y-128876758D01*
X46945452Y-128860282D01*
X46965158Y-128845667D01*
X46986201Y-128833055D01*
X47008380Y-128822565D01*
X47031479Y-128814300D01*
X47055278Y-128808339D01*
X47079546Y-128804739D01*
X47104050Y-128803535D01*
X48004052Y-128803535D01*
X48028556Y-128804739D01*
X48028556Y-128804739D01*
G37*
D23*
X47554051Y-129378535D03*
D11*
G36*
X48028556Y-130854739D02*
G01*
X48052824Y-130858339D01*
X48076623Y-130864300D01*
X48099722Y-130872565D01*
X48121901Y-130883055D01*
X48142944Y-130895667D01*
X48162650Y-130910282D01*
X48180828Y-130926758D01*
X48197304Y-130944936D01*
X48211919Y-130964642D01*
X48224531Y-130985685D01*
X48235021Y-131007864D01*
X48243286Y-131030963D01*
X48249247Y-131054762D01*
X48252847Y-131079030D01*
X48254051Y-131103534D01*
X48254051Y-131753536D01*
X48252847Y-131778040D01*
X48249247Y-131802308D01*
X48243286Y-131826107D01*
X48235021Y-131849206D01*
X48224531Y-131871385D01*
X48211919Y-131892428D01*
X48197304Y-131912134D01*
X48180828Y-131930312D01*
X48162650Y-131946788D01*
X48142944Y-131961403D01*
X48121901Y-131974015D01*
X48099722Y-131984505D01*
X48076623Y-131992770D01*
X48052824Y-131998731D01*
X48028556Y-132002331D01*
X48004052Y-132003535D01*
X47104050Y-132003535D01*
X47079546Y-132002331D01*
X47055278Y-131998731D01*
X47031479Y-131992770D01*
X47008380Y-131984505D01*
X46986201Y-131974015D01*
X46965158Y-131961403D01*
X46945452Y-131946788D01*
X46927274Y-131930312D01*
X46910798Y-131912134D01*
X46896183Y-131892428D01*
X46883571Y-131871385D01*
X46873081Y-131849206D01*
X46864816Y-131826107D01*
X46858855Y-131802308D01*
X46855255Y-131778040D01*
X46854051Y-131753536D01*
X46854051Y-131103534D01*
X46855255Y-131079030D01*
X46858855Y-131054762D01*
X46864816Y-131030963D01*
X46873081Y-131007864D01*
X46883571Y-130985685D01*
X46896183Y-130964642D01*
X46910798Y-130944936D01*
X46927274Y-130926758D01*
X46945452Y-130910282D01*
X46965158Y-130895667D01*
X46986201Y-130883055D01*
X47008380Y-130872565D01*
X47031479Y-130864300D01*
X47055278Y-130858339D01*
X47079546Y-130854739D01*
X47104050Y-130853535D01*
X48004052Y-130853535D01*
X48028556Y-130854739D01*
X48028556Y-130854739D01*
G37*
D23*
X47554051Y-131428535D03*
D11*
G36*
X42938555Y-129274739D02*
G01*
X42962824Y-129278339D01*
X42986622Y-129284300D01*
X43009722Y-129292565D01*
X43031900Y-129303055D01*
X43052944Y-129315668D01*
X43072649Y-129330282D01*
X43090828Y-129346758D01*
X43107304Y-129364937D01*
X43121918Y-129384642D01*
X43134531Y-129405686D01*
X43145021Y-129427864D01*
X43153286Y-129450964D01*
X43159247Y-129474762D01*
X43162847Y-129499031D01*
X43164051Y-129523535D01*
X43164051Y-130448535D01*
X43162847Y-130473039D01*
X43159247Y-130497308D01*
X43153286Y-130521106D01*
X43145021Y-130544206D01*
X43134531Y-130566384D01*
X43121918Y-130587428D01*
X43107304Y-130607133D01*
X43090828Y-130625312D01*
X43072649Y-130641788D01*
X43052944Y-130656402D01*
X43031900Y-130669015D01*
X43009722Y-130679505D01*
X42986622Y-130687770D01*
X42962824Y-130693731D01*
X42938555Y-130697331D01*
X42914051Y-130698535D01*
X40764051Y-130698535D01*
X40739547Y-130697331D01*
X40715278Y-130693731D01*
X40691480Y-130687770D01*
X40668380Y-130679505D01*
X40646202Y-130669015D01*
X40625158Y-130656402D01*
X40605453Y-130641788D01*
X40587274Y-130625312D01*
X40570798Y-130607133D01*
X40556184Y-130587428D01*
X40543571Y-130566384D01*
X40533081Y-130544206D01*
X40524816Y-130521106D01*
X40518855Y-130497308D01*
X40515255Y-130473039D01*
X40514051Y-130448535D01*
X40514051Y-129523535D01*
X40515255Y-129499031D01*
X40518855Y-129474762D01*
X40524816Y-129450964D01*
X40533081Y-129427864D01*
X40543571Y-129405686D01*
X40556184Y-129384642D01*
X40570798Y-129364937D01*
X40587274Y-129346758D01*
X40605453Y-129330282D01*
X40625158Y-129315668D01*
X40646202Y-129303055D01*
X40668380Y-129292565D01*
X40691480Y-129284300D01*
X40715278Y-129278339D01*
X40739547Y-129274739D01*
X40764051Y-129273535D01*
X42914051Y-129273535D01*
X42938555Y-129274739D01*
X42938555Y-129274739D01*
G37*
D27*
X41839051Y-129986035D03*
D11*
G36*
X42938555Y-126299739D02*
G01*
X42962824Y-126303339D01*
X42986622Y-126309300D01*
X43009722Y-126317565D01*
X43031900Y-126328055D01*
X43052944Y-126340668D01*
X43072649Y-126355282D01*
X43090828Y-126371758D01*
X43107304Y-126389937D01*
X43121918Y-126409642D01*
X43134531Y-126430686D01*
X43145021Y-126452864D01*
X43153286Y-126475964D01*
X43159247Y-126499762D01*
X43162847Y-126524031D01*
X43164051Y-126548535D01*
X43164051Y-127473535D01*
X43162847Y-127498039D01*
X43159247Y-127522308D01*
X43153286Y-127546106D01*
X43145021Y-127569206D01*
X43134531Y-127591384D01*
X43121918Y-127612428D01*
X43107304Y-127632133D01*
X43090828Y-127650312D01*
X43072649Y-127666788D01*
X43052944Y-127681402D01*
X43031900Y-127694015D01*
X43009722Y-127704505D01*
X42986622Y-127712770D01*
X42962824Y-127718731D01*
X42938555Y-127722331D01*
X42914051Y-127723535D01*
X40764051Y-127723535D01*
X40739547Y-127722331D01*
X40715278Y-127718731D01*
X40691480Y-127712770D01*
X40668380Y-127704505D01*
X40646202Y-127694015D01*
X40625158Y-127681402D01*
X40605453Y-127666788D01*
X40587274Y-127650312D01*
X40570798Y-127632133D01*
X40556184Y-127612428D01*
X40543571Y-127591384D01*
X40533081Y-127569206D01*
X40524816Y-127546106D01*
X40518855Y-127522308D01*
X40515255Y-127498039D01*
X40514051Y-127473535D01*
X40514051Y-126548535D01*
X40515255Y-126524031D01*
X40518855Y-126499762D01*
X40524816Y-126475964D01*
X40533081Y-126452864D01*
X40543571Y-126430686D01*
X40556184Y-126409642D01*
X40570798Y-126389937D01*
X40587274Y-126371758D01*
X40605453Y-126355282D01*
X40625158Y-126340668D01*
X40646202Y-126328055D01*
X40668380Y-126317565D01*
X40691480Y-126309300D01*
X40715278Y-126303339D01*
X40739547Y-126299739D01*
X40764051Y-126298535D01*
X42914051Y-126298535D01*
X42938555Y-126299739D01*
X42938555Y-126299739D01*
G37*
D27*
X41839051Y-127011035D03*
D11*
G36*
X87621193Y-122745174D02*
G01*
X87644854Y-122748684D01*
X87668058Y-122754496D01*
X87690580Y-122762554D01*
X87712204Y-122772782D01*
X87732721Y-122785079D01*
X87751934Y-122799329D01*
X87769658Y-122815393D01*
X87785722Y-122833117D01*
X87799972Y-122852330D01*
X87812269Y-122872847D01*
X87822497Y-122894471D01*
X87830555Y-122916993D01*
X87836367Y-122940197D01*
X87839877Y-122963858D01*
X87841051Y-122987750D01*
X87841051Y-123900250D01*
X87839877Y-123924142D01*
X87836367Y-123947803D01*
X87830555Y-123971007D01*
X87822497Y-123993529D01*
X87812269Y-124015153D01*
X87799972Y-124035670D01*
X87785722Y-124054883D01*
X87769658Y-124072607D01*
X87751934Y-124088671D01*
X87732721Y-124102921D01*
X87712204Y-124115218D01*
X87690580Y-124125446D01*
X87668058Y-124133504D01*
X87644854Y-124139316D01*
X87621193Y-124142826D01*
X87597301Y-124144000D01*
X87109801Y-124144000D01*
X87085909Y-124142826D01*
X87062248Y-124139316D01*
X87039044Y-124133504D01*
X87016522Y-124125446D01*
X86994898Y-124115218D01*
X86974381Y-124102921D01*
X86955168Y-124088671D01*
X86937444Y-124072607D01*
X86921380Y-124054883D01*
X86907130Y-124035670D01*
X86894833Y-124015153D01*
X86884605Y-123993529D01*
X86876547Y-123971007D01*
X86870735Y-123947803D01*
X86867225Y-123924142D01*
X86866051Y-123900250D01*
X86866051Y-122987750D01*
X86867225Y-122963858D01*
X86870735Y-122940197D01*
X86876547Y-122916993D01*
X86884605Y-122894471D01*
X86894833Y-122872847D01*
X86907130Y-122852330D01*
X86921380Y-122833117D01*
X86937444Y-122815393D01*
X86955168Y-122799329D01*
X86974381Y-122785079D01*
X86994898Y-122772782D01*
X87016522Y-122762554D01*
X87039044Y-122754496D01*
X87062248Y-122748684D01*
X87085909Y-122745174D01*
X87109801Y-122744000D01*
X87597301Y-122744000D01*
X87621193Y-122745174D01*
X87621193Y-122745174D01*
G37*
D12*
X87353551Y-123444000D03*
D11*
G36*
X85746193Y-122745174D02*
G01*
X85769854Y-122748684D01*
X85793058Y-122754496D01*
X85815580Y-122762554D01*
X85837204Y-122772782D01*
X85857721Y-122785079D01*
X85876934Y-122799329D01*
X85894658Y-122815393D01*
X85910722Y-122833117D01*
X85924972Y-122852330D01*
X85937269Y-122872847D01*
X85947497Y-122894471D01*
X85955555Y-122916993D01*
X85961367Y-122940197D01*
X85964877Y-122963858D01*
X85966051Y-122987750D01*
X85966051Y-123900250D01*
X85964877Y-123924142D01*
X85961367Y-123947803D01*
X85955555Y-123971007D01*
X85947497Y-123993529D01*
X85937269Y-124015153D01*
X85924972Y-124035670D01*
X85910722Y-124054883D01*
X85894658Y-124072607D01*
X85876934Y-124088671D01*
X85857721Y-124102921D01*
X85837204Y-124115218D01*
X85815580Y-124125446D01*
X85793058Y-124133504D01*
X85769854Y-124139316D01*
X85746193Y-124142826D01*
X85722301Y-124144000D01*
X85234801Y-124144000D01*
X85210909Y-124142826D01*
X85187248Y-124139316D01*
X85164044Y-124133504D01*
X85141522Y-124125446D01*
X85119898Y-124115218D01*
X85099381Y-124102921D01*
X85080168Y-124088671D01*
X85062444Y-124072607D01*
X85046380Y-124054883D01*
X85032130Y-124035670D01*
X85019833Y-124015153D01*
X85009605Y-123993529D01*
X85001547Y-123971007D01*
X84995735Y-123947803D01*
X84992225Y-123924142D01*
X84991051Y-123900250D01*
X84991051Y-122987750D01*
X84992225Y-122963858D01*
X84995735Y-122940197D01*
X85001547Y-122916993D01*
X85009605Y-122894471D01*
X85019833Y-122872847D01*
X85032130Y-122852330D01*
X85046380Y-122833117D01*
X85062444Y-122815393D01*
X85080168Y-122799329D01*
X85099381Y-122785079D01*
X85119898Y-122772782D01*
X85141522Y-122762554D01*
X85164044Y-122754496D01*
X85187248Y-122748684D01*
X85210909Y-122745174D01*
X85234801Y-122744000D01*
X85722301Y-122744000D01*
X85746193Y-122745174D01*
X85746193Y-122745174D01*
G37*
D12*
X85478551Y-123444000D03*
D11*
G36*
X76897142Y-121983174D02*
G01*
X76920803Y-121986684D01*
X76944007Y-121992496D01*
X76966529Y-122000554D01*
X76988153Y-122010782D01*
X77008670Y-122023079D01*
X77027883Y-122037329D01*
X77045607Y-122053393D01*
X77061671Y-122071117D01*
X77075921Y-122090330D01*
X77088218Y-122110847D01*
X77098446Y-122132471D01*
X77106504Y-122154993D01*
X77112316Y-122178197D01*
X77115826Y-122201858D01*
X77117000Y-122225750D01*
X77117000Y-123138250D01*
X77115826Y-123162142D01*
X77112316Y-123185803D01*
X77106504Y-123209007D01*
X77098446Y-123231529D01*
X77088218Y-123253153D01*
X77075921Y-123273670D01*
X77061671Y-123292883D01*
X77045607Y-123310607D01*
X77027883Y-123326671D01*
X77008670Y-123340921D01*
X76988153Y-123353218D01*
X76966529Y-123363446D01*
X76944007Y-123371504D01*
X76920803Y-123377316D01*
X76897142Y-123380826D01*
X76873250Y-123382000D01*
X76385750Y-123382000D01*
X76361858Y-123380826D01*
X76338197Y-123377316D01*
X76314993Y-123371504D01*
X76292471Y-123363446D01*
X76270847Y-123353218D01*
X76250330Y-123340921D01*
X76231117Y-123326671D01*
X76213393Y-123310607D01*
X76197329Y-123292883D01*
X76183079Y-123273670D01*
X76170782Y-123253153D01*
X76160554Y-123231529D01*
X76152496Y-123209007D01*
X76146684Y-123185803D01*
X76143174Y-123162142D01*
X76142000Y-123138250D01*
X76142000Y-122225750D01*
X76143174Y-122201858D01*
X76146684Y-122178197D01*
X76152496Y-122154993D01*
X76160554Y-122132471D01*
X76170782Y-122110847D01*
X76183079Y-122090330D01*
X76197329Y-122071117D01*
X76213393Y-122053393D01*
X76231117Y-122037329D01*
X76250330Y-122023079D01*
X76270847Y-122010782D01*
X76292471Y-122000554D01*
X76314993Y-121992496D01*
X76338197Y-121986684D01*
X76361858Y-121983174D01*
X76385750Y-121982000D01*
X76873250Y-121982000D01*
X76897142Y-121983174D01*
X76897142Y-121983174D01*
G37*
D12*
X76629500Y-122682000D03*
D11*
G36*
X75022142Y-121983174D02*
G01*
X75045803Y-121986684D01*
X75069007Y-121992496D01*
X75091529Y-122000554D01*
X75113153Y-122010782D01*
X75133670Y-122023079D01*
X75152883Y-122037329D01*
X75170607Y-122053393D01*
X75186671Y-122071117D01*
X75200921Y-122090330D01*
X75213218Y-122110847D01*
X75223446Y-122132471D01*
X75231504Y-122154993D01*
X75237316Y-122178197D01*
X75240826Y-122201858D01*
X75242000Y-122225750D01*
X75242000Y-123138250D01*
X75240826Y-123162142D01*
X75237316Y-123185803D01*
X75231504Y-123209007D01*
X75223446Y-123231529D01*
X75213218Y-123253153D01*
X75200921Y-123273670D01*
X75186671Y-123292883D01*
X75170607Y-123310607D01*
X75152883Y-123326671D01*
X75133670Y-123340921D01*
X75113153Y-123353218D01*
X75091529Y-123363446D01*
X75069007Y-123371504D01*
X75045803Y-123377316D01*
X75022142Y-123380826D01*
X74998250Y-123382000D01*
X74510750Y-123382000D01*
X74486858Y-123380826D01*
X74463197Y-123377316D01*
X74439993Y-123371504D01*
X74417471Y-123363446D01*
X74395847Y-123353218D01*
X74375330Y-123340921D01*
X74356117Y-123326671D01*
X74338393Y-123310607D01*
X74322329Y-123292883D01*
X74308079Y-123273670D01*
X74295782Y-123253153D01*
X74285554Y-123231529D01*
X74277496Y-123209007D01*
X74271684Y-123185803D01*
X74268174Y-123162142D01*
X74267000Y-123138250D01*
X74267000Y-122225750D01*
X74268174Y-122201858D01*
X74271684Y-122178197D01*
X74277496Y-122154993D01*
X74285554Y-122132471D01*
X74295782Y-122110847D01*
X74308079Y-122090330D01*
X74322329Y-122071117D01*
X74338393Y-122053393D01*
X74356117Y-122037329D01*
X74375330Y-122023079D01*
X74395847Y-122010782D01*
X74417471Y-122000554D01*
X74439993Y-121992496D01*
X74463197Y-121986684D01*
X74486858Y-121983174D01*
X74510750Y-121982000D01*
X74998250Y-121982000D01*
X75022142Y-121983174D01*
X75022142Y-121983174D01*
G37*
D12*
X74754500Y-122682000D03*
D11*
G36*
X84356193Y-126663709D02*
G01*
X84379854Y-126667219D01*
X84403058Y-126673031D01*
X84425580Y-126681089D01*
X84447204Y-126691317D01*
X84467721Y-126703614D01*
X84486934Y-126717864D01*
X84504658Y-126733928D01*
X84520722Y-126751652D01*
X84534972Y-126770865D01*
X84547269Y-126791382D01*
X84557497Y-126813006D01*
X84565555Y-126835528D01*
X84571367Y-126858732D01*
X84574877Y-126882393D01*
X84576051Y-126906285D01*
X84576051Y-127393785D01*
X84574877Y-127417677D01*
X84571367Y-127441338D01*
X84565555Y-127464542D01*
X84557497Y-127487064D01*
X84547269Y-127508688D01*
X84534972Y-127529205D01*
X84520722Y-127548418D01*
X84504658Y-127566142D01*
X84486934Y-127582206D01*
X84467721Y-127596456D01*
X84447204Y-127608753D01*
X84425580Y-127618981D01*
X84403058Y-127627039D01*
X84379854Y-127632851D01*
X84356193Y-127636361D01*
X84332301Y-127637535D01*
X83419801Y-127637535D01*
X83395909Y-127636361D01*
X83372248Y-127632851D01*
X83349044Y-127627039D01*
X83326522Y-127618981D01*
X83304898Y-127608753D01*
X83284381Y-127596456D01*
X83265168Y-127582206D01*
X83247444Y-127566142D01*
X83231380Y-127548418D01*
X83217130Y-127529205D01*
X83204833Y-127508688D01*
X83194605Y-127487064D01*
X83186547Y-127464542D01*
X83180735Y-127441338D01*
X83177225Y-127417677D01*
X83176051Y-127393785D01*
X83176051Y-126906285D01*
X83177225Y-126882393D01*
X83180735Y-126858732D01*
X83186547Y-126835528D01*
X83194605Y-126813006D01*
X83204833Y-126791382D01*
X83217130Y-126770865D01*
X83231380Y-126751652D01*
X83247444Y-126733928D01*
X83265168Y-126717864D01*
X83284381Y-126703614D01*
X83304898Y-126691317D01*
X83326522Y-126681089D01*
X83349044Y-126673031D01*
X83372248Y-126667219D01*
X83395909Y-126663709D01*
X83419801Y-126662535D01*
X84332301Y-126662535D01*
X84356193Y-126663709D01*
X84356193Y-126663709D01*
G37*
D12*
X83876051Y-127150035D03*
D11*
G36*
X84356193Y-124788709D02*
G01*
X84379854Y-124792219D01*
X84403058Y-124798031D01*
X84425580Y-124806089D01*
X84447204Y-124816317D01*
X84467721Y-124828614D01*
X84486934Y-124842864D01*
X84504658Y-124858928D01*
X84520722Y-124876652D01*
X84534972Y-124895865D01*
X84547269Y-124916382D01*
X84557497Y-124938006D01*
X84565555Y-124960528D01*
X84571367Y-124983732D01*
X84574877Y-125007393D01*
X84576051Y-125031285D01*
X84576051Y-125518785D01*
X84574877Y-125542677D01*
X84571367Y-125566338D01*
X84565555Y-125589542D01*
X84557497Y-125612064D01*
X84547269Y-125633688D01*
X84534972Y-125654205D01*
X84520722Y-125673418D01*
X84504658Y-125691142D01*
X84486934Y-125707206D01*
X84467721Y-125721456D01*
X84447204Y-125733753D01*
X84425580Y-125743981D01*
X84403058Y-125752039D01*
X84379854Y-125757851D01*
X84356193Y-125761361D01*
X84332301Y-125762535D01*
X83419801Y-125762535D01*
X83395909Y-125761361D01*
X83372248Y-125757851D01*
X83349044Y-125752039D01*
X83326522Y-125743981D01*
X83304898Y-125733753D01*
X83284381Y-125721456D01*
X83265168Y-125707206D01*
X83247444Y-125691142D01*
X83231380Y-125673418D01*
X83217130Y-125654205D01*
X83204833Y-125633688D01*
X83194605Y-125612064D01*
X83186547Y-125589542D01*
X83180735Y-125566338D01*
X83177225Y-125542677D01*
X83176051Y-125518785D01*
X83176051Y-125031285D01*
X83177225Y-125007393D01*
X83180735Y-124983732D01*
X83186547Y-124960528D01*
X83194605Y-124938006D01*
X83204833Y-124916382D01*
X83217130Y-124895865D01*
X83231380Y-124876652D01*
X83247444Y-124858928D01*
X83265168Y-124842864D01*
X83284381Y-124828614D01*
X83304898Y-124816317D01*
X83326522Y-124806089D01*
X83349044Y-124798031D01*
X83372248Y-124792219D01*
X83395909Y-124788709D01*
X83419801Y-124787535D01*
X84332301Y-124787535D01*
X84356193Y-124788709D01*
X84356193Y-124788709D01*
G37*
D12*
X83876051Y-125275035D03*
D11*
G36*
X72960142Y-121983174D02*
G01*
X72983803Y-121986684D01*
X73007007Y-121992496D01*
X73029529Y-122000554D01*
X73051153Y-122010782D01*
X73071670Y-122023079D01*
X73090883Y-122037329D01*
X73108607Y-122053393D01*
X73124671Y-122071117D01*
X73138921Y-122090330D01*
X73151218Y-122110847D01*
X73161446Y-122132471D01*
X73169504Y-122154993D01*
X73175316Y-122178197D01*
X73178826Y-122201858D01*
X73180000Y-122225750D01*
X73180000Y-123138250D01*
X73178826Y-123162142D01*
X73175316Y-123185803D01*
X73169504Y-123209007D01*
X73161446Y-123231529D01*
X73151218Y-123253153D01*
X73138921Y-123273670D01*
X73124671Y-123292883D01*
X73108607Y-123310607D01*
X73090883Y-123326671D01*
X73071670Y-123340921D01*
X73051153Y-123353218D01*
X73029529Y-123363446D01*
X73007007Y-123371504D01*
X72983803Y-123377316D01*
X72960142Y-123380826D01*
X72936250Y-123382000D01*
X72448750Y-123382000D01*
X72424858Y-123380826D01*
X72401197Y-123377316D01*
X72377993Y-123371504D01*
X72355471Y-123363446D01*
X72333847Y-123353218D01*
X72313330Y-123340921D01*
X72294117Y-123326671D01*
X72276393Y-123310607D01*
X72260329Y-123292883D01*
X72246079Y-123273670D01*
X72233782Y-123253153D01*
X72223554Y-123231529D01*
X72215496Y-123209007D01*
X72209684Y-123185803D01*
X72206174Y-123162142D01*
X72205000Y-123138250D01*
X72205000Y-122225750D01*
X72206174Y-122201858D01*
X72209684Y-122178197D01*
X72215496Y-122154993D01*
X72223554Y-122132471D01*
X72233782Y-122110847D01*
X72246079Y-122090330D01*
X72260329Y-122071117D01*
X72276393Y-122053393D01*
X72294117Y-122037329D01*
X72313330Y-122023079D01*
X72333847Y-122010782D01*
X72355471Y-122000554D01*
X72377993Y-121992496D01*
X72401197Y-121986684D01*
X72424858Y-121983174D01*
X72448750Y-121982000D01*
X72936250Y-121982000D01*
X72960142Y-121983174D01*
X72960142Y-121983174D01*
G37*
D12*
X72692500Y-122682000D03*
D11*
G36*
X71085142Y-121983174D02*
G01*
X71108803Y-121986684D01*
X71132007Y-121992496D01*
X71154529Y-122000554D01*
X71176153Y-122010782D01*
X71196670Y-122023079D01*
X71215883Y-122037329D01*
X71233607Y-122053393D01*
X71249671Y-122071117D01*
X71263921Y-122090330D01*
X71276218Y-122110847D01*
X71286446Y-122132471D01*
X71294504Y-122154993D01*
X71300316Y-122178197D01*
X71303826Y-122201858D01*
X71305000Y-122225750D01*
X71305000Y-123138250D01*
X71303826Y-123162142D01*
X71300316Y-123185803D01*
X71294504Y-123209007D01*
X71286446Y-123231529D01*
X71276218Y-123253153D01*
X71263921Y-123273670D01*
X71249671Y-123292883D01*
X71233607Y-123310607D01*
X71215883Y-123326671D01*
X71196670Y-123340921D01*
X71176153Y-123353218D01*
X71154529Y-123363446D01*
X71132007Y-123371504D01*
X71108803Y-123377316D01*
X71085142Y-123380826D01*
X71061250Y-123382000D01*
X70573750Y-123382000D01*
X70549858Y-123380826D01*
X70526197Y-123377316D01*
X70502993Y-123371504D01*
X70480471Y-123363446D01*
X70458847Y-123353218D01*
X70438330Y-123340921D01*
X70419117Y-123326671D01*
X70401393Y-123310607D01*
X70385329Y-123292883D01*
X70371079Y-123273670D01*
X70358782Y-123253153D01*
X70348554Y-123231529D01*
X70340496Y-123209007D01*
X70334684Y-123185803D01*
X70331174Y-123162142D01*
X70330000Y-123138250D01*
X70330000Y-122225750D01*
X70331174Y-122201858D01*
X70334684Y-122178197D01*
X70340496Y-122154993D01*
X70348554Y-122132471D01*
X70358782Y-122110847D01*
X70371079Y-122090330D01*
X70385329Y-122071117D01*
X70401393Y-122053393D01*
X70419117Y-122037329D01*
X70438330Y-122023079D01*
X70458847Y-122010782D01*
X70480471Y-122000554D01*
X70502993Y-121992496D01*
X70526197Y-121986684D01*
X70549858Y-121983174D01*
X70573750Y-121982000D01*
X71061250Y-121982000D01*
X71085142Y-121983174D01*
X71085142Y-121983174D01*
G37*
D12*
X70817500Y-122682000D03*
D11*
G36*
X85746193Y-128688709D02*
G01*
X85769854Y-128692219D01*
X85793058Y-128698031D01*
X85815580Y-128706089D01*
X85837204Y-128716317D01*
X85857721Y-128728614D01*
X85876934Y-128742864D01*
X85894658Y-128758928D01*
X85910722Y-128776652D01*
X85924972Y-128795865D01*
X85937269Y-128816382D01*
X85947497Y-128838006D01*
X85955555Y-128860528D01*
X85961367Y-128883732D01*
X85964877Y-128907393D01*
X85966051Y-128931285D01*
X85966051Y-129843785D01*
X85964877Y-129867677D01*
X85961367Y-129891338D01*
X85955555Y-129914542D01*
X85947497Y-129937064D01*
X85937269Y-129958688D01*
X85924972Y-129979205D01*
X85910722Y-129998418D01*
X85894658Y-130016142D01*
X85876934Y-130032206D01*
X85857721Y-130046456D01*
X85837204Y-130058753D01*
X85815580Y-130068981D01*
X85793058Y-130077039D01*
X85769854Y-130082851D01*
X85746193Y-130086361D01*
X85722301Y-130087535D01*
X85234801Y-130087535D01*
X85210909Y-130086361D01*
X85187248Y-130082851D01*
X85164044Y-130077039D01*
X85141522Y-130068981D01*
X85119898Y-130058753D01*
X85099381Y-130046456D01*
X85080168Y-130032206D01*
X85062444Y-130016142D01*
X85046380Y-129998418D01*
X85032130Y-129979205D01*
X85019833Y-129958688D01*
X85009605Y-129937064D01*
X85001547Y-129914542D01*
X84995735Y-129891338D01*
X84992225Y-129867677D01*
X84991051Y-129843785D01*
X84991051Y-128931285D01*
X84992225Y-128907393D01*
X84995735Y-128883732D01*
X85001547Y-128860528D01*
X85009605Y-128838006D01*
X85019833Y-128816382D01*
X85032130Y-128795865D01*
X85046380Y-128776652D01*
X85062444Y-128758928D01*
X85080168Y-128742864D01*
X85099381Y-128728614D01*
X85119898Y-128716317D01*
X85141522Y-128706089D01*
X85164044Y-128698031D01*
X85187248Y-128692219D01*
X85210909Y-128688709D01*
X85234801Y-128687535D01*
X85722301Y-128687535D01*
X85746193Y-128688709D01*
X85746193Y-128688709D01*
G37*
D12*
X85478551Y-129387535D03*
D11*
G36*
X87621193Y-128688709D02*
G01*
X87644854Y-128692219D01*
X87668058Y-128698031D01*
X87690580Y-128706089D01*
X87712204Y-128716317D01*
X87732721Y-128728614D01*
X87751934Y-128742864D01*
X87769658Y-128758928D01*
X87785722Y-128776652D01*
X87799972Y-128795865D01*
X87812269Y-128816382D01*
X87822497Y-128838006D01*
X87830555Y-128860528D01*
X87836367Y-128883732D01*
X87839877Y-128907393D01*
X87841051Y-128931285D01*
X87841051Y-129843785D01*
X87839877Y-129867677D01*
X87836367Y-129891338D01*
X87830555Y-129914542D01*
X87822497Y-129937064D01*
X87812269Y-129958688D01*
X87799972Y-129979205D01*
X87785722Y-129998418D01*
X87769658Y-130016142D01*
X87751934Y-130032206D01*
X87732721Y-130046456D01*
X87712204Y-130058753D01*
X87690580Y-130068981D01*
X87668058Y-130077039D01*
X87644854Y-130082851D01*
X87621193Y-130086361D01*
X87597301Y-130087535D01*
X87109801Y-130087535D01*
X87085909Y-130086361D01*
X87062248Y-130082851D01*
X87039044Y-130077039D01*
X87016522Y-130068981D01*
X86994898Y-130058753D01*
X86974381Y-130046456D01*
X86955168Y-130032206D01*
X86937444Y-130016142D01*
X86921380Y-129998418D01*
X86907130Y-129979205D01*
X86894833Y-129958688D01*
X86884605Y-129937064D01*
X86876547Y-129914542D01*
X86870735Y-129891338D01*
X86867225Y-129867677D01*
X86866051Y-129843785D01*
X86866051Y-128931285D01*
X86867225Y-128907393D01*
X86870735Y-128883732D01*
X86876547Y-128860528D01*
X86884605Y-128838006D01*
X86894833Y-128816382D01*
X86907130Y-128795865D01*
X86921380Y-128776652D01*
X86937444Y-128758928D01*
X86955168Y-128742864D01*
X86974381Y-128728614D01*
X86994898Y-128716317D01*
X87016522Y-128706089D01*
X87039044Y-128698031D01*
X87062248Y-128692219D01*
X87085909Y-128688709D01*
X87109801Y-128687535D01*
X87597301Y-128687535D01*
X87621193Y-128688709D01*
X87621193Y-128688709D01*
G37*
D12*
X87353551Y-129387535D03*
D11*
G36*
X71085142Y-119443174D02*
G01*
X71108803Y-119446684D01*
X71132007Y-119452496D01*
X71154529Y-119460554D01*
X71176153Y-119470782D01*
X71196670Y-119483079D01*
X71215883Y-119497329D01*
X71233607Y-119513393D01*
X71249671Y-119531117D01*
X71263921Y-119550330D01*
X71276218Y-119570847D01*
X71286446Y-119592471D01*
X71294504Y-119614993D01*
X71300316Y-119638197D01*
X71303826Y-119661858D01*
X71305000Y-119685750D01*
X71305000Y-120598250D01*
X71303826Y-120622142D01*
X71300316Y-120645803D01*
X71294504Y-120669007D01*
X71286446Y-120691529D01*
X71276218Y-120713153D01*
X71263921Y-120733670D01*
X71249671Y-120752883D01*
X71233607Y-120770607D01*
X71215883Y-120786671D01*
X71196670Y-120800921D01*
X71176153Y-120813218D01*
X71154529Y-120823446D01*
X71132007Y-120831504D01*
X71108803Y-120837316D01*
X71085142Y-120840826D01*
X71061250Y-120842000D01*
X70573750Y-120842000D01*
X70549858Y-120840826D01*
X70526197Y-120837316D01*
X70502993Y-120831504D01*
X70480471Y-120823446D01*
X70458847Y-120813218D01*
X70438330Y-120800921D01*
X70419117Y-120786671D01*
X70401393Y-120770607D01*
X70385329Y-120752883D01*
X70371079Y-120733670D01*
X70358782Y-120713153D01*
X70348554Y-120691529D01*
X70340496Y-120669007D01*
X70334684Y-120645803D01*
X70331174Y-120622142D01*
X70330000Y-120598250D01*
X70330000Y-119685750D01*
X70331174Y-119661858D01*
X70334684Y-119638197D01*
X70340496Y-119614993D01*
X70348554Y-119592471D01*
X70358782Y-119570847D01*
X70371079Y-119550330D01*
X70385329Y-119531117D01*
X70401393Y-119513393D01*
X70419117Y-119497329D01*
X70438330Y-119483079D01*
X70458847Y-119470782D01*
X70480471Y-119460554D01*
X70502993Y-119452496D01*
X70526197Y-119446684D01*
X70549858Y-119443174D01*
X70573750Y-119442000D01*
X71061250Y-119442000D01*
X71085142Y-119443174D01*
X71085142Y-119443174D01*
G37*
D12*
X70817500Y-120142000D03*
D11*
G36*
X72960142Y-119443174D02*
G01*
X72983803Y-119446684D01*
X73007007Y-119452496D01*
X73029529Y-119460554D01*
X73051153Y-119470782D01*
X73071670Y-119483079D01*
X73090883Y-119497329D01*
X73108607Y-119513393D01*
X73124671Y-119531117D01*
X73138921Y-119550330D01*
X73151218Y-119570847D01*
X73161446Y-119592471D01*
X73169504Y-119614993D01*
X73175316Y-119638197D01*
X73178826Y-119661858D01*
X73180000Y-119685750D01*
X73180000Y-120598250D01*
X73178826Y-120622142D01*
X73175316Y-120645803D01*
X73169504Y-120669007D01*
X73161446Y-120691529D01*
X73151218Y-120713153D01*
X73138921Y-120733670D01*
X73124671Y-120752883D01*
X73108607Y-120770607D01*
X73090883Y-120786671D01*
X73071670Y-120800921D01*
X73051153Y-120813218D01*
X73029529Y-120823446D01*
X73007007Y-120831504D01*
X72983803Y-120837316D01*
X72960142Y-120840826D01*
X72936250Y-120842000D01*
X72448750Y-120842000D01*
X72424858Y-120840826D01*
X72401197Y-120837316D01*
X72377993Y-120831504D01*
X72355471Y-120823446D01*
X72333847Y-120813218D01*
X72313330Y-120800921D01*
X72294117Y-120786671D01*
X72276393Y-120770607D01*
X72260329Y-120752883D01*
X72246079Y-120733670D01*
X72233782Y-120713153D01*
X72223554Y-120691529D01*
X72215496Y-120669007D01*
X72209684Y-120645803D01*
X72206174Y-120622142D01*
X72205000Y-120598250D01*
X72205000Y-119685750D01*
X72206174Y-119661858D01*
X72209684Y-119638197D01*
X72215496Y-119614993D01*
X72223554Y-119592471D01*
X72233782Y-119570847D01*
X72246079Y-119550330D01*
X72260329Y-119531117D01*
X72276393Y-119513393D01*
X72294117Y-119497329D01*
X72313330Y-119483079D01*
X72333847Y-119470782D01*
X72355471Y-119460554D01*
X72377993Y-119452496D01*
X72401197Y-119446684D01*
X72424858Y-119443174D01*
X72448750Y-119442000D01*
X72936250Y-119442000D01*
X72960142Y-119443174D01*
X72960142Y-119443174D01*
G37*
D12*
X72692500Y-120142000D03*
D11*
G36*
X58265142Y-126719174D02*
G01*
X58288803Y-126722684D01*
X58312007Y-126728496D01*
X58334529Y-126736554D01*
X58356153Y-126746782D01*
X58376670Y-126759079D01*
X58395883Y-126773329D01*
X58413607Y-126789393D01*
X58429671Y-126807117D01*
X58443921Y-126826330D01*
X58456218Y-126846847D01*
X58466446Y-126868471D01*
X58474504Y-126890993D01*
X58480316Y-126914197D01*
X58483826Y-126937858D01*
X58485000Y-126961750D01*
X58485000Y-127449250D01*
X58483826Y-127473142D01*
X58480316Y-127496803D01*
X58474504Y-127520007D01*
X58466446Y-127542529D01*
X58456218Y-127564153D01*
X58443921Y-127584670D01*
X58429671Y-127603883D01*
X58413607Y-127621607D01*
X58395883Y-127637671D01*
X58376670Y-127651921D01*
X58356153Y-127664218D01*
X58334529Y-127674446D01*
X58312007Y-127682504D01*
X58288803Y-127688316D01*
X58265142Y-127691826D01*
X58241250Y-127693000D01*
X57328750Y-127693000D01*
X57304858Y-127691826D01*
X57281197Y-127688316D01*
X57257993Y-127682504D01*
X57235471Y-127674446D01*
X57213847Y-127664218D01*
X57193330Y-127651921D01*
X57174117Y-127637671D01*
X57156393Y-127621607D01*
X57140329Y-127603883D01*
X57126079Y-127584670D01*
X57113782Y-127564153D01*
X57103554Y-127542529D01*
X57095496Y-127520007D01*
X57089684Y-127496803D01*
X57086174Y-127473142D01*
X57085000Y-127449250D01*
X57085000Y-126961750D01*
X57086174Y-126937858D01*
X57089684Y-126914197D01*
X57095496Y-126890993D01*
X57103554Y-126868471D01*
X57113782Y-126846847D01*
X57126079Y-126826330D01*
X57140329Y-126807117D01*
X57156393Y-126789393D01*
X57174117Y-126773329D01*
X57193330Y-126759079D01*
X57213847Y-126746782D01*
X57235471Y-126736554D01*
X57257993Y-126728496D01*
X57281197Y-126722684D01*
X57304858Y-126719174D01*
X57328750Y-126718000D01*
X58241250Y-126718000D01*
X58265142Y-126719174D01*
X58265142Y-126719174D01*
G37*
D12*
X57785000Y-127205500D03*
D11*
G36*
X58265142Y-128594174D02*
G01*
X58288803Y-128597684D01*
X58312007Y-128603496D01*
X58334529Y-128611554D01*
X58356153Y-128621782D01*
X58376670Y-128634079D01*
X58395883Y-128648329D01*
X58413607Y-128664393D01*
X58429671Y-128682117D01*
X58443921Y-128701330D01*
X58456218Y-128721847D01*
X58466446Y-128743471D01*
X58474504Y-128765993D01*
X58480316Y-128789197D01*
X58483826Y-128812858D01*
X58485000Y-128836750D01*
X58485000Y-129324250D01*
X58483826Y-129348142D01*
X58480316Y-129371803D01*
X58474504Y-129395007D01*
X58466446Y-129417529D01*
X58456218Y-129439153D01*
X58443921Y-129459670D01*
X58429671Y-129478883D01*
X58413607Y-129496607D01*
X58395883Y-129512671D01*
X58376670Y-129526921D01*
X58356153Y-129539218D01*
X58334529Y-129549446D01*
X58312007Y-129557504D01*
X58288803Y-129563316D01*
X58265142Y-129566826D01*
X58241250Y-129568000D01*
X57328750Y-129568000D01*
X57304858Y-129566826D01*
X57281197Y-129563316D01*
X57257993Y-129557504D01*
X57235471Y-129549446D01*
X57213847Y-129539218D01*
X57193330Y-129526921D01*
X57174117Y-129512671D01*
X57156393Y-129496607D01*
X57140329Y-129478883D01*
X57126079Y-129459670D01*
X57113782Y-129439153D01*
X57103554Y-129417529D01*
X57095496Y-129395007D01*
X57089684Y-129371803D01*
X57086174Y-129348142D01*
X57085000Y-129324250D01*
X57085000Y-128836750D01*
X57086174Y-128812858D01*
X57089684Y-128789197D01*
X57095496Y-128765993D01*
X57103554Y-128743471D01*
X57113782Y-128721847D01*
X57126079Y-128701330D01*
X57140329Y-128682117D01*
X57156393Y-128664393D01*
X57174117Y-128648329D01*
X57193330Y-128634079D01*
X57213847Y-128621782D01*
X57235471Y-128611554D01*
X57257993Y-128603496D01*
X57281197Y-128597684D01*
X57304858Y-128594174D01*
X57328750Y-128593000D01*
X58241250Y-128593000D01*
X58265142Y-128594174D01*
X58265142Y-128594174D01*
G37*
D12*
X57785000Y-129080500D03*
D11*
G36*
X48486142Y-120496174D02*
G01*
X48509803Y-120499684D01*
X48533007Y-120505496D01*
X48555529Y-120513554D01*
X48577153Y-120523782D01*
X48597670Y-120536079D01*
X48616883Y-120550329D01*
X48634607Y-120566393D01*
X48650671Y-120584117D01*
X48664921Y-120603330D01*
X48677218Y-120623847D01*
X48687446Y-120645471D01*
X48695504Y-120667993D01*
X48701316Y-120691197D01*
X48704826Y-120714858D01*
X48706000Y-120738750D01*
X48706000Y-121226250D01*
X48704826Y-121250142D01*
X48701316Y-121273803D01*
X48695504Y-121297007D01*
X48687446Y-121319529D01*
X48677218Y-121341153D01*
X48664921Y-121361670D01*
X48650671Y-121380883D01*
X48634607Y-121398607D01*
X48616883Y-121414671D01*
X48597670Y-121428921D01*
X48577153Y-121441218D01*
X48555529Y-121451446D01*
X48533007Y-121459504D01*
X48509803Y-121465316D01*
X48486142Y-121468826D01*
X48462250Y-121470000D01*
X47549750Y-121470000D01*
X47525858Y-121468826D01*
X47502197Y-121465316D01*
X47478993Y-121459504D01*
X47456471Y-121451446D01*
X47434847Y-121441218D01*
X47414330Y-121428921D01*
X47395117Y-121414671D01*
X47377393Y-121398607D01*
X47361329Y-121380883D01*
X47347079Y-121361670D01*
X47334782Y-121341153D01*
X47324554Y-121319529D01*
X47316496Y-121297007D01*
X47310684Y-121273803D01*
X47307174Y-121250142D01*
X47306000Y-121226250D01*
X47306000Y-120738750D01*
X47307174Y-120714858D01*
X47310684Y-120691197D01*
X47316496Y-120667993D01*
X47324554Y-120645471D01*
X47334782Y-120623847D01*
X47347079Y-120603330D01*
X47361329Y-120584117D01*
X47377393Y-120566393D01*
X47395117Y-120550329D01*
X47414330Y-120536079D01*
X47434847Y-120523782D01*
X47456471Y-120513554D01*
X47478993Y-120505496D01*
X47502197Y-120499684D01*
X47525858Y-120496174D01*
X47549750Y-120495000D01*
X48462250Y-120495000D01*
X48486142Y-120496174D01*
X48486142Y-120496174D01*
G37*
D12*
X48006000Y-120982500D03*
D11*
G36*
X48486142Y-122371174D02*
G01*
X48509803Y-122374684D01*
X48533007Y-122380496D01*
X48555529Y-122388554D01*
X48577153Y-122398782D01*
X48597670Y-122411079D01*
X48616883Y-122425329D01*
X48634607Y-122441393D01*
X48650671Y-122459117D01*
X48664921Y-122478330D01*
X48677218Y-122498847D01*
X48687446Y-122520471D01*
X48695504Y-122542993D01*
X48701316Y-122566197D01*
X48704826Y-122589858D01*
X48706000Y-122613750D01*
X48706000Y-123101250D01*
X48704826Y-123125142D01*
X48701316Y-123148803D01*
X48695504Y-123172007D01*
X48687446Y-123194529D01*
X48677218Y-123216153D01*
X48664921Y-123236670D01*
X48650671Y-123255883D01*
X48634607Y-123273607D01*
X48616883Y-123289671D01*
X48597670Y-123303921D01*
X48577153Y-123316218D01*
X48555529Y-123326446D01*
X48533007Y-123334504D01*
X48509803Y-123340316D01*
X48486142Y-123343826D01*
X48462250Y-123345000D01*
X47549750Y-123345000D01*
X47525858Y-123343826D01*
X47502197Y-123340316D01*
X47478993Y-123334504D01*
X47456471Y-123326446D01*
X47434847Y-123316218D01*
X47414330Y-123303921D01*
X47395117Y-123289671D01*
X47377393Y-123273607D01*
X47361329Y-123255883D01*
X47347079Y-123236670D01*
X47334782Y-123216153D01*
X47324554Y-123194529D01*
X47316496Y-123172007D01*
X47310684Y-123148803D01*
X47307174Y-123125142D01*
X47306000Y-123101250D01*
X47306000Y-122613750D01*
X47307174Y-122589858D01*
X47310684Y-122566197D01*
X47316496Y-122542993D01*
X47324554Y-122520471D01*
X47334782Y-122498847D01*
X47347079Y-122478330D01*
X47361329Y-122459117D01*
X47377393Y-122441393D01*
X47395117Y-122425329D01*
X47414330Y-122411079D01*
X47434847Y-122398782D01*
X47456471Y-122388554D01*
X47478993Y-122380496D01*
X47502197Y-122374684D01*
X47525858Y-122371174D01*
X47549750Y-122370000D01*
X48462250Y-122370000D01*
X48486142Y-122371174D01*
X48486142Y-122371174D01*
G37*
D12*
X48006000Y-122857500D03*
M02*
